%TF.GenerationSoftware,KiCad,Pcbnew,6.0.2+dfsg-1*%
%TF.CreationDate,2024-06-04T09:24:21+02:00*%
%TF.ProjectId,SBC2_Rebuild,53424332-5f52-4656-9275-696c642e6b69,rev?*%
%TF.SameCoordinates,Original*%
%TF.FileFunction,Soldermask,Bot*%
%TF.FilePolarity,Negative*%
%FSLAX46Y46*%
G04 Gerber Fmt 4.6, Leading zero omitted, Abs format (unit mm)*
G04 Created by KiCad (PCBNEW 6.0.2+dfsg-1) date 2024-06-04 09:24:21*
%MOMM*%
%LPD*%
G01*
G04 APERTURE LIST*
%ADD10R,1.600000X1.600000*%
%ADD11C,1.600000*%
%ADD12O,1.600000X1.600000*%
%ADD13R,1.700000X1.700000*%
%ADD14O,1.700000X1.700000*%
%ADD15C,1.500000*%
G04 APERTURE END LIST*
D10*
%TO.C,C4*%
X163830000Y-63500000D03*
D11*
X158830000Y-63500000D03*
%TD*%
D10*
%TO.C,U1*%
X165100000Y-106675000D03*
D12*
X165100000Y-109215000D03*
X165100000Y-111755000D03*
X165100000Y-114295000D03*
X165100000Y-116835000D03*
X165100000Y-119375000D03*
X165100000Y-121915000D03*
X172720000Y-121915000D03*
X172720000Y-119375000D03*
X172720000Y-116835000D03*
X172720000Y-114295000D03*
X172720000Y-111755000D03*
X172720000Y-109215000D03*
X172720000Y-106675000D03*
%TD*%
D10*
%TO.C,U7*%
X99060000Y-68580000D03*
D12*
X99060000Y-71120000D03*
X99060000Y-73660000D03*
X99060000Y-76200000D03*
X99060000Y-78740000D03*
X99060000Y-81280000D03*
X99060000Y-83820000D03*
X99060000Y-86360000D03*
X99060000Y-88900000D03*
X99060000Y-91440000D03*
X99060000Y-93980000D03*
X99060000Y-96520000D03*
X114300000Y-96520000D03*
X114300000Y-93980000D03*
X114300000Y-91440000D03*
X114300000Y-88900000D03*
X114300000Y-86360000D03*
X114300000Y-83820000D03*
X114300000Y-81280000D03*
X114300000Y-78740000D03*
X114300000Y-76200000D03*
X114300000Y-73660000D03*
X114300000Y-71120000D03*
X114300000Y-68580000D03*
%TD*%
D11*
%TO.C,R5*%
X157480000Y-124460000D03*
D12*
X147320000Y-124460000D03*
%TD*%
D11*
%TO.C,R2*%
X162020000Y-92710000D03*
D12*
X172180000Y-92710000D03*
%TD*%
D11*
%TO.C,R7*%
X144780000Y-124460000D03*
D12*
X134620000Y-124460000D03*
%TD*%
D11*
%TO.C,R8*%
X121920000Y-120650000D03*
D12*
X132080000Y-120650000D03*
%TD*%
D10*
%TO.C,C1*%
X165100000Y-100830000D03*
D11*
X160100000Y-100830000D03*
%TD*%
D10*
%TO.C,U9*%
X139700000Y-68580000D03*
D12*
X139700000Y-71120000D03*
X139700000Y-73660000D03*
X139700000Y-76200000D03*
X139700000Y-78740000D03*
X139700000Y-81280000D03*
X139700000Y-83820000D03*
X139700000Y-86360000D03*
X139700000Y-88900000D03*
X139700000Y-91440000D03*
X139700000Y-93980000D03*
X139700000Y-96520000D03*
X154940000Y-96520000D03*
X154940000Y-93980000D03*
X154940000Y-91440000D03*
X154940000Y-88900000D03*
X154940000Y-86360000D03*
X154940000Y-83820000D03*
X154940000Y-81280000D03*
X154940000Y-78740000D03*
X154940000Y-76200000D03*
X154940000Y-73660000D03*
X154940000Y-71120000D03*
X154940000Y-68580000D03*
%TD*%
D11*
%TO.C,C3*%
X160020000Y-76160000D03*
X160020000Y-71160000D03*
%TD*%
D10*
%TO.C,U6*%
X78740000Y-68580000D03*
D12*
X78740000Y-71120000D03*
X78740000Y-73660000D03*
X78740000Y-76200000D03*
X78740000Y-78740000D03*
X78740000Y-81280000D03*
X78740000Y-83820000D03*
X78740000Y-86360000D03*
X78740000Y-88900000D03*
X78740000Y-91440000D03*
X78740000Y-93980000D03*
X78740000Y-96520000D03*
X93980000Y-96520000D03*
X93980000Y-93980000D03*
X93980000Y-91440000D03*
X93980000Y-88900000D03*
X93980000Y-86360000D03*
X93980000Y-83820000D03*
X93980000Y-81280000D03*
X93980000Y-78740000D03*
X93980000Y-76200000D03*
X93980000Y-73660000D03*
X93980000Y-71120000D03*
X93980000Y-68580000D03*
%TD*%
D13*
%TO.C,SW1*%
X162560000Y-125730000D03*
D14*
X165100000Y-125730000D03*
%TD*%
D11*
%TO.C,C2*%
X166410000Y-104140000D03*
X171410000Y-104140000D03*
%TD*%
D10*
%TO.C,U3*%
X106685000Y-116845000D03*
D12*
X109225000Y-116845000D03*
X111765000Y-116845000D03*
X114305000Y-116845000D03*
X116845000Y-116845000D03*
X119385000Y-116845000D03*
X121925000Y-116845000D03*
X124465000Y-116845000D03*
X127005000Y-116845000D03*
X129545000Y-116845000D03*
X132085000Y-116845000D03*
X134625000Y-116845000D03*
X137165000Y-116845000D03*
X139705000Y-116845000D03*
X142245000Y-116845000D03*
X144785000Y-116845000D03*
X147325000Y-116845000D03*
X149865000Y-116845000D03*
X152405000Y-116845000D03*
X154945000Y-116845000D03*
X154945000Y-101605000D03*
X152405000Y-101605000D03*
X149865000Y-101605000D03*
X147325000Y-101605000D03*
X144785000Y-101605000D03*
X142245000Y-101605000D03*
X139705000Y-101605000D03*
X137165000Y-101605000D03*
X134625000Y-101605000D03*
X132085000Y-101605000D03*
X129545000Y-101605000D03*
X127005000Y-101605000D03*
X124465000Y-101605000D03*
X121925000Y-101605000D03*
X119385000Y-101605000D03*
X116845000Y-101605000D03*
X114305000Y-101605000D03*
X111765000Y-101605000D03*
X109225000Y-101605000D03*
X106685000Y-101605000D03*
%TD*%
D10*
%TO.C,U8*%
X119380000Y-68580000D03*
D12*
X119380000Y-71120000D03*
X119380000Y-73660000D03*
X119380000Y-76200000D03*
X119380000Y-78740000D03*
X119380000Y-81280000D03*
X119380000Y-83820000D03*
X119380000Y-86360000D03*
X119380000Y-88900000D03*
X119380000Y-91440000D03*
X119380000Y-93980000D03*
X119380000Y-96520000D03*
X134620000Y-96520000D03*
X134620000Y-93980000D03*
X134620000Y-91440000D03*
X134620000Y-88900000D03*
X134620000Y-86360000D03*
X134620000Y-83820000D03*
X134620000Y-81280000D03*
X134620000Y-78740000D03*
X134620000Y-76200000D03*
X134620000Y-73660000D03*
X134620000Y-71120000D03*
X134620000Y-68580000D03*
%TD*%
D11*
%TO.C,R4*%
X160020000Y-120650000D03*
D12*
X149860000Y-120650000D03*
%TD*%
D10*
%TO.C,U2*%
X165100000Y-68580000D03*
D12*
X165100000Y-71120000D03*
X165100000Y-73660000D03*
X165100000Y-76200000D03*
X165100000Y-78740000D03*
X165100000Y-81280000D03*
X165100000Y-83820000D03*
X172720000Y-83820000D03*
X172720000Y-81280000D03*
X172720000Y-78740000D03*
X172720000Y-76200000D03*
X172720000Y-73660000D03*
X172720000Y-71120000D03*
X172720000Y-68580000D03*
%TD*%
D15*
%TO.C,Y1*%
X172180000Y-95160000D03*
X172180000Y-90260000D03*
%TD*%
D10*
%TO.C,U4*%
X78740000Y-104140000D03*
D12*
X78740000Y-106680000D03*
X78740000Y-109220000D03*
X78740000Y-111760000D03*
X78740000Y-114300000D03*
X78740000Y-116840000D03*
X78740000Y-119380000D03*
X78740000Y-121920000D03*
X86360000Y-121920000D03*
X86360000Y-119380000D03*
X86360000Y-116840000D03*
X86360000Y-114300000D03*
X86360000Y-111760000D03*
X86360000Y-109220000D03*
X86360000Y-106680000D03*
X86360000Y-104140000D03*
%TD*%
D11*
%TO.C,R1*%
X172180000Y-97790000D03*
D12*
X162020000Y-97790000D03*
%TD*%
D11*
%TO.C,R6*%
X137160000Y-120650000D03*
D12*
X147320000Y-120650000D03*
%TD*%
D11*
%TO.C,R3*%
X162020000Y-87630000D03*
D12*
X172180000Y-87630000D03*
%TD*%
D10*
%TO.C,U5*%
X91440000Y-104140000D03*
D12*
X91440000Y-106680000D03*
X91440000Y-109220000D03*
X91440000Y-111760000D03*
X91440000Y-114300000D03*
X91440000Y-116840000D03*
X91440000Y-119380000D03*
X91440000Y-121920000D03*
X99060000Y-121920000D03*
X99060000Y-119380000D03*
X99060000Y-116840000D03*
X99060000Y-114300000D03*
X99060000Y-111760000D03*
X99060000Y-109220000D03*
X99060000Y-106680000D03*
X99060000Y-104140000D03*
%TD*%
D13*
%TO.C,J1*%
X170180000Y-59690000D03*
D14*
X167640000Y-59690000D03*
X165100000Y-59690000D03*
X162560000Y-59690000D03*
X160020000Y-59690000D03*
X157480000Y-59690000D03*
X154940000Y-59690000D03*
X152400000Y-59690000D03*
X149860000Y-59690000D03*
X147320000Y-59690000D03*
X144780000Y-59690000D03*
X142240000Y-59690000D03*
X139700000Y-59690000D03*
X137160000Y-59690000D03*
X134620000Y-59690000D03*
X132080000Y-59690000D03*
X129540000Y-59690000D03*
X127000000Y-59690000D03*
X124460000Y-59690000D03*
X121920000Y-59690000D03*
X119380000Y-59690000D03*
X116840000Y-59690000D03*
X114300000Y-59690000D03*
X111760000Y-59690000D03*
X109220000Y-59690000D03*
X106680000Y-59690000D03*
X104140000Y-59690000D03*
X101600000Y-59690000D03*
X99060000Y-59690000D03*
X96520000Y-59690000D03*
X93980000Y-59690000D03*
X91440000Y-59690000D03*
X88900000Y-59690000D03*
X86360000Y-59690000D03*
X83820000Y-59690000D03*
X81280000Y-59690000D03*
X78740000Y-59690000D03*
%TD*%
M02*
