%TF.GenerationSoftware,KiCad,Pcbnew,6.0.2+dfsg-1*%
%TF.CreationDate,2024-06-04T09:24:19+02:00*%
%TF.ProjectId,SBC2_Rebuild,53424332-5f52-4656-9275-696c642e6b69,rev?*%
%TF.SameCoordinates,Original*%
%TF.FileFunction,Copper,L2,Bot*%
%TF.FilePolarity,Positive*%
%FSLAX46Y46*%
G04 Gerber Fmt 4.6, Leading zero omitted, Abs format (unit mm)*
G04 Created by KiCad (PCBNEW 6.0.2+dfsg-1) date 2024-06-04 09:24:19*
%MOMM*%
%LPD*%
G01*
G04 APERTURE LIST*
%TA.AperFunction,ComponentPad*%
%ADD10R,1.600000X1.600000*%
%TD*%
%TA.AperFunction,ComponentPad*%
%ADD11C,1.600000*%
%TD*%
%TA.AperFunction,ComponentPad*%
%ADD12O,1.600000X1.600000*%
%TD*%
%TA.AperFunction,ComponentPad*%
%ADD13R,1.700000X1.700000*%
%TD*%
%TA.AperFunction,ComponentPad*%
%ADD14O,1.700000X1.700000*%
%TD*%
%TA.AperFunction,ComponentPad*%
%ADD15C,1.500000*%
%TD*%
%TA.AperFunction,ViaPad*%
%ADD16C,0.800000*%
%TD*%
%TA.AperFunction,Conductor*%
%ADD17C,0.250000*%
%TD*%
%TA.AperFunction,Conductor*%
%ADD18C,1.000000*%
%TD*%
G04 APERTURE END LIST*
D10*
%TO.P,C4,1*%
%TO.N,+5V*%
X163830000Y-63500000D03*
D11*
%TO.P,C4,2*%
%TO.N,GND*%
X158830000Y-63500000D03*
%TD*%
D10*
%TO.P,U1,1,~{Q}*%
%TO.N,/~{RESET}*%
X165100000Y-106675000D03*
D12*
%TO.P,U1,2*%
%TO.N,N/C*%
X165100000Y-109215000D03*
%TO.P,U1,3,A1*%
%TO.N,GND*%
X165100000Y-111755000D03*
%TO.P,U1,4,A2*%
X165100000Y-114295000D03*
%TO.P,U1,5,B*%
%TO.N,Net-(C1-Pad1)*%
X165100000Y-116835000D03*
%TO.P,U1,6,Q*%
%TO.N,unconnected-(U1-Pad6)*%
X165100000Y-119375000D03*
%TO.P,U1,7,GND*%
%TO.N,GND*%
X165100000Y-121915000D03*
%TO.P,U1,8*%
%TO.N,N/C*%
X172720000Y-121915000D03*
%TO.P,U1,9,Rint*%
%TO.N,+5V*%
X172720000Y-119375000D03*
%TO.P,U1,10,Cext*%
%TO.N,Net-(C2-Pad2)*%
X172720000Y-116835000D03*
%TO.P,U1,11,R/Cext*%
%TO.N,Net-(C2-Pad1)*%
X172720000Y-114295000D03*
%TO.P,U1,12*%
%TO.N,N/C*%
X172720000Y-111755000D03*
%TO.P,U1,13*%
X172720000Y-109215000D03*
%TO.P,U1,14,VCC*%
%TO.N,+5V*%
X172720000Y-106675000D03*
%TD*%
D10*
%TO.P,U7,1,A7*%
%TO.N,/A7*%
X99060000Y-68580000D03*
D12*
%TO.P,U7,2,A6*%
%TO.N,/A6*%
X99060000Y-71120000D03*
%TO.P,U7,3,A5*%
%TO.N,/A5*%
X99060000Y-73660000D03*
%TO.P,U7,4,A4*%
%TO.N,/A4*%
X99060000Y-76200000D03*
%TO.P,U7,5,A3*%
%TO.N,/A3*%
X99060000Y-78740000D03*
%TO.P,U7,6,A2*%
%TO.N,/A2*%
X99060000Y-81280000D03*
%TO.P,U7,7,A1*%
%TO.N,/A1*%
X99060000Y-83820000D03*
%TO.P,U7,8,A0*%
%TO.N,/A0*%
X99060000Y-86360000D03*
%TO.P,U7,9,D0*%
%TO.N,/D0*%
X99060000Y-88900000D03*
%TO.P,U7,10,D1*%
%TO.N,/D1*%
X99060000Y-91440000D03*
%TO.P,U7,11,D2*%
%TO.N,/D2*%
X99060000Y-93980000D03*
%TO.P,U7,12,GND*%
%TO.N,GND*%
X99060000Y-96520000D03*
%TO.P,U7,13,D3*%
%TO.N,/D3*%
X114300000Y-96520000D03*
%TO.P,U7,14,D4*%
%TO.N,/D4*%
X114300000Y-93980000D03*
%TO.P,U7,15,D5*%
%TO.N,/D5*%
X114300000Y-91440000D03*
%TO.P,U7,16,D6*%
%TO.N,/D6*%
X114300000Y-88900000D03*
%TO.P,U7,17,D7*%
%TO.N,/D7*%
X114300000Y-86360000D03*
%TO.P,U7,18,~{CE}*%
%TO.N,/~{CE2}*%
X114300000Y-83820000D03*
%TO.P,U7,19,A10*%
%TO.N,/A10*%
X114300000Y-81280000D03*
%TO.P,U7,20,~{OE}*%
%TO.N,/~{RD}*%
X114300000Y-78740000D03*
%TO.P,U7,21,A11*%
%TO.N,/A11*%
X114300000Y-76200000D03*
%TO.P,U7,22,A9*%
%TO.N,/A9*%
X114300000Y-73660000D03*
%TO.P,U7,23,A8*%
%TO.N,/A8*%
X114300000Y-71120000D03*
%TO.P,U7,24,VCC*%
%TO.N,+5V*%
X114300000Y-68580000D03*
%TD*%
D11*
%TO.P,R5,1*%
%TO.N,+5V*%
X157480000Y-124460000D03*
D12*
%TO.P,R5,2*%
%TO.N,Net-(R5-Pad2)*%
X147320000Y-124460000D03*
%TD*%
D11*
%TO.P,R2,1*%
%TO.N,Net-(C3-Pad2)*%
X162020000Y-92710000D03*
D12*
%TO.P,R2,2*%
%TO.N,Net-(R2-Pad2)*%
X172180000Y-92710000D03*
%TD*%
D11*
%TO.P,R7,1*%
%TO.N,/~{INT}*%
X144780000Y-124460000D03*
D12*
%TO.P,R7,2*%
%TO.N,+5V*%
X134620000Y-124460000D03*
%TD*%
D11*
%TO.P,R8,1*%
%TO.N,/~{CLK}*%
X121920000Y-120650000D03*
D12*
%TO.P,R8,2*%
%TO.N,+5V*%
X132080000Y-120650000D03*
%TD*%
D10*
%TO.P,C1,1*%
%TO.N,Net-(C1-Pad1)*%
X165100000Y-100830000D03*
D11*
%TO.P,C1,2*%
%TO.N,GND*%
X160100000Y-100830000D03*
%TD*%
D10*
%TO.P,U9,1,A7*%
%TO.N,/A7*%
X139700000Y-68580000D03*
D12*
%TO.P,U9,2,A6*%
%TO.N,/A6*%
X139700000Y-71120000D03*
%TO.P,U9,3,A5*%
%TO.N,/A5*%
X139700000Y-73660000D03*
%TO.P,U9,4,A4*%
%TO.N,/A4*%
X139700000Y-76200000D03*
%TO.P,U9,5,A3*%
%TO.N,/A3*%
X139700000Y-78740000D03*
%TO.P,U9,6,A2*%
%TO.N,/A2*%
X139700000Y-81280000D03*
%TO.P,U9,7,A1*%
%TO.N,/A1*%
X139700000Y-83820000D03*
%TO.P,U9,8,A0*%
%TO.N,/A0*%
X139700000Y-86360000D03*
%TO.P,U9,9,D0*%
%TO.N,/D0*%
X139700000Y-88900000D03*
%TO.P,U9,10,D1*%
%TO.N,/D1*%
X139700000Y-91440000D03*
%TO.P,U9,11,D2*%
%TO.N,/D2*%
X139700000Y-93980000D03*
%TO.P,U9,12,GND*%
%TO.N,GND*%
X139700000Y-96520000D03*
%TO.P,U9,13,D3*%
%TO.N,/D3*%
X154940000Y-96520000D03*
%TO.P,U9,14,D4*%
%TO.N,/D4*%
X154940000Y-93980000D03*
%TO.P,U9,15,D5*%
%TO.N,/D5*%
X154940000Y-91440000D03*
%TO.P,U9,16,D6*%
%TO.N,/D6*%
X154940000Y-88900000D03*
%TO.P,U9,17,D7*%
%TO.N,/D7*%
X154940000Y-86360000D03*
%TO.P,U9,18,~{CS}*%
%TO.N,/~{CE4}*%
X154940000Y-83820000D03*
%TO.P,U9,19,A10*%
%TO.N,/A10*%
X154940000Y-81280000D03*
%TO.P,U9,20,~{OE}*%
%TO.N,/~{RD}*%
X154940000Y-78740000D03*
%TO.P,U9,21,~{WE}*%
%TO.N,/~{WR}*%
X154940000Y-76200000D03*
%TO.P,U9,22,A9*%
%TO.N,/A9*%
X154940000Y-73660000D03*
%TO.P,U9,23,A8*%
%TO.N,/A8*%
X154940000Y-71120000D03*
%TO.P,U9,24,VCC*%
%TO.N,+5V*%
X154940000Y-68580000D03*
%TD*%
D11*
%TO.P,C3,1*%
%TO.N,Net-(C3-Pad1)*%
X160020000Y-76160000D03*
%TO.P,C3,2*%
%TO.N,Net-(C3-Pad2)*%
X160020000Y-71160000D03*
%TD*%
D10*
%TO.P,U6,1,A7*%
%TO.N,/A7*%
X78740000Y-68580000D03*
D12*
%TO.P,U6,2,A6*%
%TO.N,/A6*%
X78740000Y-71120000D03*
%TO.P,U6,3,A5*%
%TO.N,/A5*%
X78740000Y-73660000D03*
%TO.P,U6,4,A4*%
%TO.N,/A4*%
X78740000Y-76200000D03*
%TO.P,U6,5,A3*%
%TO.N,/A3*%
X78740000Y-78740000D03*
%TO.P,U6,6,A2*%
%TO.N,/A2*%
X78740000Y-81280000D03*
%TO.P,U6,7,A1*%
%TO.N,/A1*%
X78740000Y-83820000D03*
%TO.P,U6,8,A0*%
%TO.N,/A0*%
X78740000Y-86360000D03*
%TO.P,U6,9,D0*%
%TO.N,/D0*%
X78740000Y-88900000D03*
%TO.P,U6,10,D1*%
%TO.N,/D1*%
X78740000Y-91440000D03*
%TO.P,U6,11,D2*%
%TO.N,/D2*%
X78740000Y-93980000D03*
%TO.P,U6,12,GND*%
%TO.N,GND*%
X78740000Y-96520000D03*
%TO.P,U6,13,D3*%
%TO.N,/D3*%
X93980000Y-96520000D03*
%TO.P,U6,14,D4*%
%TO.N,/D4*%
X93980000Y-93980000D03*
%TO.P,U6,15,D5*%
%TO.N,/D5*%
X93980000Y-91440000D03*
%TO.P,U6,16,D6*%
%TO.N,/D6*%
X93980000Y-88900000D03*
%TO.P,U6,17,D7*%
%TO.N,/D7*%
X93980000Y-86360000D03*
%TO.P,U6,18,~{CE}*%
%TO.N,/~{CE1}*%
X93980000Y-83820000D03*
%TO.P,U6,19,A10*%
%TO.N,/A10*%
X93980000Y-81280000D03*
%TO.P,U6,20,~{OE}*%
%TO.N,/~{RD}*%
X93980000Y-78740000D03*
%TO.P,U6,21,A11*%
%TO.N,/A11*%
X93980000Y-76200000D03*
%TO.P,U6,22,A9*%
%TO.N,/A9*%
X93980000Y-73660000D03*
%TO.P,U6,23,A8*%
%TO.N,/A8*%
X93980000Y-71120000D03*
%TO.P,U6,24,VCC*%
%TO.N,+5V*%
X93980000Y-68580000D03*
%TD*%
D13*
%TO.P,SW1,1,1*%
%TO.N,GND*%
X162560000Y-125730000D03*
D14*
%TO.P,SW1,2,2*%
%TO.N,Net-(C1-Pad1)*%
X165100000Y-125730000D03*
%TD*%
D11*
%TO.P,C2,1*%
%TO.N,Net-(C2-Pad1)*%
X166410000Y-104140000D03*
%TO.P,C2,2*%
%TO.N,Net-(C2-Pad2)*%
X171410000Y-104140000D03*
%TD*%
D10*
%TO.P,U3,1,A11*%
%TO.N,/A11*%
X106685000Y-116845000D03*
D12*
%TO.P,U3,2,A12*%
%TO.N,/A12*%
X109225000Y-116845000D03*
%TO.P,U3,3,A13*%
%TO.N,/A13*%
X111765000Y-116845000D03*
%TO.P,U3,4,A14*%
%TO.N,/A14*%
X114305000Y-116845000D03*
%TO.P,U3,5,A15*%
%TO.N,/A15*%
X116845000Y-116845000D03*
%TO.P,U3,6,~{CLK}*%
%TO.N,/~{CLK}*%
X119385000Y-116845000D03*
%TO.P,U3,7,D4*%
%TO.N,/D4*%
X121925000Y-116845000D03*
%TO.P,U3,8,D3*%
%TO.N,/D3*%
X124465000Y-116845000D03*
%TO.P,U3,9,D5*%
%TO.N,/D5*%
X127005000Y-116845000D03*
%TO.P,U3,10,D6*%
%TO.N,/D6*%
X129545000Y-116845000D03*
%TO.P,U3,11,VCC*%
%TO.N,+5V*%
X132085000Y-116845000D03*
%TO.P,U3,12,D2*%
%TO.N,/D2*%
X134625000Y-116845000D03*
%TO.P,U3,13,D7*%
%TO.N,/D7*%
X137165000Y-116845000D03*
%TO.P,U3,14,D0*%
%TO.N,/D0*%
X139705000Y-116845000D03*
%TO.P,U3,15,D1*%
%TO.N,/D1*%
X142245000Y-116845000D03*
%TO.P,U3,16,~{INT}*%
%TO.N,/~{INT}*%
X144785000Y-116845000D03*
%TO.P,U3,17,~{NMI}*%
%TO.N,/~{NMI}*%
X147325000Y-116845000D03*
%TO.P,U3,18,~{HALT}*%
%TO.N,unconnected-(U3-Pad18)*%
X149865000Y-116845000D03*
%TO.P,U3,19,~{MREQ}*%
%TO.N,/~{MREQ}*%
X152405000Y-116845000D03*
%TO.P,U3,20,~{IORQ}*%
%TO.N,/~{IORQ}*%
X154945000Y-116845000D03*
%TO.P,U3,21,~{RD}*%
%TO.N,/~{RD}*%
X154945000Y-101605000D03*
%TO.P,U3,22,~{WR}*%
%TO.N,/~{WR}*%
X152405000Y-101605000D03*
%TO.P,U3,23,~{BUSACK}*%
%TO.N,unconnected-(U3-Pad23)*%
X149865000Y-101605000D03*
%TO.P,U3,24,~{WAIT}*%
%TO.N,/~{WAIT}*%
X147325000Y-101605000D03*
%TO.P,U3,25,~{BUSRQ}*%
%TO.N,Net-(R5-Pad2)*%
X144785000Y-101605000D03*
%TO.P,U3,26,~{RESET}*%
%TO.N,/~{RESET}*%
X142245000Y-101605000D03*
%TO.P,U3,27,~{M1}*%
%TO.N,/~{M1}*%
X139705000Y-101605000D03*
%TO.P,U3,28,~{RFSH}*%
%TO.N,/~{RFSH}*%
X137165000Y-101605000D03*
%TO.P,U3,29,GND*%
%TO.N,GND*%
X134625000Y-101605000D03*
%TO.P,U3,30,A0*%
%TO.N,/A0*%
X132085000Y-101605000D03*
%TO.P,U3,31,A1*%
%TO.N,/A1*%
X129545000Y-101605000D03*
%TO.P,U3,32,A2*%
%TO.N,/A2*%
X127005000Y-101605000D03*
%TO.P,U3,33,A3*%
%TO.N,/A3*%
X124465000Y-101605000D03*
%TO.P,U3,34,A4*%
%TO.N,/A4*%
X121925000Y-101605000D03*
%TO.P,U3,35,A5*%
%TO.N,/A5*%
X119385000Y-101605000D03*
%TO.P,U3,36,A6*%
%TO.N,/A6*%
X116845000Y-101605000D03*
%TO.P,U3,37,A7*%
%TO.N,/A7*%
X114305000Y-101605000D03*
%TO.P,U3,38,A8*%
%TO.N,/A8*%
X111765000Y-101605000D03*
%TO.P,U3,39,A9*%
%TO.N,/A9*%
X109225000Y-101605000D03*
%TO.P,U3,40,A10*%
%TO.N,/A10*%
X106685000Y-101605000D03*
%TD*%
D10*
%TO.P,U8,1,A7*%
%TO.N,/A7*%
X119380000Y-68580000D03*
D12*
%TO.P,U8,2,A6*%
%TO.N,/A6*%
X119380000Y-71120000D03*
%TO.P,U8,3,A5*%
%TO.N,/A5*%
X119380000Y-73660000D03*
%TO.P,U8,4,A4*%
%TO.N,/A4*%
X119380000Y-76200000D03*
%TO.P,U8,5,A3*%
%TO.N,/A3*%
X119380000Y-78740000D03*
%TO.P,U8,6,A2*%
%TO.N,/A2*%
X119380000Y-81280000D03*
%TO.P,U8,7,A1*%
%TO.N,/A1*%
X119380000Y-83820000D03*
%TO.P,U8,8,A0*%
%TO.N,/A0*%
X119380000Y-86360000D03*
%TO.P,U8,9,D0*%
%TO.N,/D0*%
X119380000Y-88900000D03*
%TO.P,U8,10,D1*%
%TO.N,/D1*%
X119380000Y-91440000D03*
%TO.P,U8,11,D2*%
%TO.N,/D2*%
X119380000Y-93980000D03*
%TO.P,U8,12,GND*%
%TO.N,GND*%
X119380000Y-96520000D03*
%TO.P,U8,13,D3*%
%TO.N,/D3*%
X134620000Y-96520000D03*
%TO.P,U8,14,D4*%
%TO.N,/D4*%
X134620000Y-93980000D03*
%TO.P,U8,15,D5*%
%TO.N,/D5*%
X134620000Y-91440000D03*
%TO.P,U8,16,D6*%
%TO.N,/D6*%
X134620000Y-88900000D03*
%TO.P,U8,17,D7*%
%TO.N,/D7*%
X134620000Y-86360000D03*
%TO.P,U8,18,~{CS}*%
%TO.N,/~{CE3}*%
X134620000Y-83820000D03*
%TO.P,U8,19,A10*%
%TO.N,/A10*%
X134620000Y-81280000D03*
%TO.P,U8,20,~{OE}*%
%TO.N,/~{RD}*%
X134620000Y-78740000D03*
%TO.P,U8,21,~{WE}*%
%TO.N,/~{WR}*%
X134620000Y-76200000D03*
%TO.P,U8,22,A9*%
%TO.N,/A9*%
X134620000Y-73660000D03*
%TO.P,U8,23,A8*%
%TO.N,/A8*%
X134620000Y-71120000D03*
%TO.P,U8,24,VCC*%
%TO.N,+5V*%
X134620000Y-68580000D03*
%TD*%
D11*
%TO.P,R4,1*%
%TO.N,+5V*%
X160020000Y-120650000D03*
D12*
%TO.P,R4,2*%
%TO.N,/~{WAIT}*%
X149860000Y-120650000D03*
%TD*%
D10*
%TO.P,U2,1*%
%TO.N,Net-(R2-Pad2)*%
X165100000Y-68580000D03*
D12*
%TO.P,U2,2*%
%TO.N,Net-(C3-Pad2)*%
X165100000Y-71120000D03*
%TO.P,U2,3*%
%TO.N,Net-(C3-Pad1)*%
X165100000Y-73660000D03*
%TO.P,U2,4*%
%TO.N,Net-(R3-Pad1)*%
X165100000Y-76200000D03*
%TO.P,U2,5*%
X165100000Y-78740000D03*
%TO.P,U2,6*%
%TO.N,Net-(U2-Pad13)*%
X165100000Y-81280000D03*
%TO.P,U2,7,GND*%
%TO.N,GND*%
X165100000Y-83820000D03*
%TO.P,U2,8*%
%TO.N,/~{CLK}*%
X172720000Y-83820000D03*
%TO.P,U2,9*%
%TO.N,Net-(U2-Pad10)*%
X172720000Y-81280000D03*
%TO.P,U2,10*%
X172720000Y-78740000D03*
%TO.P,U2,11*%
%TO.N,Net-(U2-Pad11)*%
X172720000Y-76200000D03*
%TO.P,U2,12*%
X172720000Y-73660000D03*
%TO.P,U2,13*%
%TO.N,Net-(U2-Pad13)*%
X172720000Y-71120000D03*
%TO.P,U2,14,VCC*%
%TO.N,+5V*%
X172720000Y-68580000D03*
%TD*%
D15*
%TO.P,Y1,1,1*%
%TO.N,Net-(R2-Pad2)*%
X172180000Y-95160000D03*
%TO.P,Y1,2,2*%
%TO.N,Net-(R3-Pad1)*%
X172180000Y-90260000D03*
%TD*%
D10*
%TO.P,U4,1,A0*%
%TO.N,/A12*%
X78740000Y-104140000D03*
D12*
%TO.P,U4,2,A1*%
%TO.N,/A13*%
X78740000Y-106680000D03*
%TO.P,U4,3,A2*%
%TO.N,/A14*%
X78740000Y-109220000D03*
%TO.P,U4,4,E1*%
%TO.N,/~{MREQ}*%
X78740000Y-111760000D03*
%TO.P,U4,5,E2*%
%TO.N,/A15*%
X78740000Y-114300000D03*
%TO.P,U4,6,E3*%
%TO.N,+5V*%
X78740000Y-116840000D03*
%TO.P,U4,7,O7*%
%TO.N,unconnected-(U4-Pad7)*%
X78740000Y-119380000D03*
%TO.P,U4,8,GND*%
%TO.N,GND*%
X78740000Y-121920000D03*
%TO.P,U4,9,O6*%
%TO.N,unconnected-(U4-Pad9)*%
X86360000Y-121920000D03*
%TO.P,U4,10,O5*%
%TO.N,unconnected-(U4-Pad10)*%
X86360000Y-119380000D03*
%TO.P,U4,11,O4*%
%TO.N,unconnected-(U4-Pad11)*%
X86360000Y-116840000D03*
%TO.P,U4,12,O3*%
%TO.N,unconnected-(U4-Pad12)*%
X86360000Y-114300000D03*
%TO.P,U4,13,O2*%
%TO.N,unconnected-(U4-Pad13)*%
X86360000Y-111760000D03*
%TO.P,U4,14,O1*%
%TO.N,/~{CE2}*%
X86360000Y-109220000D03*
%TO.P,U4,15,O0*%
%TO.N,/~{CE1}*%
X86360000Y-106680000D03*
%TO.P,U4,16,VCC*%
%TO.N,+5V*%
X86360000Y-104140000D03*
%TD*%
D11*
%TO.P,R1,1*%
%TO.N,+5V*%
X172180000Y-97790000D03*
D12*
%TO.P,R1,2*%
%TO.N,Net-(C1-Pad1)*%
X162020000Y-97790000D03*
%TD*%
D11*
%TO.P,R6,1*%
%TO.N,+5V*%
X137160000Y-120650000D03*
D12*
%TO.P,R6,2*%
%TO.N,/~{NMI}*%
X147320000Y-120650000D03*
%TD*%
D11*
%TO.P,R3,1*%
%TO.N,Net-(R3-Pad1)*%
X162020000Y-87630000D03*
D12*
%TO.P,R3,2*%
%TO.N,Net-(C3-Pad1)*%
X172180000Y-87630000D03*
%TD*%
D10*
%TO.P,U5,1,A0*%
%TO.N,/A11*%
X91440000Y-104140000D03*
D12*
%TO.P,U5,2,A1*%
%TO.N,/A12*%
X91440000Y-106680000D03*
%TO.P,U5,3,A2*%
%TO.N,/A13*%
X91440000Y-109220000D03*
%TO.P,U5,4,E1*%
%TO.N,/A14*%
X91440000Y-111760000D03*
%TO.P,U5,5,E2*%
%TO.N,/~{MREQ}*%
X91440000Y-114300000D03*
%TO.P,U5,6,E3*%
%TO.N,/A15*%
X91440000Y-116840000D03*
%TO.P,U5,7,O7*%
%TO.N,unconnected-(U5-Pad7)*%
X91440000Y-119380000D03*
%TO.P,U5,8,GND*%
%TO.N,GND*%
X91440000Y-121920000D03*
%TO.P,U5,9,O6*%
%TO.N,unconnected-(U5-Pad9)*%
X99060000Y-121920000D03*
%TO.P,U5,10,O5*%
%TO.N,unconnected-(U5-Pad10)*%
X99060000Y-119380000D03*
%TO.P,U5,11,O4*%
%TO.N,unconnected-(U5-Pad11)*%
X99060000Y-116840000D03*
%TO.P,U5,12,O3*%
%TO.N,unconnected-(U5-Pad12)*%
X99060000Y-114300000D03*
%TO.P,U5,13,O2*%
%TO.N,unconnected-(U5-Pad13)*%
X99060000Y-111760000D03*
%TO.P,U5,14,O1*%
%TO.N,/~{CE4}*%
X99060000Y-109220000D03*
%TO.P,U5,15,O0*%
%TO.N,/~{CE3}*%
X99060000Y-106680000D03*
%TO.P,U5,16,VCC*%
%TO.N,+5V*%
X99060000Y-104140000D03*
%TD*%
D13*
%TO.P,J1,1,Pin_1*%
%TO.N,-5V*%
X170180000Y-59690000D03*
D14*
%TO.P,J1,2,Pin_2*%
%TO.N,+12V*%
X167640000Y-59690000D03*
%TO.P,J1,3,Pin_3*%
%TO.N,-12V*%
X165100000Y-59690000D03*
%TO.P,J1,4,Pin_4*%
%TO.N,+5V*%
X162560000Y-59690000D03*
%TO.P,J1,5,Pin_5*%
X160020000Y-59690000D03*
%TO.P,J1,6,Pin_6*%
%TO.N,GND*%
X157480000Y-59690000D03*
%TO.P,J1,7,Pin_7*%
X154940000Y-59690000D03*
%TO.P,J1,8,Pin_8*%
%TO.N,/D0*%
X152400000Y-59690000D03*
%TO.P,J1,9,Pin_9*%
%TO.N,/D1*%
X149860000Y-59690000D03*
%TO.P,J1,10,Pin_10*%
%TO.N,/D2*%
X147320000Y-59690000D03*
%TO.P,J1,11,Pin_11*%
%TO.N,/D3*%
X144780000Y-59690000D03*
%TO.P,J1,12,Pin_12*%
%TO.N,/D4*%
X142240000Y-59690000D03*
%TO.P,J1,13,Pin_13*%
%TO.N,/D5*%
X139700000Y-59690000D03*
%TO.P,J1,14,Pin_14*%
%TO.N,/D6*%
X137160000Y-59690000D03*
%TO.P,J1,15,Pin_15*%
%TO.N,/D7*%
X134620000Y-59690000D03*
%TO.P,J1,16,Pin_16*%
%TO.N,/~{RD}*%
X132080000Y-59690000D03*
%TO.P,J1,17,Pin_17*%
%TO.N,/~{WR}*%
X129540000Y-59690000D03*
%TO.P,J1,18,Pin_18*%
%TO.N,/~{IORQ}*%
X127000000Y-59690000D03*
%TO.P,J1,19,Pin_19*%
%TO.N,/~{MREQ}*%
X124460000Y-59690000D03*
%TO.P,J1,20,Pin_20*%
%TO.N,/A0*%
X121920000Y-59690000D03*
%TO.P,J1,21,Pin_21*%
%TO.N,/A1*%
X119380000Y-59690000D03*
%TO.P,J1,22,Pin_22*%
%TO.N,/A2*%
X116840000Y-59690000D03*
%TO.P,J1,23,Pin_23*%
%TO.N,/A3*%
X114300000Y-59690000D03*
%TO.P,J1,24,Pin_24*%
%TO.N,/A4*%
X111760000Y-59690000D03*
%TO.P,J1,25,Pin_25*%
%TO.N,/A5*%
X109220000Y-59690000D03*
%TO.P,J1,26,Pin_26*%
%TO.N,/A6*%
X106680000Y-59690000D03*
%TO.P,J1,27,Pin_27*%
%TO.N,/A7*%
X104140000Y-59690000D03*
%TO.P,J1,28,Pin_28*%
%TO.N,/~{RESET}*%
X101600000Y-59690000D03*
%TO.P,J1,29,Pin_29*%
%TO.N,/~{M1}*%
X99060000Y-59690000D03*
%TO.P,J1,30,Pin_30*%
%TO.N,/~{CLK}*%
X96520000Y-59690000D03*
%TO.P,J1,31,Pin_31*%
%TO.N,/~{RFSH}*%
X93980000Y-59690000D03*
%TO.P,J1,32,Pin_32*%
%TO.N,/~{INT}*%
X91440000Y-59690000D03*
%TO.P,J1,33,Pin_33*%
%TO.N,/~{WAIT}*%
X88900000Y-59690000D03*
%TO.P,J1,34,Pin_34*%
%TO.N,unconnected-(J1-Pad34)*%
X86360000Y-59690000D03*
%TO.P,J1,35,Pin_35*%
%TO.N,unconnected-(J1-Pad35)*%
X83820000Y-59690000D03*
%TO.P,J1,36,Pin_36*%
%TO.N,unconnected-(J1-Pad36)*%
X81280000Y-59690000D03*
%TO.P,J1,37,Pin_37*%
%TO.N,unconnected-(J1-Pad37)*%
X78740000Y-59690000D03*
%TD*%
D16*
%TO.N,GND*%
X160020000Y-99060000D03*
%TO.N,Net-(C2-Pad1)*%
X167640000Y-114300000D03*
%TO.N,Net-(C3-Pad1)*%
X167640000Y-83820000D03*
%TO.N,+5V*%
X81280000Y-101600000D03*
%TO.N,/D0*%
X151130000Y-90170000D03*
%TO.N,/D1*%
X149860000Y-92710000D03*
X142240000Y-91440000D03*
%TO.N,/D2*%
X147320000Y-93980000D03*
X135890000Y-95250000D03*
%TO.N,/D3*%
X125730000Y-95250000D03*
X144780000Y-95250000D03*
%TO.N,/D4*%
X143510000Y-92710000D03*
X123190000Y-92710000D03*
%TO.N,/D5*%
X125730000Y-90170000D03*
%TO.N,/D6*%
X129540000Y-88900000D03*
%TO.N,/D7*%
X134620000Y-64770000D03*
X138430000Y-85090000D03*
X140970000Y-64770000D03*
%TO.N,/~{RD}*%
X130810000Y-78740000D03*
%TO.N,/~{WR}*%
X129540000Y-76200000D03*
%TO.N,/~{IORQ}*%
X148590000Y-60960000D03*
%TO.N,/~{MREQ}*%
X120650000Y-115570000D03*
%TO.N,/A0*%
X130810000Y-87630000D03*
%TO.N,/A1*%
X129540000Y-85090000D03*
%TO.N,/A2*%
X105410000Y-102870000D03*
X105410000Y-81280000D03*
X110490000Y-82550000D03*
%TO.N,/A3*%
X106680000Y-78740000D03*
X125730000Y-78740000D03*
%TO.N,/A4*%
X105410000Y-76200000D03*
X125730000Y-76200000D03*
%TO.N,/A5*%
X104140000Y-73660000D03*
%TO.N,/A6*%
X102870000Y-71120000D03*
%TO.N,/~{RESET}*%
X107950000Y-105410000D03*
%TO.N,/~{M1}*%
X110490000Y-104140000D03*
%TO.N,/~{CLK}*%
X158750000Y-111760000D03*
X119385000Y-111765000D03*
X158750000Y-82550000D03*
X105410000Y-62230000D03*
X102870000Y-111760000D03*
%TO.N,/~{RFSH}*%
X115570000Y-106680000D03*
X137160000Y-106680000D03*
%TO.N,/~{WAIT}*%
X146050000Y-62230000D03*
%TO.N,/A11*%
X104140000Y-105410000D03*
X102870000Y-74930000D03*
%TO.N,/A12*%
X109220000Y-107950000D03*
%TO.N,/A13*%
X111760000Y-110490000D03*
%TO.N,/A14*%
X114300000Y-113030000D03*
%TO.N,/A9*%
X109220000Y-73660000D03*
%TO.N,/A10*%
X105410000Y-80010000D03*
%TO.N,/~{CE2}*%
X100330000Y-82550000D03*
X101600000Y-100330000D03*
X83820000Y-100330000D03*
%TO.N,/~{CE1}*%
X85090000Y-82550000D03*
%TO.N,/~{CE4}*%
X153670000Y-109220000D03*
%TO.N,/~{CE3}*%
X97790000Y-64770000D03*
X130810000Y-83820000D03*
X128270000Y-64770000D03*
%TD*%
D17*
%TO.N,Net-(C1-Pad1)*%
X167140000Y-100830000D02*
X165100000Y-100830000D01*
X167645000Y-116835000D02*
X168910000Y-115570000D01*
X168910000Y-102600000D02*
X168910000Y-115570000D01*
X167140000Y-100830000D02*
X168910000Y-102600000D01*
X165100000Y-116835000D02*
X167645000Y-116835000D01*
X165100000Y-125730000D02*
X168910000Y-125730000D01*
X168910000Y-118110000D02*
X167635000Y-116835000D01*
X168910000Y-125730000D02*
X168910000Y-118110000D01*
D18*
%TO.N,GND*%
X76700020Y-119880020D02*
X78740000Y-121920000D01*
X162565000Y-121915000D02*
X165100000Y-121915000D01*
X160100000Y-100830000D02*
X160100000Y-111680000D01*
X160100000Y-114220000D02*
X160100000Y-114380000D01*
X160100000Y-114380000D02*
X162565000Y-116845000D01*
X78740000Y-96520000D02*
X76700020Y-98559980D01*
X162560000Y-67230000D02*
X162560000Y-81280000D01*
X160025000Y-114295000D02*
X165100000Y-114295000D01*
X160100000Y-111680000D02*
X160100000Y-114220000D01*
X162560000Y-81280000D02*
X160020000Y-83820000D01*
X162560000Y-121920000D02*
X162560000Y-125730000D01*
X156210000Y-59690000D02*
X157480000Y-59690000D01*
X160100000Y-111680000D02*
X160175000Y-111755000D01*
X160020000Y-83820000D02*
X160020000Y-100750000D01*
X158830000Y-63500000D02*
X162560000Y-67230000D01*
X156290000Y-60960000D02*
X158830000Y-63500000D01*
X162565000Y-116845000D02*
X162565000Y-121915000D01*
X162560000Y-81280000D02*
X162560000Y-83820000D01*
X156210000Y-60960000D02*
X156290000Y-60960000D01*
X162565000Y-121915000D02*
X162560000Y-121920000D01*
X154940000Y-59690000D02*
X156210000Y-59690000D01*
X156210000Y-59690000D02*
X156210000Y-60960000D01*
X160020000Y-100750000D02*
X160100000Y-100830000D01*
X76700020Y-98559980D02*
X76700020Y-119880020D01*
X160175000Y-111755000D02*
X165100000Y-111755000D01*
X162560000Y-83820000D02*
X165100000Y-83820000D01*
X160100000Y-114220000D02*
X160025000Y-114295000D01*
D17*
%TO.N,Net-(C2-Pad1)*%
X167640000Y-105370000D02*
X167640000Y-114300000D01*
X166410000Y-104140000D02*
X167640000Y-105370000D01*
%TO.N,Net-(C2-Pad2)*%
X171450000Y-116840000D02*
X171455000Y-116835000D01*
X170180000Y-105370000D02*
X170180000Y-115570000D01*
X171410000Y-104140000D02*
X170180000Y-105370000D01*
X171455000Y-116835000D02*
X172720000Y-116835000D01*
X170180000Y-115570000D02*
X171450000Y-116840000D01*
%TO.N,Net-(C3-Pad1)*%
X166370000Y-73660000D02*
X167640000Y-74930000D01*
X165100000Y-73660000D02*
X166370000Y-73660000D01*
X167640000Y-74930000D02*
X167640000Y-83820000D01*
%TO.N,Net-(C3-Pad2)*%
X168910000Y-72390000D02*
X168910000Y-91440000D01*
X165100000Y-71120000D02*
X167640000Y-71120000D01*
X168910000Y-91440000D02*
X167640000Y-92710000D01*
X167640000Y-71120000D02*
X168910000Y-72390000D01*
X167640000Y-92710000D02*
X162020000Y-92710000D01*
D18*
%TO.N,+5V*%
X132085000Y-105415000D02*
X132085000Y-116845000D01*
X96520000Y-69850000D02*
X96520000Y-101600000D01*
D17*
X175260000Y-118110000D02*
X173990000Y-119380000D01*
D18*
X175260000Y-96520000D02*
X175260000Y-104140000D01*
X133350000Y-68580000D02*
X132080000Y-69850000D01*
X132080000Y-105410000D02*
X132085000Y-105415000D01*
D17*
X81280000Y-115570000D02*
X81280000Y-101600000D01*
X172720000Y-106675000D02*
X175260000Y-109215000D01*
D18*
X132085000Y-116845000D02*
X132085000Y-120645000D01*
D17*
X175260000Y-109215000D02*
X175260000Y-118110000D01*
X78740000Y-116840000D02*
X80010000Y-116840000D01*
D18*
X175260000Y-71120000D02*
X175260000Y-96520000D01*
D17*
X80010000Y-116840000D02*
X81280000Y-115570000D01*
X173990000Y-119380000D02*
X173985000Y-119375000D01*
X133350000Y-104140000D02*
X133350000Y-99060000D01*
D18*
X132080000Y-97790000D02*
X133350000Y-99060000D01*
X96520000Y-101600000D02*
X99060000Y-104140000D01*
D17*
X173985000Y-119375000D02*
X172720000Y-119375000D01*
D18*
X95250000Y-68580000D02*
X96520000Y-69850000D01*
X134620000Y-68580000D02*
X133350000Y-68580000D01*
X172180000Y-97020000D02*
X174760000Y-97020000D01*
X175255000Y-104140000D02*
X172720000Y-106675000D01*
X133350000Y-104140000D02*
X132080000Y-105410000D01*
X132085000Y-120645000D02*
X132080000Y-120650000D01*
X132080000Y-69850000D02*
X132080000Y-97790000D01*
X93980000Y-68580000D02*
X95250000Y-68580000D01*
X175260000Y-104140000D02*
X175255000Y-104140000D01*
X174760000Y-97020000D02*
X175260000Y-96520000D01*
X172720000Y-68580000D02*
X175260000Y-71120000D01*
D17*
%TO.N,/D0*%
X152400000Y-59690000D02*
X152400000Y-76200000D01*
X140970000Y-90170000D02*
X139700000Y-88900000D01*
X139705000Y-116845000D02*
X140970000Y-115580000D01*
X151130000Y-77470000D02*
X151130000Y-90170000D01*
X140970000Y-115580000D02*
X140970000Y-90170000D01*
X152400000Y-76200000D02*
X151130000Y-77470000D01*
%TO.N,/D1*%
X149860000Y-59690000D02*
X149860000Y-92710000D01*
X142245000Y-109225000D02*
X142240000Y-109220000D01*
X143510000Y-107950000D02*
X143510000Y-99060000D01*
X143510000Y-99060000D02*
X142240000Y-97790000D01*
X142245000Y-116845000D02*
X142245000Y-109225000D01*
X142240000Y-97790000D02*
X142240000Y-91440000D01*
X142240000Y-109220000D02*
X143510000Y-107950000D01*
%TO.N,/D2*%
X134625000Y-116845000D02*
X135890000Y-115580000D01*
X135890000Y-115580000D02*
X135890000Y-95250000D01*
X147320000Y-59690000D02*
X147320000Y-93980000D01*
%TO.N,/D3*%
X125730000Y-115580000D02*
X125730000Y-95250000D01*
X124465000Y-116845000D02*
X125730000Y-115580000D01*
X144780000Y-59690000D02*
X144780000Y-95250000D01*
%TO.N,/D4*%
X121925000Y-116845000D02*
X123190000Y-115580000D01*
X143510000Y-60960000D02*
X143510000Y-92710000D01*
X123190000Y-115580000D02*
X123190000Y-92710000D01*
X142240000Y-59690000D02*
X143510000Y-60960000D01*
%TO.N,/D5*%
X127000000Y-99060000D02*
X127000000Y-91440000D01*
X135890000Y-91440000D02*
X134620000Y-91440000D01*
X139700000Y-64770000D02*
X137160000Y-67310000D01*
X137160000Y-67310000D02*
X137160000Y-90170000D01*
X127005000Y-116845000D02*
X128270000Y-115580000D01*
X128270000Y-100330000D02*
X127000000Y-99060000D01*
X139700000Y-59690000D02*
X139700000Y-64770000D01*
X127000000Y-91440000D02*
X125730000Y-90170000D01*
X128270000Y-115580000D02*
X128270000Y-100330000D01*
X137160000Y-90170000D02*
X135890000Y-91440000D01*
%TO.N,/D6*%
X135890000Y-87630000D02*
X134620000Y-88900000D01*
X130810000Y-100330000D02*
X129540000Y-99060000D01*
X129540000Y-99060000D02*
X129540000Y-88900000D01*
X135890000Y-66040000D02*
X135890000Y-87630000D01*
X137160000Y-59690000D02*
X137160000Y-64770000D01*
X130810000Y-115580000D02*
X130810000Y-100330000D01*
X137160000Y-64770000D02*
X135890000Y-66040000D01*
X129545000Y-116845000D02*
X130810000Y-115580000D01*
%TO.N,/D7*%
X134620000Y-59690000D02*
X134620000Y-64770000D01*
X138430000Y-115580000D02*
X137165000Y-116845000D01*
X140970000Y-64770000D02*
X138430000Y-67310000D01*
X138430000Y-67310000D02*
X138430000Y-115580000D01*
%TO.N,/~{RD}*%
X156205000Y-101605000D02*
X157480000Y-100330000D01*
X132080000Y-59690000D02*
X132080000Y-67310000D01*
X157480000Y-100330000D02*
X157480000Y-80010000D01*
X157480000Y-80010000D02*
X156210000Y-78740000D01*
X156210000Y-78740000D02*
X154940000Y-78740000D01*
X154945000Y-101605000D02*
X156205000Y-101605000D01*
X130810000Y-78740000D02*
X130810000Y-68580000D01*
X132080000Y-67310000D02*
X130810000Y-68580000D01*
%TO.N,/~{WR}*%
X129540000Y-76200000D02*
X129540000Y-59690000D01*
X152400000Y-82870300D02*
X152405000Y-82875300D01*
X152405000Y-82875300D02*
X152405000Y-101605000D01*
X154940000Y-76200000D02*
X152400000Y-78740000D01*
X152400000Y-78740000D02*
X152400000Y-82870300D01*
%TO.N,/~{IORQ}*%
X148590000Y-110490000D02*
X154945000Y-116845000D01*
X148590000Y-60960000D02*
X148590000Y-110490000D01*
%TO.N,/~{MREQ}*%
X120650000Y-90170000D02*
X120650000Y-115570000D01*
X120650000Y-90170000D02*
X123190000Y-87630000D01*
X124460000Y-77470000D02*
X124460000Y-59690000D01*
X123190000Y-78740000D02*
X124460000Y-77470000D01*
X123190000Y-87630000D02*
X123190000Y-78740000D01*
%TO.N,/A0*%
X132085000Y-100335000D02*
X130810000Y-99060000D01*
X123190000Y-77470000D02*
X121920000Y-78740000D01*
X130810000Y-99060000D02*
X130810000Y-87630000D01*
X123190000Y-63500000D02*
X123190000Y-77470000D01*
X119380000Y-86360000D02*
X121920000Y-83820000D01*
X121920000Y-62230000D02*
X123190000Y-63500000D01*
X121920000Y-59690000D02*
X121920000Y-62230000D01*
X132085000Y-101605000D02*
X132085000Y-100335000D01*
X121920000Y-78740000D02*
X121920000Y-83820000D01*
%TO.N,/A1*%
X128270000Y-86360000D02*
X129540000Y-85090000D01*
X120650000Y-78740000D02*
X121920000Y-77470000D01*
X121920000Y-63500000D02*
X119380000Y-60960000D01*
X129545000Y-100335000D02*
X128270000Y-99060000D01*
X121920000Y-77470000D02*
X121920000Y-63500000D01*
X129545000Y-101605000D02*
X129545000Y-100335000D01*
X119380000Y-83820000D02*
X120650000Y-82550000D01*
X120650000Y-82550000D02*
X120650000Y-78740000D01*
X128270000Y-99060000D02*
X128270000Y-86360000D01*
X119380000Y-60960000D02*
X119380000Y-59690000D01*
%TO.N,/A2*%
X105410000Y-102870000D02*
X105410000Y-81280000D01*
X116840000Y-59690000D02*
X116840000Y-63500000D01*
X116840000Y-63500000D02*
X110490000Y-69850000D01*
X110490000Y-69850000D02*
X110490000Y-82550000D01*
%TO.N,/A3*%
X114300000Y-59690000D02*
X114300000Y-63500000D01*
X124460000Y-88900000D02*
X125730000Y-87630000D01*
X114300000Y-63500000D02*
X106680000Y-71120000D01*
X124465000Y-101605000D02*
X124465000Y-88905000D01*
X124465000Y-88905000D02*
X124460000Y-88900000D01*
X106680000Y-71120000D02*
X106680000Y-78740000D01*
X125730000Y-87630000D02*
X125730000Y-78740000D01*
%TO.N,/A4*%
X125730000Y-77470000D02*
X125730000Y-76200000D01*
X111760000Y-63500000D02*
X105410000Y-69850000D01*
X121920000Y-91440000D02*
X123190000Y-90170000D01*
X121925000Y-101605000D02*
X121925000Y-91445000D01*
X124460000Y-87630000D02*
X124460000Y-78740000D01*
X121925000Y-91445000D02*
X121920000Y-91440000D01*
X111760000Y-59690000D02*
X111760000Y-63500000D01*
X123190000Y-90170000D02*
X123190000Y-88900000D01*
X105410000Y-69850000D02*
X105410000Y-76200000D01*
X124460000Y-78740000D02*
X125730000Y-77470000D01*
X123190000Y-88900000D02*
X124460000Y-87630000D01*
%TO.N,/A5*%
X118110000Y-74930000D02*
X119380000Y-73660000D01*
X109220000Y-64770000D02*
X104140000Y-69850000D01*
X104140000Y-69850000D02*
X104140000Y-73660000D01*
X119385000Y-100335000D02*
X118110000Y-99060000D01*
X118110000Y-99060000D02*
X118110000Y-74930000D01*
X109220000Y-59690000D02*
X109220000Y-64770000D01*
X119385000Y-101605000D02*
X119385000Y-100335000D01*
%TO.N,/A6*%
X116845000Y-101605000D02*
X116845000Y-72395000D01*
X116845000Y-72395000D02*
X116840000Y-72390000D01*
X106680000Y-59690000D02*
X106680000Y-64770000D01*
X116840000Y-72390000D02*
X118110000Y-71120000D01*
X106680000Y-64770000D02*
X102870000Y-68580000D01*
X102870000Y-68580000D02*
X102870000Y-71120000D01*
X118110000Y-71120000D02*
X119380000Y-71120000D01*
%TO.N,/A7*%
X104145000Y-62795000D02*
X104140000Y-62790000D01*
X115570000Y-71120000D02*
X118110000Y-68580000D01*
X115570000Y-99060000D02*
X115570000Y-71120000D01*
X114305000Y-101605000D02*
X114305000Y-100325000D01*
X104140000Y-62790000D02*
X104140000Y-59690000D01*
X118110000Y-68580000D02*
X119380000Y-68580000D01*
X104145000Y-62795000D02*
X99060000Y-67880000D01*
X99060000Y-67880000D02*
X99060000Y-68580000D01*
X114305000Y-100325000D02*
X115570000Y-99060000D01*
%TO.N,/~{RESET}*%
X91440000Y-69529700D02*
X91440000Y-99060000D01*
X100330000Y-63500000D02*
X97469700Y-63500000D01*
X93980000Y-100330000D02*
X95250000Y-101600000D01*
X95250000Y-104140000D02*
X96520000Y-105410000D01*
X91440000Y-99060000D02*
X92710000Y-100330000D01*
X92710000Y-100330000D02*
X93980000Y-100330000D01*
X106680000Y-120650000D02*
X107950000Y-119380000D01*
X95250000Y-101600000D02*
X95250000Y-104140000D01*
X107950000Y-119380000D02*
X107950000Y-105410000D01*
X97790000Y-120650000D02*
X106680000Y-120650000D01*
X101600000Y-59690000D02*
X101600000Y-62230000D01*
X96520000Y-105410000D02*
X96520000Y-119380000D01*
X101600000Y-62230000D02*
X100330000Y-63500000D01*
X96520000Y-119380000D02*
X97790000Y-120650000D01*
X97469700Y-63500000D02*
X91440000Y-69529700D01*
%TO.N,/~{M1}*%
X90170000Y-99060000D02*
X92710000Y-101600000D01*
X93980000Y-101600000D02*
X93980000Y-105410000D01*
X95250000Y-106680000D02*
X95250000Y-121920000D01*
X99060000Y-60960000D02*
X90170000Y-69850000D01*
X95250000Y-121920000D02*
X96520000Y-123190000D01*
X99060000Y-59690000D02*
X99060000Y-60960000D01*
X110490000Y-121920000D02*
X110490000Y-104140000D01*
X96520000Y-123190000D02*
X109220000Y-123190000D01*
X90170000Y-69850000D02*
X90170000Y-99060000D01*
X93980000Y-105410000D02*
X95250000Y-106680000D01*
X92710000Y-101600000D02*
X93980000Y-101600000D01*
X109220000Y-123190000D02*
X110490000Y-121920000D01*
%TO.N,/~{CLK}*%
X119385000Y-116845000D02*
X119385000Y-111765000D01*
X158750000Y-82550000D02*
X158750000Y-111760000D01*
X101600000Y-67310000D02*
X101600000Y-81280000D01*
X119380000Y-119380000D02*
X120650000Y-120650000D01*
X119385000Y-119375000D02*
X119380000Y-119380000D01*
X119385000Y-116845000D02*
X119385000Y-119375000D01*
X105410000Y-62230000D02*
X105410000Y-63500000D01*
X105410000Y-63500000D02*
X101600000Y-67310000D01*
X101600000Y-81280000D02*
X102870000Y-82550000D01*
X102870000Y-82550000D02*
X102870000Y-111760000D01*
X120650000Y-120650000D02*
X121920000Y-120650000D01*
%TO.N,/~{RFSH}*%
X93980000Y-62790000D02*
X93985000Y-62795000D01*
X88900000Y-69850000D02*
X88900000Y-123190000D01*
X137165000Y-106675000D02*
X137165000Y-101605000D01*
X90170000Y-124460000D02*
X114300000Y-124460000D01*
X115570000Y-123190000D02*
X115570000Y-106680000D01*
X93985000Y-62795000D02*
X93985000Y-64765000D01*
X137160000Y-106680000D02*
X137165000Y-106675000D01*
X88900000Y-123190000D02*
X90170000Y-124460000D01*
X93980000Y-59690000D02*
X93980000Y-62790000D01*
X93985000Y-64765000D02*
X88900000Y-69850000D01*
X114300000Y-124460000D02*
X115570000Y-123190000D01*
%TO.N,/~{INT}*%
X144780000Y-124460000D02*
X144780000Y-116850000D01*
X86360000Y-125730000D02*
X143510000Y-125730000D01*
X82550000Y-73660000D02*
X82550000Y-121920000D01*
X82550000Y-121920000D02*
X86360000Y-125730000D01*
X91445000Y-62795000D02*
X91445000Y-64765000D01*
X91440000Y-62790000D02*
X91445000Y-62795000D01*
X91445000Y-64765000D02*
X82550000Y-73660000D01*
X143510000Y-125730000D02*
X144780000Y-124460000D01*
X144780000Y-116850000D02*
X144785000Y-116845000D01*
X91440000Y-59690000D02*
X91440000Y-62790000D01*
%TO.N,/~{WAIT}*%
X149860000Y-120650000D02*
X148590000Y-119380000D01*
X147325000Y-100335000D02*
X146050000Y-99060000D01*
X148590000Y-113030000D02*
X147320000Y-111760000D01*
X148590000Y-119380000D02*
X148590000Y-113030000D01*
X146050000Y-99060000D02*
X146050000Y-62230000D01*
X147320000Y-111760000D02*
X147325000Y-111755000D01*
X147325000Y-101605000D02*
X147325000Y-100335000D01*
X147325000Y-111755000D02*
X147325000Y-101605000D01*
%TO.N,Net-(R2-Pad2)*%
X165100000Y-68580000D02*
X168910000Y-68580000D01*
X170180000Y-91440000D02*
X171450000Y-92710000D01*
X168910000Y-68580000D02*
X170180000Y-69850000D01*
X170180000Y-69850000D02*
X170180000Y-91440000D01*
X171450000Y-92710000D02*
X172180000Y-92710000D01*
%TO.N,Net-(R3-Pad1)*%
X165870000Y-88130000D02*
X162020000Y-88130000D01*
X166370000Y-80010000D02*
X166370000Y-87630000D01*
X165100000Y-78740000D02*
X166370000Y-80010000D01*
X165100000Y-76200000D02*
X165100000Y-78740000D01*
X166370000Y-87630000D02*
X165870000Y-88130000D01*
%TO.N,Net-(R5-Pad2)*%
X147320000Y-124460000D02*
X146050000Y-123190000D01*
X144785000Y-110485000D02*
X144785000Y-101605000D01*
X144780000Y-110490000D02*
X144785000Y-110485000D01*
X146050000Y-111760000D02*
X144780000Y-110490000D01*
X146050000Y-123190000D02*
X146050000Y-111760000D01*
%TO.N,/~{NMI}*%
X147320000Y-116850000D02*
X147325000Y-116845000D01*
X147320000Y-120650000D02*
X147320000Y-116850000D01*
%TO.N,Net-(U2-Pad10)*%
X172720000Y-78740000D02*
X172720000Y-81280000D01*
%TO.N,Net-(U2-Pad11)*%
X172720000Y-73660000D02*
X172720000Y-76200000D01*
%TO.N,/A11*%
X102870000Y-80010000D02*
X102870000Y-74930000D01*
X104140000Y-81280000D02*
X102870000Y-80010000D01*
X104140000Y-105410000D02*
X106685000Y-107955000D01*
X104140000Y-105410000D02*
X104140000Y-81280000D01*
X106685000Y-107955000D02*
X106685000Y-116845000D01*
%TO.N,/A12*%
X109225000Y-107955000D02*
X109225000Y-116845000D01*
X109220000Y-107950000D02*
X109225000Y-107955000D01*
%TO.N,/A13*%
X111760000Y-110490000D02*
X111765000Y-110495000D01*
X111765000Y-110495000D02*
X111765000Y-116845000D01*
%TO.N,/A14*%
X114305000Y-113035000D02*
X114305000Y-116845000D01*
X114300000Y-113030000D02*
X114305000Y-113035000D01*
%TO.N,/A8*%
X111760000Y-73660000D02*
X114300000Y-71120000D01*
X111765000Y-73665000D02*
X111760000Y-73660000D01*
X111765000Y-101605000D02*
X111765000Y-73665000D01*
%TO.N,/A9*%
X109225000Y-101605000D02*
X109225000Y-73665000D01*
X109225000Y-73665000D02*
X109220000Y-73660000D01*
%TO.N,/A10*%
X106685000Y-101605000D02*
X106685000Y-81285000D01*
X106685000Y-81285000D02*
X105410000Y-80010000D01*
%TO.N,/~{CE2}*%
X85090000Y-109220000D02*
X83820000Y-107950000D01*
X101600000Y-83820000D02*
X100330000Y-82550000D01*
X101600000Y-100330000D02*
X101600000Y-83820000D01*
X83820000Y-107950000D02*
X83820000Y-100330000D01*
X86360000Y-109220000D02*
X85090000Y-109220000D01*
%TO.N,/~{CE1}*%
X85090000Y-82550000D02*
X85090000Y-105410000D01*
X85090000Y-105410000D02*
X86360000Y-106680000D01*
%TO.N,/~{CE4}*%
X153670000Y-85090000D02*
X153670000Y-109220000D01*
X154940000Y-83820000D02*
X153670000Y-85090000D01*
%TO.N,/~{CE3}*%
X99060000Y-106680000D02*
X100330000Y-105410000D01*
X130810000Y-83820000D02*
X128270000Y-81280000D01*
X100330000Y-105410000D02*
X100330000Y-100330000D01*
X100330000Y-100330000D02*
X97790000Y-97790000D01*
X128270000Y-81280000D02*
X128270000Y-64770000D01*
X97790000Y-97790000D02*
X97790000Y-64770000D01*
%TD*%
M02*
