M48
; DRILL file {KiCad 6.0.2+dfsg-1} date Tue 04 Jun 2024 09:24:46 AM CEST
; FORMAT={-:-/ absolute / inch / decimal}
; #@! TF.CreationDate,2024-06-04T09:24:46+02:00
; #@! TF.GenerationSoftware,Kicad,Pcbnew,6.0.2+dfsg-1
; #@! TF.FileFunction,Plated,1,2,PTH
FMAT,2
INCH
; #@! TA.AperFunction,Plated,PTH,ViaDrill
T1C0.0157
; #@! TA.AperFunction,Plated,PTH,ComponentDrill
T2C0.0315
; #@! TA.AperFunction,Plated,PTH,ComponentDrill
T3C0.0394
%
G90
G05
T1
X3.2Y-4.0
X3.3Y-3.95
X3.35Y-3.25
X3.85Y-2.55
X3.95Y-3.25
X4.0Y-3.95
X4.05Y-2.8
X4.05Y-2.95
X4.05Y-4.4
X4.1Y-2.9
X4.1Y-4.15
X4.15Y-2.45
X4.15Y-3.0
X4.15Y-3.15
X4.15Y-3.2
X4.15Y-4.05
X4.2Y-3.1
X4.25Y-4.15
X4.3Y-2.9
X4.3Y-4.25
X4.35Y-3.25
X4.35Y-4.1
X4.4Y-4.35
X4.5Y-4.45
X4.55Y-4.2
X4.7002Y-4.4002
X4.75Y-4.55
X4.85Y-3.65
X4.95Y-3.0
X4.95Y-3.1
X4.95Y-3.55
X4.95Y-3.75
X5.05Y-2.55
X5.1Y-3.0
X5.1Y-3.35
X5.1Y-3.5
X5.15Y-3.1
X5.15Y-3.3
X5.15Y-3.45
X5.3Y-2.55
X5.35Y-3.75
X5.4Y-4.2
X5.45Y-3.35
X5.55Y-2.55
X5.6Y-3.6
X5.65Y-3.65
X5.7Y-3.75
X5.75Y-2.45
X5.8Y-3.7
X5.85Y-2.4
X5.9Y-3.65
X5.95Y-3.55
X6.05Y-4.3
X6.25Y-3.25
X6.25Y-4.4
X6.3Y-3.9
X6.6Y-3.3
X6.6Y-4.5
T2
X3.1Y-2.7
X3.1Y-2.8
X3.1Y-2.9
X3.1Y-3.0
X3.1Y-3.1
X3.1Y-3.2
X3.1Y-3.3
X3.1Y-3.4
X3.1Y-3.5
X3.1Y-3.6
X3.1Y-3.7
X3.1Y-3.8
X3.1Y-4.1
X3.1Y-4.2
X3.1Y-4.3
X3.1Y-4.4
X3.1Y-4.5
X3.1Y-4.6
X3.1Y-4.7
X3.1Y-4.8
X3.4Y-4.1
X3.4Y-4.2
X3.4Y-4.3
X3.4Y-4.4
X3.4Y-4.5
X3.4Y-4.6
X3.4Y-4.7
X3.4Y-4.8
X3.6Y-4.1
X3.6Y-4.2
X3.6Y-4.3
X3.6Y-4.4
X3.6Y-4.5
X3.6Y-4.6
X3.6Y-4.7
X3.6Y-4.8
X3.7Y-2.7
X3.7Y-2.8
X3.7Y-2.9
X3.7Y-3.0
X3.7Y-3.1
X3.7Y-3.2
X3.7Y-3.3
X3.7Y-3.4
X3.7Y-3.5
X3.7Y-3.6
X3.7Y-3.7
X3.7Y-3.8
X3.9Y-2.7
X3.9Y-2.8
X3.9Y-2.9
X3.9Y-3.0
X3.9Y-3.1
X3.9Y-3.2
X3.9Y-3.3
X3.9Y-3.4
X3.9Y-3.5
X3.9Y-3.6
X3.9Y-3.7
X3.9Y-3.8
X3.9Y-4.1
X3.9Y-4.2
X3.9Y-4.3
X3.9Y-4.4
X3.9Y-4.5
X3.9Y-4.6
X3.9Y-4.7
X3.9Y-4.8
X4.2002Y-4.0002
X4.2002Y-4.6002
X4.3002Y-4.0002
X4.3002Y-4.6002
X4.4002Y-4.0002
X4.4002Y-4.6002
X4.5Y-2.7
X4.5Y-2.8
X4.5Y-2.9
X4.5Y-3.0
X4.5Y-3.1
X4.5Y-3.2
X4.5Y-3.3
X4.5Y-3.4
X4.5Y-3.5
X4.5Y-3.6
X4.5Y-3.7
X4.5Y-3.8
X4.5002Y-4.0002
X4.5002Y-4.6002
X4.6002Y-4.0002
X4.6002Y-4.6002
X4.7Y-2.7
X4.7Y-2.8
X4.7Y-2.9
X4.7Y-3.0
X4.7Y-3.1
X4.7Y-3.2
X4.7Y-3.3
X4.7Y-3.4
X4.7Y-3.5
X4.7Y-3.6
X4.7Y-3.7
X4.7Y-3.8
X4.7002Y-4.0002
X4.7002Y-4.6002
X4.8Y-4.75
X4.8002Y-4.0002
X4.8002Y-4.6002
X4.9002Y-4.0002
X4.9002Y-4.6002
X5.0002Y-4.0002
X5.0002Y-4.6002
X5.1002Y-4.0002
X5.1002Y-4.6002
X5.2Y-4.75
X5.2002Y-4.0002
X5.2002Y-4.6002
X5.3Y-2.7
X5.3Y-2.8
X5.3Y-2.9
X5.3Y-3.0
X5.3Y-3.1
X5.3Y-3.2
X5.3Y-3.3
X5.3Y-3.4
X5.3Y-3.5
X5.3Y-3.6
X5.3Y-3.7
X5.3Y-3.8
X5.3Y-4.9
X5.3002Y-4.0002
X5.3002Y-4.6002
X5.4Y-4.75
X5.4002Y-4.0002
X5.4002Y-4.6002
X5.5Y-2.7
X5.5Y-2.8
X5.5Y-2.9
X5.5Y-3.0
X5.5Y-3.1
X5.5Y-3.2
X5.5Y-3.3
X5.5Y-3.4
X5.5Y-3.5
X5.5Y-3.6
X5.5Y-3.7
X5.5Y-3.8
X5.5002Y-4.0002
X5.5002Y-4.6002
X5.6002Y-4.0002
X5.6002Y-4.6002
X5.7Y-4.9
X5.7002Y-4.0002
X5.7002Y-4.6002
X5.8Y-4.75
X5.8Y-4.9
X5.8002Y-4.0002
X5.8002Y-4.6002
X5.9Y-4.75
X5.9002Y-4.0002
X5.9002Y-4.6002
X6.0002Y-4.0002
X6.0002Y-4.6002
X6.1Y-2.7
X6.1Y-2.8
X6.1Y-2.9
X6.1Y-3.0
X6.1Y-3.1
X6.1Y-3.2
X6.1Y-3.3
X6.1Y-3.4
X6.1Y-3.5
X6.1Y-3.6
X6.1Y-3.7
X6.1Y-3.8
X6.1002Y-4.0002
X6.1002Y-4.6002
X6.2Y-4.9
X6.2531Y-2.5
X6.3Y-2.8016
X6.3Y-2.9984
X6.3Y-4.75
X6.3031Y-3.9697
X6.3787Y-3.45
X6.3787Y-3.65
X6.3787Y-3.85
X6.45Y-2.5
X6.5Y-2.7
X6.5Y-2.8
X6.5Y-2.9
X6.5Y-3.0
X6.5Y-3.1
X6.5Y-3.2
X6.5Y-3.3
X6.5Y-3.9697
X6.5Y-4.1998
X6.5Y-4.2998
X6.5Y-4.3998
X6.5Y-4.4998
X6.5Y-4.5998
X6.5Y-4.6998
X6.5Y-4.7998
X6.5516Y-4.1
X6.7484Y-4.1
X6.7787Y-3.45
X6.7787Y-3.5535
X6.7787Y-3.65
X6.7787Y-3.7465
X6.7787Y-3.85
X6.8Y-2.7
X6.8Y-2.8
X6.8Y-2.9
X6.8Y-3.0
X6.8Y-3.1
X6.8Y-3.2
X6.8Y-3.3
X6.8Y-4.1998
X6.8Y-4.2998
X6.8Y-4.3998
X6.8Y-4.4998
X6.8Y-4.5998
X6.8Y-4.6998
X6.8Y-4.7998
T3
X3.1Y-2.35
X3.2Y-2.35
X3.3Y-2.35
X3.4Y-2.35
X3.5Y-2.35
X3.6Y-2.35
X3.7Y-2.35
X3.8Y-2.35
X3.9Y-2.35
X4.0Y-2.35
X4.1Y-2.35
X4.2Y-2.35
X4.3Y-2.35
X4.4Y-2.35
X4.5Y-2.35
X4.6Y-2.35
X4.7Y-2.35
X4.8Y-2.35
X4.9Y-2.35
X5.0Y-2.35
X5.1Y-2.35
X5.2Y-2.35
X5.3Y-2.35
X5.4Y-2.35
X5.5Y-2.35
X5.6Y-2.35
X5.7Y-2.35
X5.8Y-2.35
X5.9Y-2.35
X6.0Y-2.35
X6.1Y-2.35
X6.2Y-2.35
X6.3Y-2.35
X6.4Y-2.35
X6.4Y-4.95
X6.5Y-2.35
X6.5Y-4.95
X6.6Y-2.35
X6.7Y-2.35
T0
M30
