%TF.GenerationSoftware,KiCad,Pcbnew,6.0.2+dfsg-1*%
%TF.CreationDate,2024-06-04T09:24:20+02:00*%
%TF.ProjectId,SBC2_Rebuild,53424332-5f52-4656-9275-696c642e6b69,rev?*%
%TF.SameCoordinates,Original*%
%TF.FileFunction,Legend,Top*%
%TF.FilePolarity,Positive*%
%FSLAX46Y46*%
G04 Gerber Fmt 4.6, Leading zero omitted, Abs format (unit mm)*
G04 Created by KiCad (PCBNEW 6.0.2+dfsg-1) date 2024-06-04 09:24:20*
%MOMM*%
%LPD*%
G01*
G04 APERTURE LIST*
%ADD10C,0.150000*%
%ADD11C,0.120000*%
G04 APERTURE END LIST*
D10*
%TO.C,C4*%
X161163333Y-67357142D02*
X161115714Y-67404761D01*
X160972857Y-67452380D01*
X160877619Y-67452380D01*
X160734761Y-67404761D01*
X160639523Y-67309523D01*
X160591904Y-67214285D01*
X160544285Y-67023809D01*
X160544285Y-66880952D01*
X160591904Y-66690476D01*
X160639523Y-66595238D01*
X160734761Y-66500000D01*
X160877619Y-66452380D01*
X160972857Y-66452380D01*
X161115714Y-66500000D01*
X161163333Y-66547619D01*
X162020476Y-66785714D02*
X162020476Y-67452380D01*
X161782380Y-66404761D02*
X161544285Y-67119047D01*
X162163333Y-67119047D01*
%TO.C,U1*%
X166338095Y-104297380D02*
X166338095Y-105106904D01*
X166385714Y-105202142D01*
X166433333Y-105249761D01*
X166528571Y-105297380D01*
X166719047Y-105297380D01*
X166814285Y-105249761D01*
X166861904Y-105202142D01*
X166909523Y-105106904D01*
X166909523Y-104297380D01*
X167909523Y-105297380D02*
X167338095Y-105297380D01*
X167623809Y-105297380D02*
X167623809Y-104297380D01*
X167528571Y-104440238D01*
X167433333Y-104535476D01*
X167338095Y-104583095D01*
%TO.C,U7*%
X105918095Y-65702380D02*
X105918095Y-66511904D01*
X105965714Y-66607142D01*
X106013333Y-66654761D01*
X106108571Y-66702380D01*
X106299047Y-66702380D01*
X106394285Y-66654761D01*
X106441904Y-66607142D01*
X106489523Y-66511904D01*
X106489523Y-65702380D01*
X106870476Y-65702380D02*
X107537142Y-65702380D01*
X107108571Y-66702380D01*
%TO.C,R5*%
X152233333Y-127282380D02*
X151900000Y-126806190D01*
X151661904Y-127282380D02*
X151661904Y-126282380D01*
X152042857Y-126282380D01*
X152138095Y-126330000D01*
X152185714Y-126377619D01*
X152233333Y-126472857D01*
X152233333Y-126615714D01*
X152185714Y-126710952D01*
X152138095Y-126758571D01*
X152042857Y-126806190D01*
X151661904Y-126806190D01*
X153138095Y-126282380D02*
X152661904Y-126282380D01*
X152614285Y-126758571D01*
X152661904Y-126710952D01*
X152757142Y-126663333D01*
X152995238Y-126663333D01*
X153090476Y-126710952D01*
X153138095Y-126758571D01*
X153185714Y-126853809D01*
X153185714Y-127091904D01*
X153138095Y-127187142D01*
X153090476Y-127234761D01*
X152995238Y-127282380D01*
X152757142Y-127282380D01*
X152661904Y-127234761D01*
X152614285Y-127187142D01*
%TO.C,R2*%
X166933333Y-90792380D02*
X166600000Y-90316190D01*
X166361904Y-90792380D02*
X166361904Y-89792380D01*
X166742857Y-89792380D01*
X166838095Y-89840000D01*
X166885714Y-89887619D01*
X166933333Y-89982857D01*
X166933333Y-90125714D01*
X166885714Y-90220952D01*
X166838095Y-90268571D01*
X166742857Y-90316190D01*
X166361904Y-90316190D01*
X167314285Y-89887619D02*
X167361904Y-89840000D01*
X167457142Y-89792380D01*
X167695238Y-89792380D01*
X167790476Y-89840000D01*
X167838095Y-89887619D01*
X167885714Y-89982857D01*
X167885714Y-90078095D01*
X167838095Y-90220952D01*
X167266666Y-90792380D01*
X167885714Y-90792380D01*
%TO.C,R7*%
X139533333Y-127282380D02*
X139200000Y-126806190D01*
X138961904Y-127282380D02*
X138961904Y-126282380D01*
X139342857Y-126282380D01*
X139438095Y-126330000D01*
X139485714Y-126377619D01*
X139533333Y-126472857D01*
X139533333Y-126615714D01*
X139485714Y-126710952D01*
X139438095Y-126758571D01*
X139342857Y-126806190D01*
X138961904Y-126806190D01*
X139866666Y-126282380D02*
X140533333Y-126282380D01*
X140104761Y-127282380D01*
%TO.C,R8*%
X126833333Y-118732380D02*
X126500000Y-118256190D01*
X126261904Y-118732380D02*
X126261904Y-117732380D01*
X126642857Y-117732380D01*
X126738095Y-117780000D01*
X126785714Y-117827619D01*
X126833333Y-117922857D01*
X126833333Y-118065714D01*
X126785714Y-118160952D01*
X126738095Y-118208571D01*
X126642857Y-118256190D01*
X126261904Y-118256190D01*
X127404761Y-118160952D02*
X127309523Y-118113333D01*
X127261904Y-118065714D01*
X127214285Y-117970476D01*
X127214285Y-117922857D01*
X127261904Y-117827619D01*
X127309523Y-117780000D01*
X127404761Y-117732380D01*
X127595238Y-117732380D01*
X127690476Y-117780000D01*
X127738095Y-117827619D01*
X127785714Y-117922857D01*
X127785714Y-117970476D01*
X127738095Y-118065714D01*
X127690476Y-118113333D01*
X127595238Y-118160952D01*
X127404761Y-118160952D01*
X127309523Y-118208571D01*
X127261904Y-118256190D01*
X127214285Y-118351428D01*
X127214285Y-118541904D01*
X127261904Y-118637142D01*
X127309523Y-118684761D01*
X127404761Y-118732380D01*
X127595238Y-118732380D01*
X127690476Y-118684761D01*
X127738095Y-118637142D01*
X127785714Y-118541904D01*
X127785714Y-118351428D01*
X127738095Y-118256190D01*
X127690476Y-118208571D01*
X127595238Y-118160952D01*
%TO.C,C1*%
X162433333Y-104687142D02*
X162385714Y-104734761D01*
X162242857Y-104782380D01*
X162147619Y-104782380D01*
X162004761Y-104734761D01*
X161909523Y-104639523D01*
X161861904Y-104544285D01*
X161814285Y-104353809D01*
X161814285Y-104210952D01*
X161861904Y-104020476D01*
X161909523Y-103925238D01*
X162004761Y-103830000D01*
X162147619Y-103782380D01*
X162242857Y-103782380D01*
X162385714Y-103830000D01*
X162433333Y-103877619D01*
X163385714Y-104782380D02*
X162814285Y-104782380D01*
X163100000Y-104782380D02*
X163100000Y-103782380D01*
X163004761Y-103925238D01*
X162909523Y-104020476D01*
X162814285Y-104068095D01*
%TO.C,U9*%
X146558095Y-65702380D02*
X146558095Y-66511904D01*
X146605714Y-66607142D01*
X146653333Y-66654761D01*
X146748571Y-66702380D01*
X146939047Y-66702380D01*
X147034285Y-66654761D01*
X147081904Y-66607142D01*
X147129523Y-66511904D01*
X147129523Y-65702380D01*
X147653333Y-66702380D02*
X147843809Y-66702380D01*
X147939047Y-66654761D01*
X147986666Y-66607142D01*
X148081904Y-66464285D01*
X148129523Y-66273809D01*
X148129523Y-65892857D01*
X148081904Y-65797619D01*
X148034285Y-65750000D01*
X147939047Y-65702380D01*
X147748571Y-65702380D01*
X147653333Y-65750000D01*
X147605714Y-65797619D01*
X147558095Y-65892857D01*
X147558095Y-66130952D01*
X147605714Y-66226190D01*
X147653333Y-66273809D01*
X147748571Y-66321428D01*
X147939047Y-66321428D01*
X148034285Y-66273809D01*
X148081904Y-66226190D01*
X148129523Y-66130952D01*
%TO.C,C3*%
X157877142Y-73826666D02*
X157924761Y-73874285D01*
X157972380Y-74017142D01*
X157972380Y-74112380D01*
X157924761Y-74255238D01*
X157829523Y-74350476D01*
X157734285Y-74398095D01*
X157543809Y-74445714D01*
X157400952Y-74445714D01*
X157210476Y-74398095D01*
X157115238Y-74350476D01*
X157020000Y-74255238D01*
X156972380Y-74112380D01*
X156972380Y-74017142D01*
X157020000Y-73874285D01*
X157067619Y-73826666D01*
X156972380Y-73493333D02*
X156972380Y-72874285D01*
X157353333Y-73207619D01*
X157353333Y-73064761D01*
X157400952Y-72969523D01*
X157448571Y-72921904D01*
X157543809Y-72874285D01*
X157781904Y-72874285D01*
X157877142Y-72921904D01*
X157924761Y-72969523D01*
X157972380Y-73064761D01*
X157972380Y-73350476D01*
X157924761Y-73445714D01*
X157877142Y-73493333D01*
%TO.C,U6*%
X85598095Y-65702380D02*
X85598095Y-66511904D01*
X85645714Y-66607142D01*
X85693333Y-66654761D01*
X85788571Y-66702380D01*
X85979047Y-66702380D01*
X86074285Y-66654761D01*
X86121904Y-66607142D01*
X86169523Y-66511904D01*
X86169523Y-65702380D01*
X87074285Y-65702380D02*
X86883809Y-65702380D01*
X86788571Y-65750000D01*
X86740952Y-65797619D01*
X86645714Y-65940476D01*
X86598095Y-66130952D01*
X86598095Y-66511904D01*
X86645714Y-66607142D01*
X86693333Y-66654761D01*
X86788571Y-66702380D01*
X86979047Y-66702380D01*
X87074285Y-66654761D01*
X87121904Y-66607142D01*
X87169523Y-66511904D01*
X87169523Y-66273809D01*
X87121904Y-66178571D01*
X87074285Y-66130952D01*
X86979047Y-66083333D01*
X86788571Y-66083333D01*
X86693333Y-66130952D01*
X86645714Y-66178571D01*
X86598095Y-66273809D01*
%TO.C,SW1*%
X160634761Y-127063333D02*
X160682380Y-126920476D01*
X160682380Y-126682380D01*
X160634761Y-126587142D01*
X160587142Y-126539523D01*
X160491904Y-126491904D01*
X160396666Y-126491904D01*
X160301428Y-126539523D01*
X160253809Y-126587142D01*
X160206190Y-126682380D01*
X160158571Y-126872857D01*
X160110952Y-126968095D01*
X160063333Y-127015714D01*
X159968095Y-127063333D01*
X159872857Y-127063333D01*
X159777619Y-127015714D01*
X159730000Y-126968095D01*
X159682380Y-126872857D01*
X159682380Y-126634761D01*
X159730000Y-126491904D01*
X159682380Y-126158571D02*
X160682380Y-125920476D01*
X159968095Y-125730000D01*
X160682380Y-125539523D01*
X159682380Y-125301428D01*
X160682380Y-124396666D02*
X160682380Y-124968095D01*
X160682380Y-124682380D02*
X159682380Y-124682380D01*
X159825238Y-124777619D01*
X159920476Y-124872857D01*
X159968095Y-124968095D01*
%TO.C,C2*%
X168743333Y-101997142D02*
X168695714Y-102044761D01*
X168552857Y-102092380D01*
X168457619Y-102092380D01*
X168314761Y-102044761D01*
X168219523Y-101949523D01*
X168171904Y-101854285D01*
X168124285Y-101663809D01*
X168124285Y-101520952D01*
X168171904Y-101330476D01*
X168219523Y-101235238D01*
X168314761Y-101140000D01*
X168457619Y-101092380D01*
X168552857Y-101092380D01*
X168695714Y-101140000D01*
X168743333Y-101187619D01*
X169124285Y-101187619D02*
X169171904Y-101140000D01*
X169267142Y-101092380D01*
X169505238Y-101092380D01*
X169600476Y-101140000D01*
X169648095Y-101187619D01*
X169695714Y-101282857D01*
X169695714Y-101378095D01*
X169648095Y-101520952D01*
X169076666Y-102092380D01*
X169695714Y-102092380D01*
%TO.C,U3*%
X103807380Y-109986904D02*
X104616904Y-109986904D01*
X104712142Y-109939285D01*
X104759761Y-109891666D01*
X104807380Y-109796428D01*
X104807380Y-109605952D01*
X104759761Y-109510714D01*
X104712142Y-109463095D01*
X104616904Y-109415476D01*
X103807380Y-109415476D01*
X103807380Y-109034523D02*
X103807380Y-108415476D01*
X104188333Y-108748809D01*
X104188333Y-108605952D01*
X104235952Y-108510714D01*
X104283571Y-108463095D01*
X104378809Y-108415476D01*
X104616904Y-108415476D01*
X104712142Y-108463095D01*
X104759761Y-108510714D01*
X104807380Y-108605952D01*
X104807380Y-108891666D01*
X104759761Y-108986904D01*
X104712142Y-109034523D01*
%TO.C,U8*%
X126238095Y-65702380D02*
X126238095Y-66511904D01*
X126285714Y-66607142D01*
X126333333Y-66654761D01*
X126428571Y-66702380D01*
X126619047Y-66702380D01*
X126714285Y-66654761D01*
X126761904Y-66607142D01*
X126809523Y-66511904D01*
X126809523Y-65702380D01*
X127428571Y-66130952D02*
X127333333Y-66083333D01*
X127285714Y-66035714D01*
X127238095Y-65940476D01*
X127238095Y-65892857D01*
X127285714Y-65797619D01*
X127333333Y-65750000D01*
X127428571Y-65702380D01*
X127619047Y-65702380D01*
X127714285Y-65750000D01*
X127761904Y-65797619D01*
X127809523Y-65892857D01*
X127809523Y-65940476D01*
X127761904Y-66035714D01*
X127714285Y-66083333D01*
X127619047Y-66130952D01*
X127428571Y-66130952D01*
X127333333Y-66178571D01*
X127285714Y-66226190D01*
X127238095Y-66321428D01*
X127238095Y-66511904D01*
X127285714Y-66607142D01*
X127333333Y-66654761D01*
X127428571Y-66702380D01*
X127619047Y-66702380D01*
X127714285Y-66654761D01*
X127761904Y-66607142D01*
X127809523Y-66511904D01*
X127809523Y-66321428D01*
X127761904Y-66226190D01*
X127714285Y-66178571D01*
X127619047Y-66130952D01*
%TO.C,R4*%
X154773333Y-123472380D02*
X154440000Y-122996190D01*
X154201904Y-123472380D02*
X154201904Y-122472380D01*
X154582857Y-122472380D01*
X154678095Y-122520000D01*
X154725714Y-122567619D01*
X154773333Y-122662857D01*
X154773333Y-122805714D01*
X154725714Y-122900952D01*
X154678095Y-122948571D01*
X154582857Y-122996190D01*
X154201904Y-122996190D01*
X155630476Y-122805714D02*
X155630476Y-123472380D01*
X155392380Y-122424761D02*
X155154285Y-123139047D01*
X155773333Y-123139047D01*
%TO.C,U2*%
X168148095Y-65702380D02*
X168148095Y-66511904D01*
X168195714Y-66607142D01*
X168243333Y-66654761D01*
X168338571Y-66702380D01*
X168529047Y-66702380D01*
X168624285Y-66654761D01*
X168671904Y-66607142D01*
X168719523Y-66511904D01*
X168719523Y-65702380D01*
X169148095Y-65797619D02*
X169195714Y-65750000D01*
X169290952Y-65702380D01*
X169529047Y-65702380D01*
X169624285Y-65750000D01*
X169671904Y-65797619D01*
X169719523Y-65892857D01*
X169719523Y-65988095D01*
X169671904Y-66130952D01*
X169100476Y-66702380D01*
X169719523Y-66702380D01*
%TO.C,Y1*%
X168631190Y-93186190D02*
X169107380Y-93186190D01*
X168107380Y-93519523D02*
X168631190Y-93186190D01*
X168107380Y-92852857D01*
X169107380Y-91995714D02*
X169107380Y-92567142D01*
X169107380Y-92281428D02*
X168107380Y-92281428D01*
X168250238Y-92376666D01*
X168345476Y-92471904D01*
X168393095Y-92567142D01*
%TO.C,U4*%
X81788095Y-101262380D02*
X81788095Y-102071904D01*
X81835714Y-102167142D01*
X81883333Y-102214761D01*
X81978571Y-102262380D01*
X82169047Y-102262380D01*
X82264285Y-102214761D01*
X82311904Y-102167142D01*
X82359523Y-102071904D01*
X82359523Y-101262380D01*
X83264285Y-101595714D02*
X83264285Y-102262380D01*
X83026190Y-101214761D02*
X82788095Y-101929047D01*
X83407142Y-101929047D01*
%TO.C,R1*%
X166933333Y-100612380D02*
X166600000Y-100136190D01*
X166361904Y-100612380D02*
X166361904Y-99612380D01*
X166742857Y-99612380D01*
X166838095Y-99660000D01*
X166885714Y-99707619D01*
X166933333Y-99802857D01*
X166933333Y-99945714D01*
X166885714Y-100040952D01*
X166838095Y-100088571D01*
X166742857Y-100136190D01*
X166361904Y-100136190D01*
X167885714Y-100612380D02*
X167314285Y-100612380D01*
X167600000Y-100612380D02*
X167600000Y-99612380D01*
X167504761Y-99755238D01*
X167409523Y-99850476D01*
X167314285Y-99898095D01*
%TO.C,R6*%
X142073333Y-118732380D02*
X141740000Y-118256190D01*
X141501904Y-118732380D02*
X141501904Y-117732380D01*
X141882857Y-117732380D01*
X141978095Y-117780000D01*
X142025714Y-117827619D01*
X142073333Y-117922857D01*
X142073333Y-118065714D01*
X142025714Y-118160952D01*
X141978095Y-118208571D01*
X141882857Y-118256190D01*
X141501904Y-118256190D01*
X142930476Y-117732380D02*
X142740000Y-117732380D01*
X142644761Y-117780000D01*
X142597142Y-117827619D01*
X142501904Y-117970476D01*
X142454285Y-118160952D01*
X142454285Y-118541904D01*
X142501904Y-118637142D01*
X142549523Y-118684761D01*
X142644761Y-118732380D01*
X142835238Y-118732380D01*
X142930476Y-118684761D01*
X142978095Y-118637142D01*
X143025714Y-118541904D01*
X143025714Y-118303809D01*
X142978095Y-118208571D01*
X142930476Y-118160952D01*
X142835238Y-118113333D01*
X142644761Y-118113333D01*
X142549523Y-118160952D01*
X142501904Y-118208571D01*
X142454285Y-118303809D01*
%TO.C,R3*%
X166933333Y-85712380D02*
X166600000Y-85236190D01*
X166361904Y-85712380D02*
X166361904Y-84712380D01*
X166742857Y-84712380D01*
X166838095Y-84760000D01*
X166885714Y-84807619D01*
X166933333Y-84902857D01*
X166933333Y-85045714D01*
X166885714Y-85140952D01*
X166838095Y-85188571D01*
X166742857Y-85236190D01*
X166361904Y-85236190D01*
X167266666Y-84712380D02*
X167885714Y-84712380D01*
X167552380Y-85093333D01*
X167695238Y-85093333D01*
X167790476Y-85140952D01*
X167838095Y-85188571D01*
X167885714Y-85283809D01*
X167885714Y-85521904D01*
X167838095Y-85617142D01*
X167790476Y-85664761D01*
X167695238Y-85712380D01*
X167409523Y-85712380D01*
X167314285Y-85664761D01*
X167266666Y-85617142D01*
%TO.C,U5*%
X94488095Y-101262380D02*
X94488095Y-102071904D01*
X94535714Y-102167142D01*
X94583333Y-102214761D01*
X94678571Y-102262380D01*
X94869047Y-102262380D01*
X94964285Y-102214761D01*
X95011904Y-102167142D01*
X95059523Y-102071904D01*
X95059523Y-101262380D01*
X96011904Y-101262380D02*
X95535714Y-101262380D01*
X95488095Y-101738571D01*
X95535714Y-101690952D01*
X95630952Y-101643333D01*
X95869047Y-101643333D01*
X95964285Y-101690952D01*
X96011904Y-101738571D01*
X96059523Y-101833809D01*
X96059523Y-102071904D01*
X96011904Y-102167142D01*
X95964285Y-102214761D01*
X95869047Y-102262380D01*
X95630952Y-102262380D01*
X95535714Y-102214761D01*
X95488095Y-102167142D01*
D11*
%TO.C,C4*%
X163867288Y-64835000D02*
X163417288Y-64835000D01*
X163642288Y-65060000D02*
X163642288Y-64610000D01*
X163449741Y-62440000D02*
G75*
G03*
X159210259Y-62440000I-2119741J-1060001D01*
G01*
X159210259Y-64560000D02*
G75*
G03*
X163449741Y-64560000I2119741J1060001D01*
G01*
%TO.C,U1*%
X174050000Y-123305000D02*
X174050000Y-105285000D01*
X167910000Y-105345000D02*
X166260000Y-105345000D01*
X163770000Y-123305000D02*
X174050000Y-123305000D01*
X174050000Y-105285000D02*
X163770000Y-105285000D01*
X171560000Y-123245000D02*
X171560000Y-105345000D01*
X166260000Y-105345000D02*
X166260000Y-123245000D01*
X163770000Y-105285000D02*
X163770000Y-123305000D01*
X166260000Y-123245000D02*
X171560000Y-123245000D01*
X171560000Y-105345000D02*
X169910000Y-105345000D01*
X167910000Y-105345000D02*
G75*
G03*
X169910000Y-105345000I1000000J0D01*
G01*
%TO.C,U7*%
X100220000Y-97850000D02*
X113140000Y-97850000D01*
X113140000Y-67250000D02*
X107680000Y-67250000D01*
X115630000Y-97910000D02*
X115630000Y-67190000D01*
X97730000Y-67190000D02*
X97730000Y-97910000D01*
X105680000Y-67250000D02*
X100220000Y-67250000D01*
X115630000Y-67190000D02*
X97730000Y-67190000D01*
X97730000Y-97910000D02*
X115630000Y-97910000D01*
X100220000Y-67250000D02*
X100220000Y-97850000D01*
X113140000Y-97850000D02*
X113140000Y-67250000D01*
X105680000Y-67250000D02*
G75*
G03*
X107680000Y-67250000I1000000J0D01*
G01*
%TO.C,R5*%
X156440000Y-124460000D02*
X155670000Y-124460000D01*
X149130000Y-123090000D02*
X149130000Y-125830000D01*
X155670000Y-125830000D02*
X155670000Y-123090000D01*
X149130000Y-125830000D02*
X155670000Y-125830000D01*
X155670000Y-123090000D02*
X149130000Y-123090000D01*
X148360000Y-124460000D02*
X149130000Y-124460000D01*
%TO.C,R2*%
X170370000Y-94080000D02*
X170370000Y-91340000D01*
X163830000Y-94080000D02*
X170370000Y-94080000D01*
X170370000Y-91340000D02*
X163830000Y-91340000D01*
X171140000Y-92710000D02*
X170370000Y-92710000D01*
X163060000Y-92710000D02*
X163830000Y-92710000D01*
X163830000Y-91340000D02*
X163830000Y-94080000D01*
%TO.C,R7*%
X142970000Y-125830000D02*
X142970000Y-123090000D01*
X142970000Y-123090000D02*
X136430000Y-123090000D01*
X136430000Y-125830000D02*
X142970000Y-125830000D01*
X136430000Y-123090000D02*
X136430000Y-125830000D01*
X143740000Y-124460000D02*
X142970000Y-124460000D01*
X135660000Y-124460000D02*
X136430000Y-124460000D01*
%TO.C,R8*%
X123730000Y-122020000D02*
X130270000Y-122020000D01*
X122960000Y-120650000D02*
X123730000Y-120650000D01*
X130270000Y-122020000D02*
X130270000Y-119280000D01*
X123730000Y-119280000D02*
X123730000Y-122020000D01*
X131040000Y-120650000D02*
X130270000Y-120650000D01*
X130270000Y-119280000D02*
X123730000Y-119280000D01*
%TO.C,C1*%
X164912288Y-102390000D02*
X164912288Y-101940000D01*
X165137288Y-102165000D02*
X164687288Y-102165000D01*
X160480259Y-101890000D02*
G75*
G03*
X164719741Y-101890000I2119741J1060001D01*
G01*
X164719741Y-99770000D02*
G75*
G03*
X160480259Y-99770000I-2119741J-1060001D01*
G01*
%TO.C,U9*%
X146320000Y-67250000D02*
X140860000Y-67250000D01*
X140860000Y-97850000D02*
X153780000Y-97850000D01*
X153780000Y-97850000D02*
X153780000Y-67250000D01*
X138370000Y-67190000D02*
X138370000Y-97910000D01*
X140860000Y-67250000D02*
X140860000Y-97850000D01*
X153780000Y-67250000D02*
X148320000Y-67250000D01*
X138370000Y-97910000D02*
X156270000Y-97910000D01*
X156270000Y-97910000D02*
X156270000Y-67190000D01*
X156270000Y-67190000D02*
X138370000Y-67190000D01*
X146320000Y-67250000D02*
G75*
G03*
X148320000Y-67250000I1000000J0D01*
G01*
%TO.C,C3*%
X161075000Y-71040000D02*
X161390000Y-71040000D01*
X158650000Y-76280000D02*
X158965000Y-76280000D01*
X158650000Y-71040000D02*
X158965000Y-71040000D01*
X161390000Y-76280000D02*
X161390000Y-71040000D01*
X158650000Y-76280000D02*
X158650000Y-71040000D01*
X161075000Y-76280000D02*
X161390000Y-76280000D01*
%TO.C,U6*%
X79900000Y-97850000D02*
X92820000Y-97850000D01*
X77410000Y-97910000D02*
X95310000Y-97910000D01*
X92820000Y-67250000D02*
X87360000Y-67250000D01*
X92820000Y-97850000D02*
X92820000Y-67250000D01*
X79900000Y-67250000D02*
X79900000Y-97850000D01*
X85360000Y-67250000D02*
X79900000Y-67250000D01*
X77410000Y-67190000D02*
X77410000Y-97910000D01*
X95310000Y-67190000D02*
X77410000Y-67190000D01*
X95310000Y-97910000D02*
X95310000Y-67190000D01*
X85360000Y-67250000D02*
G75*
G03*
X87360000Y-67250000I1000000J0D01*
G01*
%TO.C,SW1*%
X162560000Y-127060000D02*
X161230000Y-127060000D01*
X161230000Y-127060000D02*
X161230000Y-125730000D01*
X163830000Y-127060000D02*
X166430000Y-127060000D01*
X166430000Y-127060000D02*
X166430000Y-124400000D01*
X163830000Y-127060000D02*
X163830000Y-124400000D01*
X163830000Y-124400000D02*
X166430000Y-124400000D01*
%TO.C,C2*%
X166290000Y-105195000D02*
X166290000Y-105510000D01*
X171530000Y-102770000D02*
X171530000Y-103085000D01*
X166290000Y-102770000D02*
X171530000Y-102770000D01*
X166290000Y-102770000D02*
X166290000Y-103085000D01*
X166290000Y-105510000D02*
X171530000Y-105510000D01*
X171530000Y-105195000D02*
X171530000Y-105510000D01*
%TO.C,U3*%
X105355000Y-102765000D02*
X105355000Y-108225000D01*
X105355000Y-110225000D02*
X105355000Y-115685000D01*
X105295000Y-118175000D02*
X156335000Y-118175000D01*
X156335000Y-118175000D02*
X156335000Y-100275000D01*
X156275000Y-102765000D02*
X105355000Y-102765000D01*
X105295000Y-100275000D02*
X105295000Y-118175000D01*
X156275000Y-115685000D02*
X156275000Y-102765000D01*
X105355000Y-115685000D02*
X156275000Y-115685000D01*
X156335000Y-100275000D02*
X105295000Y-100275000D01*
X105355000Y-110225000D02*
G75*
G03*
X105355000Y-108225000I0J1000000D01*
G01*
%TO.C,U8*%
X135950000Y-97910000D02*
X135950000Y-67190000D01*
X133460000Y-97850000D02*
X133460000Y-67250000D01*
X118050000Y-97910000D02*
X135950000Y-97910000D01*
X126000000Y-67250000D02*
X120540000Y-67250000D01*
X120540000Y-67250000D02*
X120540000Y-97850000D01*
X118050000Y-67190000D02*
X118050000Y-97910000D01*
X133460000Y-67250000D02*
X128000000Y-67250000D01*
X120540000Y-97850000D02*
X133460000Y-97850000D01*
X135950000Y-67190000D02*
X118050000Y-67190000D01*
X126000000Y-67250000D02*
G75*
G03*
X128000000Y-67250000I1000000J0D01*
G01*
%TO.C,R4*%
X158210000Y-119280000D02*
X151670000Y-119280000D01*
X158980000Y-120650000D02*
X158210000Y-120650000D01*
X150900000Y-120650000D02*
X151670000Y-120650000D01*
X158210000Y-122020000D02*
X158210000Y-119280000D01*
X151670000Y-122020000D02*
X158210000Y-122020000D01*
X151670000Y-119280000D02*
X151670000Y-122020000D01*
%TO.C,U2*%
X166260000Y-85150000D02*
X171560000Y-85150000D01*
X174050000Y-85210000D02*
X174050000Y-67190000D01*
X163770000Y-67190000D02*
X163770000Y-85210000D01*
X171560000Y-85150000D02*
X171560000Y-67250000D01*
X163770000Y-85210000D02*
X174050000Y-85210000D01*
X166260000Y-67250000D02*
X166260000Y-85150000D01*
X167910000Y-67250000D02*
X166260000Y-67250000D01*
X174050000Y-67190000D02*
X163770000Y-67190000D01*
X171560000Y-67250000D02*
X169910000Y-67250000D01*
X167910000Y-67250000D02*
G75*
G03*
X169910000Y-67250000I1000000J0D01*
G01*
%TO.C,Y1*%
X174705000Y-95835000D02*
X174705000Y-89585000D01*
X169655000Y-95835000D02*
X169655000Y-89585000D01*
X174705000Y-89585000D02*
G75*
G03*
X169655000Y-89585000I-2525000J0D01*
G01*
X169655000Y-95835000D02*
G75*
G03*
X174705000Y-95835000I2525000J0D01*
G01*
%TO.C,U4*%
X85200000Y-123250000D02*
X85200000Y-102810000D01*
X79900000Y-123250000D02*
X85200000Y-123250000D01*
X87690000Y-123310000D02*
X87690000Y-102750000D01*
X81550000Y-102810000D02*
X79900000Y-102810000D01*
X77410000Y-123310000D02*
X87690000Y-123310000D01*
X77410000Y-102750000D02*
X77410000Y-123310000D01*
X85200000Y-102810000D02*
X83550000Y-102810000D01*
X79900000Y-102810000D02*
X79900000Y-123250000D01*
X87690000Y-102750000D02*
X77410000Y-102750000D01*
X81550000Y-102810000D02*
G75*
G03*
X83550000Y-102810000I1000000J0D01*
G01*
%TO.C,R1*%
X163060000Y-97790000D02*
X163830000Y-97790000D01*
X163830000Y-99160000D02*
X170370000Y-99160000D01*
X170370000Y-99160000D02*
X170370000Y-96420000D01*
X171140000Y-97790000D02*
X170370000Y-97790000D01*
X170370000Y-96420000D02*
X163830000Y-96420000D01*
X163830000Y-96420000D02*
X163830000Y-99160000D01*
%TO.C,R6*%
X145510000Y-122020000D02*
X145510000Y-119280000D01*
X138970000Y-122020000D02*
X145510000Y-122020000D01*
X146280000Y-120650000D02*
X145510000Y-120650000D01*
X138970000Y-119280000D02*
X138970000Y-122020000D01*
X138200000Y-120650000D02*
X138970000Y-120650000D01*
X145510000Y-119280000D02*
X138970000Y-119280000D01*
%TO.C,R3*%
X163830000Y-86260000D02*
X163830000Y-89000000D01*
X170370000Y-86260000D02*
X163830000Y-86260000D01*
X171140000Y-87630000D02*
X170370000Y-87630000D01*
X163060000Y-87630000D02*
X163830000Y-87630000D01*
X170370000Y-89000000D02*
X170370000Y-86260000D01*
X163830000Y-89000000D02*
X170370000Y-89000000D01*
%TO.C,U5*%
X97900000Y-123250000D02*
X97900000Y-102810000D01*
X90110000Y-123310000D02*
X100390000Y-123310000D01*
X94250000Y-102810000D02*
X92600000Y-102810000D01*
X100390000Y-123310000D02*
X100390000Y-102750000D01*
X90110000Y-102750000D02*
X90110000Y-123310000D01*
X100390000Y-102750000D02*
X90110000Y-102750000D01*
X97900000Y-102810000D02*
X96250000Y-102810000D01*
X92600000Y-123250000D02*
X97900000Y-123250000D01*
X92600000Y-102810000D02*
X92600000Y-123250000D01*
X94250000Y-102810000D02*
G75*
G03*
X96250000Y-102810000I1000000J0D01*
G01*
%TD*%
M02*
