%TF.GenerationSoftware,KiCad,Pcbnew,6.0.2+dfsg-1*%
%TF.CreationDate,2024-07-15T20:40:17+02:00*%
%TF.ProjectId,GDPico64,47445069-636f-4363-942e-6b696361645f,rev?*%
%TF.SameCoordinates,Original*%
%TF.FileFunction,Copper,L1,Top*%
%TF.FilePolarity,Positive*%
%FSLAX46Y46*%
G04 Gerber Fmt 4.6, Leading zero omitted, Abs format (unit mm)*
G04 Created by KiCad (PCBNEW 6.0.2+dfsg-1) date 2024-07-15 20:40:17*
%MOMM*%
%LPD*%
G01*
G04 APERTURE LIST*
%TA.AperFunction,ComponentPad*%
%ADD10C,1.600000*%
%TD*%
%TA.AperFunction,ComponentPad*%
%ADD11O,1.600000X1.600000*%
%TD*%
%TA.AperFunction,ComponentPad*%
%ADD12R,1.700000X1.700000*%
%TD*%
%TA.AperFunction,ComponentPad*%
%ADD13O,1.700000X1.700000*%
%TD*%
%TA.AperFunction,ComponentPad*%
%ADD14C,4.000000*%
%TD*%
%TA.AperFunction,ComponentPad*%
%ADD15R,1.600000X1.600000*%
%TD*%
%TA.AperFunction,ComponentPad*%
%ADD16C,2.100000*%
%TD*%
%TA.AperFunction,ComponentPad*%
%ADD17C,1.750000*%
%TD*%
%TA.AperFunction,ComponentPad*%
%ADD18R,1.650000X1.650000*%
%TD*%
%TA.AperFunction,ComponentPad*%
%ADD19C,1.650000*%
%TD*%
%TA.AperFunction,ComponentPad*%
%ADD20C,3.450000*%
%TD*%
%TA.AperFunction,SMDPad,CuDef*%
%ADD21R,3.500000X1.700000*%
%TD*%
%TA.AperFunction,SMDPad,CuDef*%
%ADD22R,1.700000X3.500000*%
%TD*%
%TA.AperFunction,ViaPad*%
%ADD23C,0.800000*%
%TD*%
%TA.AperFunction,Conductor*%
%ADD24C,0.250000*%
%TD*%
%TA.AperFunction,Conductor*%
%ADD25C,1.000000*%
%TD*%
%TA.AperFunction,Conductor*%
%ADD26C,0.200000*%
%TD*%
G04 APERTURE END LIST*
D10*
%TO.P,R5,1*%
%TO.N,/BLUE_D1*%
X93980000Y-51435000D03*
D11*
%TO.P,R5,2*%
%TO.N,/BLUE_V*%
X83820000Y-51435000D03*
%TD*%
D10*
%TO.P,R2,1*%
%TO.N,Net-(R2-Pad1)*%
X81280000Y-111125000D03*
D11*
%TO.P,R2,2*%
%TO.N,GND*%
X91440000Y-111125000D03*
%TD*%
D10*
%TO.P,R7,1*%
%TO.N,/GREEN_D0*%
X93980000Y-58420000D03*
D11*
%TO.P,R7,2*%
%TO.N,/GREEN_V*%
X83820000Y-58420000D03*
%TD*%
D10*
%TO.P,R3,1*%
%TO.N,Net-(R3-Pad1)*%
X81280000Y-107315000D03*
D11*
%TO.P,R3,2*%
%TO.N,+3V3*%
X91440000Y-107315000D03*
%TD*%
D12*
%TO.P,J1,1,Pin_1*%
%TO.N,unconnected-(J1-Pad1)*%
X62230000Y-128905000D03*
D13*
%TO.P,J1,2,Pin_2*%
%TO.N,unconnected-(J1-Pad2)*%
X62230000Y-126365000D03*
%TO.P,J1,3,Pin_3*%
%TO.N,unconnected-(J1-Pad3)*%
X62230000Y-123825000D03*
%TO.P,J1,4,Pin_4*%
%TO.N,unconnected-(J1-Pad4)*%
X62230000Y-121285000D03*
%TO.P,J1,5,Pin_5*%
%TO.N,/~{WAIT}*%
X62230000Y-118745000D03*
%TO.P,J1,6,Pin_6*%
%TO.N,/~{INT}*%
X62230000Y-116205000D03*
%TO.P,J1,7,Pin_7*%
%TO.N,/~{RFSH}*%
X62230000Y-113665000D03*
%TO.P,J1,8,Pin_8*%
%TO.N,/~{CLK}*%
X62230000Y-111125000D03*
%TO.P,J1,9,Pin_9*%
%TO.N,/~{M1}*%
X62230000Y-108585000D03*
%TO.P,J1,10,Pin_10*%
%TO.N,/~{RESET}*%
X62230000Y-106045000D03*
%TO.P,J1,11,Pin_11*%
%TO.N,/A7*%
X62230000Y-103505000D03*
%TO.P,J1,12,Pin_12*%
%TO.N,/A6*%
X62230000Y-100965000D03*
%TO.P,J1,13,Pin_13*%
%TO.N,/A5*%
X62230000Y-98425000D03*
%TO.P,J1,14,Pin_14*%
%TO.N,/A4*%
X62230000Y-95885000D03*
%TO.P,J1,15,Pin_15*%
%TO.N,/A3*%
X62230000Y-93345000D03*
%TO.P,J1,16,Pin_16*%
%TO.N,/A2*%
X62230000Y-90805000D03*
%TO.P,J1,17,Pin_17*%
%TO.N,/A1*%
X62230000Y-88265000D03*
%TO.P,J1,18,Pin_18*%
%TO.N,/A0*%
X62230000Y-85725000D03*
%TO.P,J1,19,Pin_19*%
%TO.N,/~{MREQ}*%
X62230000Y-83185000D03*
%TO.P,J1,20,Pin_20*%
%TO.N,/~{IORQ}*%
X62230000Y-80645000D03*
%TO.P,J1,21,Pin_21*%
%TO.N,/~{WR}*%
X62230000Y-78105000D03*
%TO.P,J1,22,Pin_22*%
%TO.N,/~{RD}*%
X62230000Y-75565000D03*
%TO.P,J1,23,Pin_23*%
%TO.N,/D7*%
X62230000Y-73025000D03*
%TO.P,J1,24,Pin_24*%
%TO.N,/D6*%
X62230000Y-70485000D03*
%TO.P,J1,25,Pin_25*%
%TO.N,/D5*%
X62230000Y-67945000D03*
%TO.P,J1,26,Pin_26*%
%TO.N,/D4*%
X62230000Y-65405000D03*
%TO.P,J1,27,Pin_27*%
%TO.N,/D3*%
X62230000Y-62865000D03*
%TO.P,J1,28,Pin_28*%
%TO.N,/D2*%
X62230000Y-60325000D03*
%TO.P,J1,29,Pin_29*%
%TO.N,/D1*%
X62230000Y-57785000D03*
%TO.P,J1,30,Pin_30*%
%TO.N,/D0*%
X62230000Y-55245000D03*
%TO.P,J1,31,Pin_31*%
%TO.N,GND*%
X62230000Y-52705000D03*
%TO.P,J1,32,Pin_32*%
X62230000Y-50165000D03*
%TO.P,J1,33,Pin_33*%
%TO.N,+5V*%
X62230000Y-47625000D03*
%TO.P,J1,34,Pin_34*%
X62230000Y-45085000D03*
%TO.P,J1,35,Pin_35*%
%TO.N,unconnected-(J1-Pad35)*%
X62230000Y-42545000D03*
%TO.P,J1,36,Pin_36*%
%TO.N,unconnected-(J1-Pad36)*%
X62230000Y-40005000D03*
%TO.P,J1,37,Pin_37*%
%TO.N,unconnected-(J1-Pad37)*%
X62230000Y-37465000D03*
%TD*%
D10*
%TO.P,R10,1*%
%TO.N,/RED_D0*%
X79375000Y-54610000D03*
D11*
%TO.P,R10,2*%
%TO.N,/RED_V*%
X69215000Y-54610000D03*
%TD*%
D14*
%TO.P,J2,0*%
%TO.N,unconnected-(J2-Pad0)*%
X93650000Y-45570000D03*
X68650000Y-45570000D03*
D15*
%TO.P,J2,1*%
%TO.N,/RED_V*%
X76835000Y-46990000D03*
D10*
%TO.P,J2,2*%
%TO.N,/GREEN_V*%
X79125000Y-46990000D03*
%TO.P,J2,3*%
%TO.N,/BLUE_V*%
X81415000Y-46990000D03*
%TO.P,J2,4*%
%TO.N,unconnected-(J2-Pad4)*%
X83705000Y-46990000D03*
%TO.P,J2,5*%
%TO.N,unconnected-(J2-Pad5)*%
X85995000Y-46990000D03*
%TO.P,J2,6*%
%TO.N,unconnected-(J2-Pad6)*%
X75690000Y-45010000D03*
%TO.P,J2,7*%
%TO.N,GND*%
X77980000Y-45010000D03*
%TO.P,J2,8*%
%TO.N,unconnected-(J2-Pad8)*%
X80270000Y-45010000D03*
%TO.P,J2,9*%
%TO.N,unconnected-(J2-Pad9)*%
X82560000Y-45010000D03*
%TO.P,J2,10*%
%TO.N,GND*%
X84850000Y-45010000D03*
%TO.P,J2,11*%
%TO.N,unconnected-(J2-Pad11)*%
X76835000Y-43030000D03*
%TO.P,J2,12*%
%TO.N,unconnected-(J2-Pad12)*%
X79125000Y-43030000D03*
%TO.P,J2,13*%
%TO.N,/CSYNC*%
X81415000Y-43030000D03*
%TO.P,J2,14*%
%TO.N,unconnected-(J2-Pad14)*%
X83705000Y-43030000D03*
%TO.P,J2,15*%
%TO.N,unconnected-(J2-Pad15)*%
X85995000Y-43030000D03*
%TD*%
D16*
%TO.P,SW1,*%
%TO.N,*%
X135940000Y-73070000D03*
X135940000Y-66060000D03*
D17*
%TO.P,SW1,1,1*%
%TO.N,GND*%
X138430000Y-67310000D03*
%TO.P,SW1,2,2*%
%TO.N,Net-(SW1-Pad2)*%
X138430000Y-71810000D03*
%TD*%
D10*
%TO.P,R11,1*%
%TO.N,/RED_D1*%
X79375000Y-57785000D03*
D11*
%TO.P,R11,2*%
%TO.N,/RED_V*%
X69215000Y-57785000D03*
%TD*%
D15*
%TO.P,U1,1,A->B*%
%TO.N,/~{RD3}*%
X69215000Y-71120000D03*
D11*
%TO.P,U1,2,A0*%
%TO.N,/D0*%
X69215000Y-73660000D03*
%TO.P,U1,3,A1*%
%TO.N,/D1*%
X69215000Y-76200000D03*
%TO.P,U1,4,A2*%
%TO.N,/D2*%
X69215000Y-78740000D03*
%TO.P,U1,5,A3*%
%TO.N,/D3*%
X69215000Y-81280000D03*
%TO.P,U1,6,A4*%
%TO.N,/D4*%
X69215000Y-83820000D03*
%TO.P,U1,7,A5*%
%TO.N,/D5*%
X69215000Y-86360000D03*
%TO.P,U1,8,A6*%
%TO.N,/D6*%
X69215000Y-88900000D03*
%TO.P,U1,9,A7*%
%TO.N,/D7*%
X69215000Y-91440000D03*
%TO.P,U1,10,GND*%
%TO.N,GND*%
X69215000Y-93980000D03*
%TO.P,U1,11,B7*%
%TO.N,/AD7_3*%
X76835000Y-93980000D03*
%TO.P,U1,12,B6*%
%TO.N,/AD6_3*%
X76835000Y-91440000D03*
%TO.P,U1,13,B5*%
%TO.N,/AD5_3*%
X76835000Y-88900000D03*
%TO.P,U1,14,B4*%
%TO.N,/AD4_3*%
X76835000Y-86360000D03*
%TO.P,U1,15,B3*%
%TO.N,/AD3_3*%
X76835000Y-83820000D03*
%TO.P,U1,16,B2*%
%TO.N,/AD2_3*%
X76835000Y-81280000D03*
%TO.P,U1,17,B1*%
%TO.N,/AD1_3*%
X76835000Y-78740000D03*
%TO.P,U1,18,B0*%
%TO.N,/AD0_3*%
X76835000Y-76200000D03*
%TO.P,U1,19,CE*%
%TO.N,/~{CE_D3}*%
X76835000Y-73660000D03*
%TO.P,U1,20,VCC*%
%TO.N,+3V3*%
X76835000Y-71120000D03*
%TD*%
D15*
%TO.P,U2,1,A->B*%
%TO.N,Net-(R3-Pad1)*%
X68580000Y-106045000D03*
D11*
%TO.P,U2,2,A0*%
%TO.N,/~{RD}*%
X68580000Y-108585000D03*
%TO.P,U2,3,A1*%
%TO.N,/~{WR}*%
X68580000Y-111125000D03*
%TO.P,U2,4,A2*%
%TO.N,/~{IORQ}*%
X68580000Y-113665000D03*
%TO.P,U2,5,A3*%
%TO.N,unconnected-(U2-Pad5)*%
X68580000Y-116205000D03*
%TO.P,U2,6,A4*%
%TO.N,unconnected-(U2-Pad6)*%
X68580000Y-118745000D03*
%TO.P,U2,7,A5*%
%TO.N,unconnected-(U2-Pad7)*%
X68580000Y-121285000D03*
%TO.P,U2,8,A6*%
%TO.N,unconnected-(U2-Pad8)*%
X68580000Y-123825000D03*
%TO.P,U2,9,A7*%
%TO.N,unconnected-(U2-Pad9)*%
X68580000Y-126365000D03*
%TO.P,U2,10,GND*%
%TO.N,GND*%
X68580000Y-128905000D03*
%TO.P,U2,11,B7*%
%TO.N,unconnected-(U2-Pad11)*%
X76200000Y-128905000D03*
%TO.P,U2,12,B6*%
%TO.N,unconnected-(U2-Pad12)*%
X76200000Y-126365000D03*
%TO.P,U2,13,B5*%
%TO.N,unconnected-(U2-Pad13)*%
X76200000Y-123825000D03*
%TO.P,U2,14,B4*%
%TO.N,unconnected-(U2-Pad14)*%
X76200000Y-121285000D03*
%TO.P,U2,15,B3*%
%TO.N,unconnected-(U2-Pad15)*%
X76200000Y-118745000D03*
%TO.P,U2,16,B2*%
%TO.N,/~{IORQ3}*%
X76200000Y-116205000D03*
%TO.P,U2,17,B1*%
%TO.N,/~{WR3}*%
X76200000Y-113665000D03*
%TO.P,U2,18,B0*%
%TO.N,/~{RD3}*%
X76200000Y-111125000D03*
%TO.P,U2,19,CE*%
%TO.N,Net-(R2-Pad1)*%
X76200000Y-108585000D03*
%TO.P,U2,20,VCC*%
%TO.N,+3V3*%
X76200000Y-106045000D03*
%TD*%
D10*
%TO.P,R1,1*%
%TO.N,Net-(R1-Pad1)*%
X100330000Y-98425000D03*
D11*
%TO.P,R1,2*%
%TO.N,+3V3*%
X100330000Y-88265000D03*
%TD*%
D10*
%TO.P,R6,1*%
%TO.N,/BLUE_D2*%
X93980000Y-54610000D03*
D11*
%TO.P,R6,2*%
%TO.N,/BLUE_V*%
X83820000Y-54610000D03*
%TD*%
D10*
%TO.P,R9,1*%
%TO.N,/GREEN_D2*%
X93980000Y-64770000D03*
D11*
%TO.P,R9,2*%
%TO.N,/GREEN_V*%
X83820000Y-64770000D03*
%TD*%
D10*
%TO.P,R4,1*%
%TO.N,/CSYNC*%
X69215000Y-64135000D03*
D11*
%TO.P,R4,2*%
%TO.N,Net-(U4-Pad14)*%
X79375000Y-64135000D03*
%TD*%
D10*
%TO.P,R8,1*%
%TO.N,/GREEN_D1*%
X93980000Y-61595000D03*
D11*
%TO.P,R8,2*%
%TO.N,/GREEN_V*%
X83820000Y-61595000D03*
%TD*%
D15*
%TO.P,U5,1*%
%TO.N,/RESET3*%
X107315000Y-106045000D03*
D11*
%TO.P,U5,2*%
%TO.N,/~{RESET}*%
X107315000Y-108585000D03*
%TO.P,U5,3*%
%TO.N,/WAIT_3*%
X107315000Y-111125000D03*
%TO.P,U5,4*%
%TO.N,/~{WAIT}*%
X107315000Y-113665000D03*
%TO.P,U5,5*%
%TO.N,unconnected-(U5-Pad5)*%
X107315000Y-116205000D03*
%TO.P,U5,6*%
%TO.N,unconnected-(U5-Pad6)*%
X107315000Y-118745000D03*
%TO.P,U5,7,GND*%
%TO.N,GND*%
X107315000Y-121285000D03*
%TO.P,U5,8*%
%TO.N,unconnected-(U5-Pad8)*%
X114935000Y-121285000D03*
%TO.P,U5,9*%
%TO.N,unconnected-(U5-Pad9)*%
X114935000Y-118745000D03*
%TO.P,U5,10*%
%TO.N,unconnected-(U5-Pad10)*%
X114935000Y-116205000D03*
%TO.P,U5,11*%
%TO.N,unconnected-(U5-Pad11)*%
X114935000Y-113665000D03*
%TO.P,U5,12*%
%TO.N,unconnected-(U5-Pad12)*%
X114935000Y-111125000D03*
%TO.P,U5,13*%
%TO.N,unconnected-(U5-Pad13)*%
X114935000Y-108585000D03*
%TO.P,U5,14,VCC*%
%TO.N,+5V*%
X114935000Y-106045000D03*
%TD*%
D18*
%TO.P,J3,1,1*%
%TO.N,/KEY_DATA*%
X130145000Y-43325000D03*
D19*
%TO.P,J3,2,2*%
%TO.N,unconnected-(J3-Pad2)*%
X132745000Y-43325000D03*
%TO.P,J3,3,3*%
%TO.N,GND*%
X128045000Y-43325000D03*
%TO.P,J3,5,5*%
%TO.N,+3V3*%
X134845000Y-43325000D03*
%TO.P,J3,6,6*%
%TO.N,/KEY_CLK*%
X128045000Y-45825000D03*
%TO.P,J3,8,8*%
%TO.N,unconnected-(J3-Pad8)*%
X134845000Y-45825000D03*
D20*
%TO.P,J3,MH1,MH1*%
%TO.N,unconnected-(J3-PadMH1)*%
X131445000Y-39525000D03*
%TO.P,J3,MH2,MH2*%
%TO.N,unconnected-(J3-PadMH2)*%
X138195000Y-40325000D03*
%TO.P,J3,MH3,MH3*%
%TO.N,unconnected-(J3-PadMH3)*%
X124695000Y-40325000D03*
%TD*%
D10*
%TO.P,R12,1*%
%TO.N,/RED_D2*%
X79375000Y-60960000D03*
D11*
%TO.P,R12,2*%
%TO.N,/RED_V*%
X69215000Y-60960000D03*
%TD*%
D15*
%TO.P,U3,1,A->B*%
%TO.N,Net-(R1-Pad1)*%
X84455000Y-71120000D03*
D11*
%TO.P,U3,2,A0*%
%TO.N,/A0*%
X84455000Y-73660000D03*
%TO.P,U3,3,A1*%
%TO.N,/A1*%
X84455000Y-76200000D03*
%TO.P,U3,4,A2*%
%TO.N,/A2*%
X84455000Y-78740000D03*
%TO.P,U3,5,A3*%
%TO.N,/A3*%
X84455000Y-81280000D03*
%TO.P,U3,6,A4*%
%TO.N,/A4*%
X84455000Y-83820000D03*
%TO.P,U3,7,A5*%
%TO.N,/A5*%
X84455000Y-86360000D03*
%TO.P,U3,8,A6*%
%TO.N,/A6*%
X84455000Y-88900000D03*
%TO.P,U3,9,A7*%
%TO.N,/A7*%
X84455000Y-91440000D03*
%TO.P,U3,10,GND*%
%TO.N,GND*%
X84455000Y-93980000D03*
%TO.P,U3,11,B7*%
%TO.N,/AD7_3*%
X92075000Y-93980000D03*
%TO.P,U3,12,B6*%
%TO.N,/AD6_3*%
X92075000Y-91440000D03*
%TO.P,U3,13,B5*%
%TO.N,/AD5_3*%
X92075000Y-88900000D03*
%TO.P,U3,14,B4*%
%TO.N,/AD4_3*%
X92075000Y-86360000D03*
%TO.P,U3,15,B3*%
%TO.N,/AD3_3*%
X92075000Y-83820000D03*
%TO.P,U3,16,B2*%
%TO.N,/AD2_3*%
X92075000Y-81280000D03*
%TO.P,U3,17,B1*%
%TO.N,/AD1_3*%
X92075000Y-78740000D03*
%TO.P,U3,18,B0*%
%TO.N,/AD0_3*%
X92075000Y-76200000D03*
%TO.P,U3,19,CE*%
%TO.N,/~{CE_A3}*%
X92075000Y-73660000D03*
%TO.P,U3,20,VCC*%
%TO.N,+3V3*%
X92075000Y-71120000D03*
%TD*%
D12*
%TO.P,J4,1,Pin_1*%
%TO.N,/KEY_DATA*%
X130880000Y-53355000D03*
D13*
%TO.P,J4,2,Pin_2*%
%TO.N,/KEY_CLK*%
X130880000Y-55895000D03*
%TO.P,J4,3,Pin_3*%
%TO.N,GND*%
X130880000Y-58435000D03*
%TD*%
D21*
%TO.P,U4,1,GPIO0*%
%TO.N,/KEY_DATA*%
X100065000Y-35560000D03*
D13*
X100965000Y-35560000D03*
%TO.P,U4,2,GPIO1*%
%TO.N,/KEY_CLK*%
X100965000Y-38100000D03*
D21*
X100065000Y-38100000D03*
D12*
%TO.P,U4,3,GND*%
%TO.N,GND*%
X100965000Y-40640000D03*
D21*
X100065000Y-40640000D03*
%TO.P,U4,4,GPIO2*%
%TO.N,/BLUE_D1*%
X100065000Y-43180000D03*
D13*
X100965000Y-43180000D03*
D21*
%TO.P,U4,5,GPIO3*%
%TO.N,/BLUE_D2*%
X100065000Y-45720000D03*
D13*
X100965000Y-45720000D03*
%TO.P,U4,6,GPIO4*%
%TO.N,/GREEN_D0*%
X100965000Y-48260000D03*
D21*
X100065000Y-48260000D03*
D13*
%TO.P,U4,7,GPIO5*%
%TO.N,/GREEN_D1*%
X100965000Y-50800000D03*
D21*
X100065000Y-50800000D03*
%TO.P,U4,8,GND*%
%TO.N,unconnected-(U4-Pad8)*%
X100065000Y-53340000D03*
D12*
X100965000Y-53340000D03*
D21*
%TO.P,U4,9,GPIO6*%
%TO.N,/GREEN_D2*%
X100065000Y-55880000D03*
D13*
X100965000Y-55880000D03*
D21*
%TO.P,U4,10,GPIO7*%
%TO.N,/RED_D0*%
X100065000Y-58420000D03*
D13*
X100965000Y-58420000D03*
D21*
%TO.P,U4,11,GPIO8*%
%TO.N,/RED_D1*%
X100065000Y-60960000D03*
D13*
X100965000Y-60960000D03*
D21*
%TO.P,U4,12,GPIO9*%
%TO.N,/RED_D2*%
X100065000Y-63500000D03*
D13*
X100965000Y-63500000D03*
D21*
%TO.P,U4,13,GND*%
%TO.N,unconnected-(U4-Pad13)*%
X100065000Y-66040000D03*
D12*
X100965000Y-66040000D03*
D13*
%TO.P,U4,14,GPIO10*%
%TO.N,Net-(U4-Pad14)*%
X100965000Y-68580000D03*
D21*
X100065000Y-68580000D03*
%TO.P,U4,15,GPIO11*%
%TO.N,/~{RD3}*%
X100065000Y-71120000D03*
D13*
X100965000Y-71120000D03*
D21*
%TO.P,U4,16,GPIO12*%
%TO.N,/AD0_3*%
X100065000Y-73660000D03*
D13*
X100965000Y-73660000D03*
%TO.P,U4,17,GPIO13*%
%TO.N,/AD1_3*%
X100965000Y-76200000D03*
D21*
X100065000Y-76200000D03*
%TO.P,U4,18,GND*%
%TO.N,unconnected-(U4-Pad18)*%
X100065000Y-78740000D03*
D12*
X100965000Y-78740000D03*
D13*
%TO.P,U4,19,GPIO14*%
%TO.N,/AD2_3*%
X100965000Y-81280000D03*
D21*
X100065000Y-81280000D03*
D13*
%TO.P,U4,20,GPIO15*%
%TO.N,/AD3_3*%
X100965000Y-83820000D03*
D21*
X100065000Y-83820000D03*
D13*
%TO.P,U4,21,GPIO16*%
%TO.N,/AD4_3*%
X118745000Y-83820000D03*
D21*
X119645000Y-83820000D03*
D13*
%TO.P,U4,22,GPIO17*%
%TO.N,/AD5_3*%
X118745000Y-81280000D03*
D21*
X119645000Y-81280000D03*
%TO.P,U4,23,GND*%
%TO.N,unconnected-(U4-Pad23)*%
X119645000Y-78740000D03*
D12*
X118745000Y-78740000D03*
D21*
%TO.P,U4,24,GPIO18*%
%TO.N,/AD6_3*%
X119645000Y-76200000D03*
D13*
X118745000Y-76200000D03*
D21*
%TO.P,U4,25,GPIO19*%
%TO.N,/AD7_3*%
X119645000Y-73660000D03*
D13*
X118745000Y-73660000D03*
%TO.P,U4,26,GPIO20*%
%TO.N,/~{CE_A3}*%
X118745000Y-71120000D03*
D21*
X119645000Y-71120000D03*
D13*
%TO.P,U4,27,GPIO21*%
%TO.N,/~{CE_D3}*%
X118745000Y-68580000D03*
D21*
X119645000Y-68580000D03*
%TO.P,U4,28,GND*%
%TO.N,unconnected-(U4-Pad28)*%
X119645000Y-66040000D03*
D12*
X118745000Y-66040000D03*
D21*
%TO.P,U4,29,GPIO22*%
%TO.N,/WAIT_3*%
X119645000Y-63500000D03*
D13*
X118745000Y-63500000D03*
%TO.P,U4,30,RUN*%
%TO.N,Net-(SW1-Pad2)*%
X118745000Y-60960000D03*
D21*
X119645000Y-60960000D03*
D13*
%TO.P,U4,31,GPIO26_ADC0*%
%TO.N,/~{WR3}*%
X118745000Y-58420000D03*
D21*
X119645000Y-58420000D03*
D13*
%TO.P,U4,32,GPIO27_ADC1*%
%TO.N,/~{IORQ3}*%
X118745000Y-55880000D03*
D21*
X119645000Y-55880000D03*
D12*
%TO.P,U4,33,AGND*%
%TO.N,unconnected-(U4-Pad33)*%
X118745000Y-53340000D03*
D21*
X119645000Y-53340000D03*
%TO.P,U4,34,GPIO28_ADC2*%
%TO.N,/RESET3*%
X119645000Y-50800000D03*
D13*
X118745000Y-50800000D03*
%TO.P,U4,35,ADC_VREF*%
%TO.N,unconnected-(U4-Pad35)*%
X118745000Y-48260000D03*
D21*
X119645000Y-48260000D03*
%TO.P,U4,36,3V3*%
%TO.N,+3V3*%
X119645000Y-45720000D03*
D13*
X118745000Y-45720000D03*
D21*
%TO.P,U4,37,3V3_EN*%
%TO.N,unconnected-(U4-Pad37)*%
X119645000Y-43180000D03*
D13*
X118745000Y-43180000D03*
D12*
%TO.P,U4,38,GND*%
%TO.N,GND*%
X118745000Y-40640000D03*
D21*
X119645000Y-40640000D03*
D13*
%TO.P,U4,39,VSYS*%
%TO.N,unconnected-(U4-Pad39)*%
X118745000Y-38100000D03*
D21*
X119645000Y-38100000D03*
%TO.P,U4,40,VBUS*%
%TO.N,+5V*%
X119645000Y-35560000D03*
D13*
X118745000Y-35560000D03*
D22*
%TO.P,U4,41,SWCLK*%
%TO.N,unconnected-(U4-Pad41)*%
X107315000Y-84490000D03*
D13*
X107315000Y-83590000D03*
D12*
%TO.P,U4,42,GND*%
%TO.N,unconnected-(U4-Pad42)*%
X109855000Y-83590000D03*
D22*
X109855000Y-84490000D03*
D13*
%TO.P,U4,43,SWDIO*%
%TO.N,unconnected-(U4-Pad43)*%
X112395000Y-83590000D03*
D22*
X112395000Y-84490000D03*
%TD*%
D23*
%TO.N,/~{RD}*%
X71120000Y-74930000D03*
%TO.N,/~{WR}*%
X72390000Y-77470000D03*
%TO.N,/~{IORQ}*%
X73660000Y-80010000D03*
%TO.N,/A0*%
X78740000Y-73660000D03*
X78740000Y-85090000D03*
%TO.N,/A1*%
X80010000Y-77470000D03*
X80010000Y-87630000D03*
%TO.N,/A2*%
X81280000Y-90170000D03*
X81280000Y-80010000D03*
%TO.N,/A3*%
X82550000Y-82550000D03*
X82550000Y-92710000D03*
%TO.N,/A4*%
X86360000Y-99695000D03*
X86360000Y-83820000D03*
%TO.N,/A5*%
X87630000Y-100965000D03*
X87630000Y-86360000D03*
%TO.N,/A6*%
X88900000Y-102235000D03*
X88900000Y-88900000D03*
%TO.N,/A7*%
X90170000Y-103505000D03*
X90170000Y-91440000D03*
%TO.N,+3V3*%
X95250000Y-88265000D03*
X123825000Y-88265000D03*
%TO.N,/~{WR3}*%
X99060000Y-113665000D03*
X104775000Y-58420000D03*
%TO.N,/~{RD3}*%
X74930000Y-71120000D03*
%TO.N,Net-(R1-Pad1)*%
X89535000Y-71120000D03*
X97155000Y-82550000D03*
X89535000Y-81280000D03*
%TO.N,GND*%
X91440000Y-130810000D03*
%TO.N,/AD7_3*%
X116205000Y-93980000D03*
%TO.N,/AD6_3*%
X116840000Y-91440000D03*
%TO.N,/AD5_3*%
X117564500Y-89535000D03*
%TO.N,/AD0_3*%
X102870000Y-77470000D03*
X102870000Y-73660000D03*
%TO.N,/~{IORQ3}*%
X106045000Y-55880000D03*
X100965000Y-116205000D03*
%TO.N,/WAIT_3*%
X111760000Y-63500000D03*
%TO.N,/RESET3*%
X109220000Y-50800000D03*
%TO.N,unconnected-(J3-PadMH1)*%
X129540000Y-39370000D03*
%TD*%
D24*
%TO.N,/D0*%
X66675000Y-55245000D02*
X67945000Y-56515000D01*
X67945000Y-56515000D02*
X67945000Y-73025000D01*
X62230000Y-55245000D02*
X66675000Y-55245000D01*
X67945000Y-73025000D02*
X68580000Y-73660000D01*
X68580000Y-73660000D02*
X69215000Y-73660000D01*
%TO.N,/D1*%
X67310000Y-58420000D02*
X67310000Y-75565000D01*
X67945000Y-76200000D02*
X69215000Y-76200000D01*
X66675000Y-57785000D02*
X67310000Y-58420000D01*
X62230000Y-57785000D02*
X66675000Y-57785000D01*
X67310000Y-75565000D02*
X67945000Y-76200000D01*
%TO.N,/D2*%
X67310000Y-78740000D02*
X69215000Y-78740000D01*
X66675000Y-78105000D02*
X67310000Y-78740000D01*
X66040000Y-60325000D02*
X66675000Y-60960000D01*
X66675000Y-60960000D02*
X66675000Y-78105000D01*
X62230000Y-60325000D02*
X66040000Y-60325000D01*
%TO.N,/D3*%
X65405000Y-62865000D02*
X66040000Y-63500000D01*
X66675000Y-81280000D02*
X69215000Y-81280000D01*
X62230000Y-62865000D02*
X65405000Y-62865000D01*
X66040000Y-63500000D02*
X66040000Y-80645000D01*
X66040000Y-80645000D02*
X66675000Y-81280000D01*
%TO.N,/D4*%
X65405000Y-83185000D02*
X66040000Y-83820000D01*
X64770000Y-65405000D02*
X65405000Y-66040000D01*
X65405000Y-66040000D02*
X65405000Y-83185000D01*
X66040000Y-83820000D02*
X69215000Y-83820000D01*
X62230000Y-65405000D02*
X64770000Y-65405000D01*
%TO.N,/D5*%
X65405000Y-86360000D02*
X69215000Y-86360000D01*
X62230000Y-67945000D02*
X64135000Y-67945000D01*
X64770000Y-68580000D02*
X64770000Y-85725000D01*
X64770000Y-85725000D02*
X65405000Y-86360000D01*
X64135000Y-67945000D02*
X64770000Y-68580000D01*
%TO.N,/D6*%
X64770000Y-88900000D02*
X69215000Y-88900000D01*
X62230000Y-70485000D02*
X63500000Y-70485000D01*
X63500000Y-70485000D02*
X64135000Y-71120000D01*
X64135000Y-88265000D02*
X64770000Y-88900000D01*
X64135000Y-71120000D02*
X64135000Y-88265000D01*
%TO.N,/D7*%
X64135000Y-91440000D02*
X69215000Y-91440000D01*
X62230000Y-73025000D02*
X62865000Y-73025000D01*
X62865000Y-73025000D02*
X63500000Y-73660000D01*
X63500000Y-90805000D02*
X64135000Y-91440000D01*
X63500000Y-73660000D02*
X63500000Y-90805000D01*
D25*
%TO.N,+5V*%
X116840000Y-35560000D02*
X114935000Y-37465000D01*
X114935000Y-37465000D02*
X114935000Y-106045000D01*
X118745000Y-35560000D02*
X116840000Y-35560000D01*
D24*
%TO.N,/~{RD}*%
X71120000Y-74930000D02*
X71120000Y-107315000D01*
X69850000Y-108585000D02*
X68580000Y-108585000D01*
X71120000Y-107315000D02*
X69850000Y-108585000D01*
%TO.N,/~{WR}*%
X71120000Y-111125000D02*
X68580000Y-111125000D01*
X72390000Y-77470000D02*
X72390000Y-109855000D01*
X72390000Y-109855000D02*
X71120000Y-111125000D01*
%TO.N,/~{IORQ}*%
X73660000Y-112395000D02*
X72390000Y-113665000D01*
X72390000Y-113665000D02*
X68580000Y-113665000D01*
X73660000Y-80010000D02*
X73660000Y-112395000D01*
%TO.N,/A0*%
X78740000Y-73660000D02*
X78740000Y-85090000D01*
%TO.N,/A1*%
X80010000Y-77470000D02*
X80010000Y-87630000D01*
%TO.N,/A2*%
X81280000Y-80010000D02*
X81280000Y-90170000D01*
%TO.N,/A3*%
X82550000Y-82550000D02*
X82550000Y-92710000D01*
%TO.N,/A4*%
X86360000Y-99695000D02*
X86360000Y-83820000D01*
%TO.N,/A5*%
X87630000Y-100965000D02*
X87630000Y-86360000D01*
%TO.N,/A6*%
X88900000Y-102235000D02*
X88900000Y-88900000D01*
%TO.N,/A7*%
X90170000Y-103505000D02*
X90170000Y-91440000D01*
%TO.N,/RED_V*%
X69215000Y-60960000D02*
X69215000Y-57785000D01*
X69215000Y-57785000D02*
X69215000Y-54610000D01*
D25*
%TO.N,+3V3*%
X94615000Y-107315000D02*
X91440000Y-107315000D01*
X123825000Y-46990000D02*
X123825000Y-88265000D01*
X95250000Y-88265000D02*
X95250000Y-71755000D01*
X95250000Y-71755000D02*
X94615000Y-71120000D01*
X95250000Y-88265000D02*
X95250000Y-106680000D01*
X94615000Y-71120000D02*
X92075000Y-71120000D01*
X118745000Y-45720000D02*
X122555000Y-45720000D01*
X90170000Y-69215000D02*
X78740000Y-69215000D01*
X95250000Y-106680000D02*
X94615000Y-107315000D01*
X78740000Y-69215000D02*
X76835000Y-71120000D01*
X122555000Y-45720000D02*
X123825000Y-46990000D01*
X92075000Y-71120000D02*
X90170000Y-69215000D01*
D24*
%TO.N,/~{WR3}*%
X104775000Y-98425000D02*
X99060000Y-104140000D01*
X104775000Y-58420000D02*
X104775000Y-98425000D01*
X99060000Y-104140000D02*
X99060000Y-113665000D01*
%TO.N,/~{RD3}*%
X74930000Y-71120000D02*
X74930000Y-109855000D01*
X74930000Y-109855000D02*
X76200000Y-111125000D01*
%TO.N,/CSYNC*%
X71120000Y-42545000D02*
X71755000Y-41910000D01*
X71759511Y-41905489D02*
X78735489Y-41905489D01*
X78735489Y-41905489D02*
X80290489Y-41905489D01*
X70485000Y-64135000D02*
X71120000Y-63500000D01*
X71755000Y-41910000D02*
X71759511Y-41905489D01*
X71120000Y-63500000D02*
X71120000Y-42545000D01*
X78735489Y-41905489D02*
X78740000Y-41910000D01*
X69215000Y-64135000D02*
X70485000Y-64135000D01*
X80290489Y-41905489D02*
X81415000Y-43030000D01*
%TO.N,/KEY_DATA*%
X130145000Y-52620000D02*
X130880000Y-53355000D01*
X130145000Y-43325000D02*
X130145000Y-52620000D01*
%TO.N,/KEY_CLK*%
X128920000Y-55895000D02*
X130880000Y-55895000D01*
X128045000Y-55020000D02*
X128920000Y-55895000D01*
X128045000Y-45825000D02*
X128045000Y-55020000D01*
%TO.N,Net-(R1-Pad1)*%
X89535000Y-71120000D02*
X89535000Y-81280000D01*
X97155000Y-82550000D02*
X97155000Y-97790000D01*
X97790000Y-98425000D02*
X100330000Y-98425000D01*
X97155000Y-97790000D02*
X97790000Y-98425000D01*
D25*
%TO.N,GND*%
X84455000Y-93980000D02*
X84455000Y-109855000D01*
X125875000Y-43325000D02*
X128045000Y-43325000D01*
X130880000Y-62300000D02*
X132080000Y-63500000D01*
X124266223Y-43325000D02*
X125875000Y-43325000D01*
X85725000Y-111125000D02*
X91440000Y-111125000D01*
X138430000Y-64770000D02*
X138430000Y-67310000D01*
X130880000Y-58435000D02*
X130880000Y-62300000D01*
X121920000Y-40978777D02*
X124266223Y-43325000D01*
X126380000Y-58435000D02*
X130880000Y-58435000D01*
X132080000Y-63500000D02*
X137160000Y-63500000D01*
X91440000Y-111125000D02*
X91440000Y-130810000D01*
X125875000Y-43325000D02*
X125875000Y-57930000D01*
X125875000Y-57930000D02*
X126380000Y-58435000D01*
X84455000Y-109855000D02*
X85725000Y-111125000D01*
X137160000Y-63500000D02*
X138430000Y-64770000D01*
X121920000Y-40640000D02*
X121920000Y-40978777D01*
X118745000Y-40640000D02*
X121920000Y-40640000D01*
D24*
%TO.N,/AD7_3*%
X116115489Y-93890489D02*
X116205000Y-93980000D01*
X116205000Y-74295000D02*
X116115489Y-74384511D01*
X118745000Y-73660000D02*
X116840000Y-73660000D01*
X116115489Y-74384511D02*
X116115489Y-93890489D01*
X116840000Y-73660000D02*
X116205000Y-74295000D01*
%TO.N,/AD6_3*%
X116840000Y-76835000D02*
X116840000Y-91440000D01*
X117475000Y-76200000D02*
X116840000Y-76835000D01*
X118745000Y-76200000D02*
X117475000Y-76200000D01*
%TO.N,/AD5_3*%
X117475000Y-89535000D02*
X117564500Y-89535000D01*
X118110000Y-81280000D02*
X117475000Y-81915000D01*
X117475000Y-81915000D02*
X117475000Y-89535000D01*
D26*
X118745000Y-81280000D02*
X118110000Y-81280000D01*
D24*
%TO.N,/AD0_3*%
X102870000Y-77470000D02*
X102870000Y-73660000D01*
%TO.N,/~{IORQ3}*%
X106045000Y-99060000D02*
X100965000Y-104140000D01*
X106045000Y-55880000D02*
X106045000Y-99060000D01*
X100965000Y-104140000D02*
X100965000Y-116205000D01*
%TO.N,/WAIT_3*%
X111125000Y-110490000D02*
X110490000Y-111125000D01*
X111125000Y-64135000D02*
X111760000Y-63500000D01*
X110490000Y-111125000D02*
X107315000Y-111125000D01*
X111125000Y-110490000D02*
X111125000Y-64135000D01*
%TO.N,/RESET3*%
X108585000Y-104775000D02*
X108585000Y-51435000D01*
X108585000Y-51435000D02*
X109220000Y-50800000D01*
X107315000Y-106045000D02*
X108585000Y-104775000D01*
%TD*%
M02*
