M48
; DRILL file {KiCad 6.0.2+dfsg-1} date Mon 15 Jul 2024 08:42:10 PM CEST
; FORMAT={-:-/ absolute / inch / decimal}
; #@! TF.CreationDate,2024-07-15T20:42:10+02:00
; #@! TF.GenerationSoftware,Kicad,Pcbnew,6.0.2+dfsg-1
; #@! TF.FileFunction,Plated,1,2,PTH
FMAT,2
INCH
; #@! TA.AperFunction,Plated,PTH,ViaDrill
T1C0.0157
; #@! TA.AperFunction,Plated,PTH,ComponentDrill
T2C0.0315
; #@! TA.AperFunction,Plated,PTH,ComponentDrill
T3C0.0390
; #@! TA.AperFunction,Plated,PTH,ComponentDrill
T4C0.0394
; #@! TA.AperFunction,Plated,PTH,ComponentDrill
T5C0.0402
; #@! TA.AperFunction,Plated,PTH,ComponentDrill
T6C0.0433
; #@! TA.AperFunction,Plated,PTH,ComponentDrill
T7C0.0512
; #@! TA.AperFunction,Plated,PTH,ComponentDrill
T8C0.0906
; #@! TA.AperFunction,Plated,PTH,ComponentDrill
T9C0.1260
%
G90
G05
T1
X2.8Y-2.95
X2.85Y-3.05
X2.9Y-3.15
X2.95Y-2.8
X3.1Y-2.9
X3.1Y-3.35
X3.15Y-3.05
X3.15Y-3.45
X3.2Y-3.15
X3.2Y-3.55
X3.25Y-3.25
X3.25Y-3.65
X3.4Y-3.3
X3.4Y-3.925
X3.45Y-3.4
X3.45Y-3.975
X3.5Y-3.5
X3.5Y-4.025
X3.525Y-2.8
X3.525Y-3.2
X3.55Y-3.6
X3.55Y-4.075
X3.6Y-5.15
X3.75Y-3.475
X3.825Y-3.25
X3.9Y-4.475
X3.975Y-4.575
X4.05Y-2.9
X4.05Y-3.05
X4.125Y-2.3
X4.175Y-2.2
X4.3Y-2.0
X4.4Y-2.5
X4.575Y-3.7
X4.6Y-3.6
X4.6285Y-3.525
X4.875Y-3.475
X5.1Y-1.55
T2
X2.7Y-4.175
X2.7Y-4.275
X2.7Y-4.375
X2.7Y-4.475
X2.7Y-4.575
X2.7Y-4.675
X2.7Y-4.775
X2.7Y-4.875
X2.7Y-4.975
X2.7Y-5.075
X2.725Y-2.15
X2.725Y-2.275
X2.725Y-2.4
X2.725Y-2.525
X2.725Y-2.8
X2.725Y-2.9
X2.725Y-3.0
X2.725Y-3.1
X2.725Y-3.2
X2.725Y-3.3
X2.725Y-3.4
X2.725Y-3.5
X2.725Y-3.6
X2.725Y-3.7
X3.0Y-4.175
X3.0Y-4.275
X3.0Y-4.375
X3.0Y-4.475
X3.0Y-4.575
X3.0Y-4.675
X3.0Y-4.775
X3.0Y-4.875
X3.0Y-4.975
X3.0Y-5.075
X3.025Y-2.8
X3.025Y-2.9
X3.025Y-3.0
X3.025Y-3.1
X3.025Y-3.2
X3.025Y-3.3
X3.025Y-3.4
X3.025Y-3.5
X3.025Y-3.6
X3.025Y-3.7
X3.125Y-2.15
X3.125Y-2.275
X3.125Y-2.4
X3.125Y-2.525
X3.2Y-4.225
X3.2Y-4.375
X3.3Y-2.025
X3.3Y-2.15
X3.3Y-2.3
X3.3Y-2.425
X3.3Y-2.55
X3.325Y-2.8
X3.325Y-2.9
X3.325Y-3.0
X3.325Y-3.1
X3.325Y-3.2
X3.325Y-3.3
X3.325Y-3.4
X3.325Y-3.5
X3.325Y-3.6
X3.325Y-3.7
X3.6Y-4.225
X3.6Y-4.375
X3.625Y-2.8
X3.625Y-2.9
X3.625Y-3.0
X3.625Y-3.1
X3.625Y-3.2
X3.625Y-3.3
X3.625Y-3.4
X3.625Y-3.5
X3.625Y-3.6
X3.625Y-3.7
X3.7Y-2.025
X3.7Y-2.15
X3.7Y-2.3
X3.7Y-2.425
X3.7Y-2.55
X3.95Y-3.475
X3.95Y-3.875
X4.225Y-4.175
X4.225Y-4.275
X4.225Y-4.375
X4.225Y-4.475
X4.225Y-4.575
X4.225Y-4.675
X4.225Y-4.775
X4.525Y-4.175
X4.525Y-4.275
X4.525Y-4.375
X4.525Y-4.475
X4.525Y-4.575
X4.525Y-4.675
X4.525Y-4.775
T3
X5.45Y-2.65
X5.45Y-2.8272
T4
X2.45Y-1.475
X2.45Y-1.575
X2.45Y-1.675
X2.45Y-1.775
X2.45Y-1.875
X2.45Y-1.975
X2.45Y-2.075
X2.45Y-2.175
X2.45Y-2.275
X2.45Y-2.375
X2.45Y-2.475
X2.45Y-2.575
X2.45Y-2.675
X2.45Y-2.775
X2.45Y-2.875
X2.45Y-2.975
X2.45Y-3.075
X2.45Y-3.175
X2.45Y-3.275
X2.45Y-3.375
X2.45Y-3.475
X2.45Y-3.575
X2.45Y-3.675
X2.45Y-3.775
X2.45Y-3.875
X2.45Y-3.975
X2.45Y-4.075
X2.45Y-4.175
X2.45Y-4.275
X2.45Y-4.375
X2.45Y-4.475
X2.45Y-4.575
X2.45Y-4.675
X2.45Y-4.775
X2.45Y-4.875
X2.45Y-4.975
X2.45Y-5.075
X2.9799Y-1.772
X3.025Y-1.6941
X3.025Y-1.85
X3.0701Y-1.772
X3.1152Y-1.6941
X3.1152Y-1.85
X3.1602Y-1.772
X3.2053Y-1.6941
X3.2053Y-1.85
X3.2504Y-1.772
X3.2955Y-1.6941
X3.2955Y-1.85
X3.3406Y-1.772
X3.3856Y-1.6941
X3.3856Y-1.85
X5.1528Y-2.1006
X5.1528Y-2.2006
X5.1528Y-2.3006
T5
X3.975Y-1.4
X3.975Y-1.5
X3.975Y-1.6
X3.975Y-1.7
X3.975Y-1.8
X3.975Y-1.9
X3.975Y-2.0
X3.975Y-2.1
X3.975Y-2.2
X3.975Y-2.3
X3.975Y-2.4
X3.975Y-2.5
X3.975Y-2.6
X3.975Y-2.7
X3.975Y-2.8
X3.975Y-2.9
X3.975Y-3.0
X3.975Y-3.1
X3.975Y-3.2
X3.975Y-3.3
X4.225Y-3.2909
X4.325Y-3.2909
X4.425Y-3.2909
X4.675Y-1.4
X4.675Y-1.5
X4.675Y-1.6
X4.675Y-1.7
X4.675Y-1.8
X4.675Y-1.9
X4.675Y-2.0
X4.675Y-2.1
X4.675Y-2.2
X4.675Y-2.3
X4.675Y-2.4
X4.675Y-2.5
X4.675Y-2.6
X4.675Y-2.7
X4.675Y-2.8
X4.675Y-2.9
X4.675Y-3.0
X4.675Y-3.1
X4.675Y-3.2
X4.675Y-3.3
T6
X5.0411Y-1.7057
X5.0411Y-1.8041
X5.1238Y-1.7057
X5.2262Y-1.7057
X5.3089Y-1.7057
X5.3089Y-1.8041
T7
X5.352Y-2.6008
X5.352Y-2.8768
T8
X4.9093Y-1.5876
X5.175Y-1.5561
X5.4407Y-1.5876
T9
X2.7028Y-1.7941
X3.687Y-1.7941
T0
M30
