%TF.GenerationSoftware,KiCad,Pcbnew,6.0.2+dfsg-1*%
%TF.CreationDate,2024-07-15T20:40:19+02:00*%
%TF.ProjectId,GDPico64,47445069-636f-4363-942e-6b696361645f,rev?*%
%TF.SameCoordinates,Original*%
%TF.FileFunction,Soldermask,Bot*%
%TF.FilePolarity,Negative*%
%FSLAX46Y46*%
G04 Gerber Fmt 4.6, Leading zero omitted, Abs format (unit mm)*
G04 Created by KiCad (PCBNEW 6.0.2+dfsg-1) date 2024-07-15 20:40:19*
%MOMM*%
%LPD*%
G01*
G04 APERTURE LIST*
%ADD10C,1.600000*%
%ADD11O,1.600000X1.600000*%
%ADD12R,1.700000X1.700000*%
%ADD13O,1.700000X1.700000*%
%ADD14C,4.000000*%
%ADD15R,1.600000X1.600000*%
%ADD16C,2.100000*%
%ADD17C,1.750000*%
%ADD18R,1.650000X1.650000*%
%ADD19C,1.650000*%
%ADD20C,3.450000*%
%ADD21O,1.500000X1.500000*%
%ADD22O,1.800000X1.800000*%
G04 APERTURE END LIST*
D10*
%TO.C,R5*%
X93980000Y-51435000D03*
D11*
X83820000Y-51435000D03*
%TD*%
D10*
%TO.C,R2*%
X81280000Y-111125000D03*
D11*
X91440000Y-111125000D03*
%TD*%
D10*
%TO.C,R7*%
X93980000Y-58420000D03*
D11*
X83820000Y-58420000D03*
%TD*%
D10*
%TO.C,R3*%
X81280000Y-107315000D03*
D11*
X91440000Y-107315000D03*
%TD*%
D12*
%TO.C,J1*%
X62230000Y-128905000D03*
D13*
X62230000Y-126365000D03*
X62230000Y-123825000D03*
X62230000Y-121285000D03*
X62230000Y-118745000D03*
X62230000Y-116205000D03*
X62230000Y-113665000D03*
X62230000Y-111125000D03*
X62230000Y-108585000D03*
X62230000Y-106045000D03*
X62230000Y-103505000D03*
X62230000Y-100965000D03*
X62230000Y-98425000D03*
X62230000Y-95885000D03*
X62230000Y-93345000D03*
X62230000Y-90805000D03*
X62230000Y-88265000D03*
X62230000Y-85725000D03*
X62230000Y-83185000D03*
X62230000Y-80645000D03*
X62230000Y-78105000D03*
X62230000Y-75565000D03*
X62230000Y-73025000D03*
X62230000Y-70485000D03*
X62230000Y-67945000D03*
X62230000Y-65405000D03*
X62230000Y-62865000D03*
X62230000Y-60325000D03*
X62230000Y-57785000D03*
X62230000Y-55245000D03*
X62230000Y-52705000D03*
X62230000Y-50165000D03*
X62230000Y-47625000D03*
X62230000Y-45085000D03*
X62230000Y-42545000D03*
X62230000Y-40005000D03*
X62230000Y-37465000D03*
%TD*%
D10*
%TO.C,R10*%
X79375000Y-54610000D03*
D11*
X69215000Y-54610000D03*
%TD*%
D14*
%TO.C,J2*%
X93650000Y-45570000D03*
X68650000Y-45570000D03*
D15*
X76835000Y-46990000D03*
D10*
X79125000Y-46990000D03*
X81415000Y-46990000D03*
X83705000Y-46990000D03*
X85995000Y-46990000D03*
X75690000Y-45010000D03*
X77980000Y-45010000D03*
X80270000Y-45010000D03*
X82560000Y-45010000D03*
X84850000Y-45010000D03*
X76835000Y-43030000D03*
X79125000Y-43030000D03*
X81415000Y-43030000D03*
X83705000Y-43030000D03*
X85995000Y-43030000D03*
%TD*%
D16*
%TO.C,SW1*%
X135940000Y-73070000D03*
X135940000Y-66060000D03*
D17*
X138430000Y-67310000D03*
X138430000Y-71810000D03*
%TD*%
D10*
%TO.C,R11*%
X79375000Y-57785000D03*
D11*
X69215000Y-57785000D03*
%TD*%
D15*
%TO.C,U1*%
X69215000Y-71120000D03*
D11*
X69215000Y-73660000D03*
X69215000Y-76200000D03*
X69215000Y-78740000D03*
X69215000Y-81280000D03*
X69215000Y-83820000D03*
X69215000Y-86360000D03*
X69215000Y-88900000D03*
X69215000Y-91440000D03*
X69215000Y-93980000D03*
X76835000Y-93980000D03*
X76835000Y-91440000D03*
X76835000Y-88900000D03*
X76835000Y-86360000D03*
X76835000Y-83820000D03*
X76835000Y-81280000D03*
X76835000Y-78740000D03*
X76835000Y-76200000D03*
X76835000Y-73660000D03*
X76835000Y-71120000D03*
%TD*%
D15*
%TO.C,U2*%
X68580000Y-106045000D03*
D11*
X68580000Y-108585000D03*
X68580000Y-111125000D03*
X68580000Y-113665000D03*
X68580000Y-116205000D03*
X68580000Y-118745000D03*
X68580000Y-121285000D03*
X68580000Y-123825000D03*
X68580000Y-126365000D03*
X68580000Y-128905000D03*
X76200000Y-128905000D03*
X76200000Y-126365000D03*
X76200000Y-123825000D03*
X76200000Y-121285000D03*
X76200000Y-118745000D03*
X76200000Y-116205000D03*
X76200000Y-113665000D03*
X76200000Y-111125000D03*
X76200000Y-108585000D03*
X76200000Y-106045000D03*
%TD*%
D10*
%TO.C,R1*%
X100330000Y-98425000D03*
D11*
X100330000Y-88265000D03*
%TD*%
D10*
%TO.C,R6*%
X93980000Y-54610000D03*
D11*
X83820000Y-54610000D03*
%TD*%
D10*
%TO.C,R9*%
X93980000Y-64770000D03*
D11*
X83820000Y-64770000D03*
%TD*%
D10*
%TO.C,R4*%
X69215000Y-64135000D03*
D11*
X79375000Y-64135000D03*
%TD*%
D10*
%TO.C,R8*%
X93980000Y-61595000D03*
D11*
X83820000Y-61595000D03*
%TD*%
D15*
%TO.C,U5*%
X107315000Y-106045000D03*
D11*
X107315000Y-108585000D03*
X107315000Y-111125000D03*
X107315000Y-113665000D03*
X107315000Y-116205000D03*
X107315000Y-118745000D03*
X107315000Y-121285000D03*
X114935000Y-121285000D03*
X114935000Y-118745000D03*
X114935000Y-116205000D03*
X114935000Y-113665000D03*
X114935000Y-111125000D03*
X114935000Y-108585000D03*
X114935000Y-106045000D03*
%TD*%
D18*
%TO.C,J3*%
X130145000Y-43325000D03*
D19*
X132745000Y-43325000D03*
X128045000Y-43325000D03*
X134845000Y-43325000D03*
X128045000Y-45825000D03*
X134845000Y-45825000D03*
D20*
X131445000Y-39525000D03*
X138195000Y-40325000D03*
X124695000Y-40325000D03*
%TD*%
D10*
%TO.C,R12*%
X79375000Y-60960000D03*
D11*
X69215000Y-60960000D03*
%TD*%
D15*
%TO.C,U3*%
X84455000Y-71120000D03*
D11*
X84455000Y-73660000D03*
X84455000Y-76200000D03*
X84455000Y-78740000D03*
X84455000Y-81280000D03*
X84455000Y-83820000D03*
X84455000Y-86360000D03*
X84455000Y-88900000D03*
X84455000Y-91440000D03*
X84455000Y-93980000D03*
X92075000Y-93980000D03*
X92075000Y-91440000D03*
X92075000Y-88900000D03*
X92075000Y-86360000D03*
X92075000Y-83820000D03*
X92075000Y-81280000D03*
X92075000Y-78740000D03*
X92075000Y-76200000D03*
X92075000Y-73660000D03*
X92075000Y-71120000D03*
%TD*%
D12*
%TO.C,J4*%
X130880000Y-53355000D03*
D13*
X130880000Y-55895000D03*
X130880000Y-58435000D03*
%TD*%
D21*
%TO.C,U4*%
X112280000Y-38720000D03*
D22*
X107130000Y-35690000D03*
D21*
X107430000Y-38720000D03*
D22*
X112580000Y-35690000D03*
D13*
X100965000Y-35560000D03*
X100965000Y-38100000D03*
D12*
X100965000Y-40640000D03*
D13*
X100965000Y-43180000D03*
X100965000Y-45720000D03*
X100965000Y-48260000D03*
X100965000Y-50800000D03*
D12*
X100965000Y-53340000D03*
D13*
X100965000Y-55880000D03*
X100965000Y-58420000D03*
X100965000Y-60960000D03*
X100965000Y-63500000D03*
D12*
X100965000Y-66040000D03*
D13*
X100965000Y-68580000D03*
X100965000Y-71120000D03*
X100965000Y-73660000D03*
X100965000Y-76200000D03*
D12*
X100965000Y-78740000D03*
D13*
X100965000Y-81280000D03*
X100965000Y-83820000D03*
X118745000Y-83820000D03*
X118745000Y-81280000D03*
D12*
X118745000Y-78740000D03*
D13*
X118745000Y-76200000D03*
X118745000Y-73660000D03*
X118745000Y-71120000D03*
X118745000Y-68580000D03*
D12*
X118745000Y-66040000D03*
D13*
X118745000Y-63500000D03*
X118745000Y-60960000D03*
X118745000Y-58420000D03*
X118745000Y-55880000D03*
D12*
X118745000Y-53340000D03*
D13*
X118745000Y-50800000D03*
X118745000Y-48260000D03*
X118745000Y-45720000D03*
X118745000Y-43180000D03*
D12*
X118745000Y-40640000D03*
D13*
X118745000Y-38100000D03*
X118745000Y-35560000D03*
X107315000Y-83590000D03*
D12*
X109855000Y-83590000D03*
D13*
X112395000Y-83590000D03*
%TD*%
M02*
