%TF.GenerationSoftware,KiCad,Pcbnew,6.0.2+dfsg-1*%
%TF.CreationDate,2024-07-15T20:38:23+02:00*%
%TF.ProjectId,BUS_Rebuild,4255535f-5265-4627-9569-6c642e6b6963,rev?*%
%TF.SameCoordinates,Original*%
%TF.FileFunction,Legend,Top*%
%TF.FilePolarity,Positive*%
%FSLAX46Y46*%
G04 Gerber Fmt 4.6, Leading zero omitted, Abs format (unit mm)*
G04 Created by KiCad (PCBNEW 6.0.2+dfsg-1) date 2024-07-15 20:38:23*
%MOMM*%
%LPD*%
G01*
G04 APERTURE LIST*
%ADD10C,0.150000*%
%ADD11C,0.120000*%
G04 APERTURE END LIST*
D10*
X30130952Y-175982380D02*
X30130952Y-176696666D01*
X30083333Y-176839523D01*
X29988095Y-176934761D01*
X29845238Y-176982380D01*
X29750000Y-176982380D01*
X30559523Y-176077619D02*
X30607142Y-176030000D01*
X30702380Y-175982380D01*
X30940476Y-175982380D01*
X31035714Y-176030000D01*
X31083333Y-176077619D01*
X31130952Y-176172857D01*
X31130952Y-176268095D01*
X31083333Y-176410952D01*
X30511904Y-176982380D01*
X31130952Y-176982380D01*
X31321428Y-177077619D02*
X32083333Y-177077619D01*
X32273809Y-176696666D02*
X32750000Y-176696666D01*
X32178571Y-176982380D02*
X32511904Y-175982380D01*
X32845238Y-176982380D01*
X33702380Y-176982380D02*
X33130952Y-176982380D01*
X33416666Y-176982380D02*
X33416666Y-175982380D01*
X33321428Y-176125238D01*
X33226190Y-176220476D01*
X33130952Y-176268095D01*
X119030952Y-175982380D02*
X119030952Y-176696666D01*
X118983333Y-176839523D01*
X118888095Y-176934761D01*
X118745238Y-176982380D01*
X118650000Y-176982380D01*
X119411904Y-175982380D02*
X120078571Y-175982380D01*
X119650000Y-176982380D01*
X120221428Y-177077619D02*
X120983333Y-177077619D01*
X121173809Y-176696666D02*
X121650000Y-176696666D01*
X121078571Y-176982380D02*
X121411904Y-175982380D01*
X121745238Y-176982380D01*
X122602380Y-176982380D02*
X122030952Y-176982380D01*
X122316666Y-176982380D02*
X122316666Y-175982380D01*
X122221428Y-176125238D01*
X122126190Y-176220476D01*
X122030952Y-176268095D01*
X83470952Y-175982380D02*
X83470952Y-176696666D01*
X83423333Y-176839523D01*
X83328095Y-176934761D01*
X83185238Y-176982380D01*
X83090000Y-176982380D01*
X84423333Y-175982380D02*
X83947142Y-175982380D01*
X83899523Y-176458571D01*
X83947142Y-176410952D01*
X84042380Y-176363333D01*
X84280476Y-176363333D01*
X84375714Y-176410952D01*
X84423333Y-176458571D01*
X84470952Y-176553809D01*
X84470952Y-176791904D01*
X84423333Y-176887142D01*
X84375714Y-176934761D01*
X84280476Y-176982380D01*
X84042380Y-176982380D01*
X83947142Y-176934761D01*
X83899523Y-176887142D01*
X84661428Y-177077619D02*
X85423333Y-177077619D01*
X85613809Y-176696666D02*
X86090000Y-176696666D01*
X85518571Y-176982380D02*
X85851904Y-175982380D01*
X86185238Y-176982380D01*
X87042380Y-176982380D02*
X86470952Y-176982380D01*
X86756666Y-176982380D02*
X86756666Y-175982380D01*
X86661428Y-176125238D01*
X86566190Y-176220476D01*
X86470952Y-176268095D01*
X47910952Y-175982380D02*
X47910952Y-176696666D01*
X47863333Y-176839523D01*
X47768095Y-176934761D01*
X47625238Y-176982380D01*
X47530000Y-176982380D01*
X48291904Y-175982380D02*
X48910952Y-175982380D01*
X48577619Y-176363333D01*
X48720476Y-176363333D01*
X48815714Y-176410952D01*
X48863333Y-176458571D01*
X48910952Y-176553809D01*
X48910952Y-176791904D01*
X48863333Y-176887142D01*
X48815714Y-176934761D01*
X48720476Y-176982380D01*
X48434761Y-176982380D01*
X48339523Y-176934761D01*
X48291904Y-176887142D01*
X49101428Y-177077619D02*
X49863333Y-177077619D01*
X50053809Y-176696666D02*
X50530000Y-176696666D01*
X49958571Y-176982380D02*
X50291904Y-175982380D01*
X50625238Y-176982380D01*
X51482380Y-176982380D02*
X50910952Y-176982380D01*
X51196666Y-176982380D02*
X51196666Y-175982380D01*
X51101428Y-176125238D01*
X51006190Y-176220476D01*
X50910952Y-176268095D01*
X101250952Y-175982380D02*
X101250952Y-176696666D01*
X101203333Y-176839523D01*
X101108095Y-176934761D01*
X100965238Y-176982380D01*
X100870000Y-176982380D01*
X102155714Y-175982380D02*
X101965238Y-175982380D01*
X101870000Y-176030000D01*
X101822380Y-176077619D01*
X101727142Y-176220476D01*
X101679523Y-176410952D01*
X101679523Y-176791904D01*
X101727142Y-176887142D01*
X101774761Y-176934761D01*
X101870000Y-176982380D01*
X102060476Y-176982380D01*
X102155714Y-176934761D01*
X102203333Y-176887142D01*
X102250952Y-176791904D01*
X102250952Y-176553809D01*
X102203333Y-176458571D01*
X102155714Y-176410952D01*
X102060476Y-176363333D01*
X101870000Y-176363333D01*
X101774761Y-176410952D01*
X101727142Y-176458571D01*
X101679523Y-176553809D01*
X102441428Y-177077619D02*
X103203333Y-177077619D01*
X103393809Y-176696666D02*
X103870000Y-176696666D01*
X103298571Y-176982380D02*
X103631904Y-175982380D01*
X103965238Y-176982380D01*
X104822380Y-176982380D02*
X104250952Y-176982380D01*
X104536666Y-176982380D02*
X104536666Y-175982380D01*
X104441428Y-176125238D01*
X104346190Y-176220476D01*
X104250952Y-176268095D01*
X65690952Y-175982380D02*
X65690952Y-176696666D01*
X65643333Y-176839523D01*
X65548095Y-176934761D01*
X65405238Y-176982380D01*
X65310000Y-176982380D01*
X66595714Y-176315714D02*
X66595714Y-176982380D01*
X66357619Y-175934761D02*
X66119523Y-176649047D01*
X66738571Y-176649047D01*
X66881428Y-177077619D02*
X67643333Y-177077619D01*
X67833809Y-176696666D02*
X68310000Y-176696666D01*
X67738571Y-176982380D02*
X68071904Y-175982380D01*
X68405238Y-176982380D01*
X69262380Y-176982380D02*
X68690952Y-176982380D01*
X68976666Y-176982380D02*
X68976666Y-175982380D01*
X68881428Y-176125238D01*
X68786190Y-176220476D01*
X68690952Y-176268095D01*
%TO.C,REF\u002A\u002A*%
X28511666Y-171172380D02*
X28178333Y-170696190D01*
X27940238Y-171172380D02*
X27940238Y-170172380D01*
X28321190Y-170172380D01*
X28416428Y-170220000D01*
X28464047Y-170267619D01*
X28511666Y-170362857D01*
X28511666Y-170505714D01*
X28464047Y-170600952D01*
X28416428Y-170648571D01*
X28321190Y-170696190D01*
X27940238Y-170696190D01*
X28940238Y-170648571D02*
X29273571Y-170648571D01*
X29416428Y-171172380D02*
X28940238Y-171172380D01*
X28940238Y-170172380D01*
X29416428Y-170172380D01*
X30178333Y-170648571D02*
X29845000Y-170648571D01*
X29845000Y-171172380D02*
X29845000Y-170172380D01*
X30321190Y-170172380D01*
X30845000Y-170172380D02*
X30845000Y-170410476D01*
X30606904Y-170315238D02*
X30845000Y-170410476D01*
X31083095Y-170315238D01*
X30702142Y-170600952D02*
X30845000Y-170410476D01*
X30987857Y-170600952D01*
X31606904Y-170172380D02*
X31606904Y-170410476D01*
X31368809Y-170315238D02*
X31606904Y-170410476D01*
X31845000Y-170315238D01*
X31464047Y-170600952D02*
X31606904Y-170410476D01*
X31749761Y-170600952D01*
X75501666Y-171172380D02*
X75168333Y-170696190D01*
X74930238Y-171172380D02*
X74930238Y-170172380D01*
X75311190Y-170172380D01*
X75406428Y-170220000D01*
X75454047Y-170267619D01*
X75501666Y-170362857D01*
X75501666Y-170505714D01*
X75454047Y-170600952D01*
X75406428Y-170648571D01*
X75311190Y-170696190D01*
X74930238Y-170696190D01*
X75930238Y-170648571D02*
X76263571Y-170648571D01*
X76406428Y-171172380D02*
X75930238Y-171172380D01*
X75930238Y-170172380D01*
X76406428Y-170172380D01*
X77168333Y-170648571D02*
X76835000Y-170648571D01*
X76835000Y-171172380D02*
X76835000Y-170172380D01*
X77311190Y-170172380D01*
X77835000Y-170172380D02*
X77835000Y-170410476D01*
X77596904Y-170315238D02*
X77835000Y-170410476D01*
X78073095Y-170315238D01*
X77692142Y-170600952D02*
X77835000Y-170410476D01*
X77977857Y-170600952D01*
X78596904Y-170172380D02*
X78596904Y-170410476D01*
X78358809Y-170315238D02*
X78596904Y-170410476D01*
X78835000Y-170315238D01*
X78454047Y-170600952D02*
X78596904Y-170410476D01*
X78739761Y-170600952D01*
X121221666Y-171172380D02*
X120888333Y-170696190D01*
X120650238Y-171172380D02*
X120650238Y-170172380D01*
X121031190Y-170172380D01*
X121126428Y-170220000D01*
X121174047Y-170267619D01*
X121221666Y-170362857D01*
X121221666Y-170505714D01*
X121174047Y-170600952D01*
X121126428Y-170648571D01*
X121031190Y-170696190D01*
X120650238Y-170696190D01*
X121650238Y-170648571D02*
X121983571Y-170648571D01*
X122126428Y-171172380D02*
X121650238Y-171172380D01*
X121650238Y-170172380D01*
X122126428Y-170172380D01*
X122888333Y-170648571D02*
X122555000Y-170648571D01*
X122555000Y-171172380D02*
X122555000Y-170172380D01*
X123031190Y-170172380D01*
X123555000Y-170172380D02*
X123555000Y-170410476D01*
X123316904Y-170315238D02*
X123555000Y-170410476D01*
X123793095Y-170315238D01*
X123412142Y-170600952D02*
X123555000Y-170410476D01*
X123697857Y-170600952D01*
X124316904Y-170172380D02*
X124316904Y-170410476D01*
X124078809Y-170315238D02*
X124316904Y-170410476D01*
X124555000Y-170315238D01*
X124174047Y-170600952D02*
X124316904Y-170410476D01*
X124459761Y-170600952D01*
X28511666Y-24892380D02*
X28178333Y-24416190D01*
X27940238Y-24892380D02*
X27940238Y-23892380D01*
X28321190Y-23892380D01*
X28416428Y-23940000D01*
X28464047Y-23987619D01*
X28511666Y-24082857D01*
X28511666Y-24225714D01*
X28464047Y-24320952D01*
X28416428Y-24368571D01*
X28321190Y-24416190D01*
X27940238Y-24416190D01*
X28940238Y-24368571D02*
X29273571Y-24368571D01*
X29416428Y-24892380D02*
X28940238Y-24892380D01*
X28940238Y-23892380D01*
X29416428Y-23892380D01*
X30178333Y-24368571D02*
X29845000Y-24368571D01*
X29845000Y-24892380D02*
X29845000Y-23892380D01*
X30321190Y-23892380D01*
X30845000Y-23892380D02*
X30845000Y-24130476D01*
X30606904Y-24035238D02*
X30845000Y-24130476D01*
X31083095Y-24035238D01*
X30702142Y-24320952D02*
X30845000Y-24130476D01*
X30987857Y-24320952D01*
X31606904Y-23892380D02*
X31606904Y-24130476D01*
X31368809Y-24035238D02*
X31606904Y-24130476D01*
X31845000Y-24035238D01*
X31464047Y-24320952D02*
X31606904Y-24130476D01*
X31749761Y-24320952D01*
X75501666Y-24892380D02*
X75168333Y-24416190D01*
X74930238Y-24892380D02*
X74930238Y-23892380D01*
X75311190Y-23892380D01*
X75406428Y-23940000D01*
X75454047Y-23987619D01*
X75501666Y-24082857D01*
X75501666Y-24225714D01*
X75454047Y-24320952D01*
X75406428Y-24368571D01*
X75311190Y-24416190D01*
X74930238Y-24416190D01*
X75930238Y-24368571D02*
X76263571Y-24368571D01*
X76406428Y-24892380D02*
X75930238Y-24892380D01*
X75930238Y-23892380D01*
X76406428Y-23892380D01*
X77168333Y-24368571D02*
X76835000Y-24368571D01*
X76835000Y-24892380D02*
X76835000Y-23892380D01*
X77311190Y-23892380D01*
X77835000Y-23892380D02*
X77835000Y-24130476D01*
X77596904Y-24035238D02*
X77835000Y-24130476D01*
X78073095Y-24035238D01*
X77692142Y-24320952D02*
X77835000Y-24130476D01*
X77977857Y-24320952D01*
X78596904Y-23892380D02*
X78596904Y-24130476D01*
X78358809Y-24035238D02*
X78596904Y-24130476D01*
X78835000Y-24035238D01*
X78454047Y-24320952D02*
X78596904Y-24130476D01*
X78739761Y-24320952D01*
X121221666Y-24892380D02*
X120888333Y-24416190D01*
X120650238Y-24892380D02*
X120650238Y-23892380D01*
X121031190Y-23892380D01*
X121126428Y-23940000D01*
X121174047Y-23987619D01*
X121221666Y-24082857D01*
X121221666Y-24225714D01*
X121174047Y-24320952D01*
X121126428Y-24368571D01*
X121031190Y-24416190D01*
X120650238Y-24416190D01*
X121650238Y-24368571D02*
X121983571Y-24368571D01*
X122126428Y-24892380D02*
X121650238Y-24892380D01*
X121650238Y-23892380D01*
X122126428Y-23892380D01*
X122888333Y-24368571D02*
X122555000Y-24368571D01*
X122555000Y-24892380D02*
X122555000Y-23892380D01*
X123031190Y-23892380D01*
X123555000Y-23892380D02*
X123555000Y-24130476D01*
X123316904Y-24035238D02*
X123555000Y-24130476D01*
X123793095Y-24035238D01*
X123412142Y-24320952D02*
X123555000Y-24130476D01*
X123697857Y-24320952D01*
X124316904Y-23892380D02*
X124316904Y-24130476D01*
X124078809Y-24035238D02*
X124316904Y-24130476D01*
X124555000Y-24035238D01*
X124174047Y-24320952D02*
X124316904Y-24130476D01*
X124459761Y-24320952D01*
%TO.C,J4_A1*%
X65690952Y-29702380D02*
X65690952Y-30416666D01*
X65643333Y-30559523D01*
X65548095Y-30654761D01*
X65405238Y-30702380D01*
X65310000Y-30702380D01*
X66595714Y-30035714D02*
X66595714Y-30702380D01*
X66357619Y-29654761D02*
X66119523Y-30369047D01*
X66738571Y-30369047D01*
X66881428Y-30797619D02*
X67643333Y-30797619D01*
X67833809Y-30416666D02*
X68310000Y-30416666D01*
X67738571Y-30702380D02*
X68071904Y-29702380D01*
X68405238Y-30702380D01*
X69262380Y-30702380D02*
X68690952Y-30702380D01*
X68976666Y-30702380D02*
X68976666Y-29702380D01*
X68881428Y-29845238D01*
X68786190Y-29940476D01*
X68690952Y-29988095D01*
%TO.C,J8_A1*%
X122840952Y-29702380D02*
X122840952Y-30416666D01*
X122793333Y-30559523D01*
X122698095Y-30654761D01*
X122555238Y-30702380D01*
X122460000Y-30702380D01*
X123460000Y-30130952D02*
X123364761Y-30083333D01*
X123317142Y-30035714D01*
X123269523Y-29940476D01*
X123269523Y-29892857D01*
X123317142Y-29797619D01*
X123364761Y-29750000D01*
X123460000Y-29702380D01*
X123650476Y-29702380D01*
X123745714Y-29750000D01*
X123793333Y-29797619D01*
X123840952Y-29892857D01*
X123840952Y-29940476D01*
X123793333Y-30035714D01*
X123745714Y-30083333D01*
X123650476Y-30130952D01*
X123460000Y-30130952D01*
X123364761Y-30178571D01*
X123317142Y-30226190D01*
X123269523Y-30321428D01*
X123269523Y-30511904D01*
X123317142Y-30607142D01*
X123364761Y-30654761D01*
X123460000Y-30702380D01*
X123650476Y-30702380D01*
X123745714Y-30654761D01*
X123793333Y-30607142D01*
X123840952Y-30511904D01*
X123840952Y-30321428D01*
X123793333Y-30226190D01*
X123745714Y-30178571D01*
X123650476Y-30130952D01*
X124031428Y-30797619D02*
X124793333Y-30797619D01*
X124983809Y-30416666D02*
X125460000Y-30416666D01*
X124888571Y-30702380D02*
X125221904Y-29702380D01*
X125555238Y-30702380D01*
X126412380Y-30702380D02*
X125840952Y-30702380D01*
X126126666Y-30702380D02*
X126126666Y-29702380D01*
X126031428Y-29845238D01*
X125936190Y-29940476D01*
X125840952Y-29988095D01*
%TO.C,J2_A1*%
X30130952Y-29702380D02*
X30130952Y-30416666D01*
X30083333Y-30559523D01*
X29988095Y-30654761D01*
X29845238Y-30702380D01*
X29750000Y-30702380D01*
X30559523Y-29797619D02*
X30607142Y-29750000D01*
X30702380Y-29702380D01*
X30940476Y-29702380D01*
X31035714Y-29750000D01*
X31083333Y-29797619D01*
X31130952Y-29892857D01*
X31130952Y-29988095D01*
X31083333Y-30130952D01*
X30511904Y-30702380D01*
X31130952Y-30702380D01*
X31321428Y-30797619D02*
X32083333Y-30797619D01*
X32273809Y-30416666D02*
X32750000Y-30416666D01*
X32178571Y-30702380D02*
X32511904Y-29702380D01*
X32845238Y-30702380D01*
X33702380Y-30702380D02*
X33130952Y-30702380D01*
X33416666Y-30702380D02*
X33416666Y-29702380D01*
X33321428Y-29845238D01*
X33226190Y-29940476D01*
X33130952Y-29988095D01*
%TO.C,J6_B1*%
X101179523Y-113522380D02*
X101179523Y-114236666D01*
X101131904Y-114379523D01*
X101036666Y-114474761D01*
X100893809Y-114522380D01*
X100798571Y-114522380D01*
X102084285Y-113522380D02*
X101893809Y-113522380D01*
X101798571Y-113570000D01*
X101750952Y-113617619D01*
X101655714Y-113760476D01*
X101608095Y-113950952D01*
X101608095Y-114331904D01*
X101655714Y-114427142D01*
X101703333Y-114474761D01*
X101798571Y-114522380D01*
X101989047Y-114522380D01*
X102084285Y-114474761D01*
X102131904Y-114427142D01*
X102179523Y-114331904D01*
X102179523Y-114093809D01*
X102131904Y-113998571D01*
X102084285Y-113950952D01*
X101989047Y-113903333D01*
X101798571Y-113903333D01*
X101703333Y-113950952D01*
X101655714Y-113998571D01*
X101608095Y-114093809D01*
X102370000Y-114617619D02*
X103131904Y-114617619D01*
X103703333Y-113998571D02*
X103846190Y-114046190D01*
X103893809Y-114093809D01*
X103941428Y-114189047D01*
X103941428Y-114331904D01*
X103893809Y-114427142D01*
X103846190Y-114474761D01*
X103750952Y-114522380D01*
X103370000Y-114522380D01*
X103370000Y-113522380D01*
X103703333Y-113522380D01*
X103798571Y-113570000D01*
X103846190Y-113617619D01*
X103893809Y-113712857D01*
X103893809Y-113808095D01*
X103846190Y-113903333D01*
X103798571Y-113950952D01*
X103703333Y-113998571D01*
X103370000Y-113998571D01*
X104893809Y-114522380D02*
X104322380Y-114522380D01*
X104608095Y-114522380D02*
X104608095Y-113522380D01*
X104512857Y-113665238D01*
X104417619Y-113760476D01*
X104322380Y-113808095D01*
%TO.C,J7_B1*%
X118959523Y-113522380D02*
X118959523Y-114236666D01*
X118911904Y-114379523D01*
X118816666Y-114474761D01*
X118673809Y-114522380D01*
X118578571Y-114522380D01*
X119340476Y-113522380D02*
X120007142Y-113522380D01*
X119578571Y-114522380D01*
X120150000Y-114617619D02*
X120911904Y-114617619D01*
X121483333Y-113998571D02*
X121626190Y-114046190D01*
X121673809Y-114093809D01*
X121721428Y-114189047D01*
X121721428Y-114331904D01*
X121673809Y-114427142D01*
X121626190Y-114474761D01*
X121530952Y-114522380D01*
X121150000Y-114522380D01*
X121150000Y-113522380D01*
X121483333Y-113522380D01*
X121578571Y-113570000D01*
X121626190Y-113617619D01*
X121673809Y-113712857D01*
X121673809Y-113808095D01*
X121626190Y-113903333D01*
X121578571Y-113950952D01*
X121483333Y-113998571D01*
X121150000Y-113998571D01*
X122673809Y-114522380D02*
X122102380Y-114522380D01*
X122388095Y-114522380D02*
X122388095Y-113522380D01*
X122292857Y-113665238D01*
X122197619Y-113760476D01*
X122102380Y-113808095D01*
%TO.C,J3_B1*%
X47839523Y-113522380D02*
X47839523Y-114236666D01*
X47791904Y-114379523D01*
X47696666Y-114474761D01*
X47553809Y-114522380D01*
X47458571Y-114522380D01*
X48220476Y-113522380D02*
X48839523Y-113522380D01*
X48506190Y-113903333D01*
X48649047Y-113903333D01*
X48744285Y-113950952D01*
X48791904Y-113998571D01*
X48839523Y-114093809D01*
X48839523Y-114331904D01*
X48791904Y-114427142D01*
X48744285Y-114474761D01*
X48649047Y-114522380D01*
X48363333Y-114522380D01*
X48268095Y-114474761D01*
X48220476Y-114427142D01*
X49030000Y-114617619D02*
X49791904Y-114617619D01*
X50363333Y-113998571D02*
X50506190Y-114046190D01*
X50553809Y-114093809D01*
X50601428Y-114189047D01*
X50601428Y-114331904D01*
X50553809Y-114427142D01*
X50506190Y-114474761D01*
X50410952Y-114522380D01*
X50030000Y-114522380D01*
X50030000Y-113522380D01*
X50363333Y-113522380D01*
X50458571Y-113570000D01*
X50506190Y-113617619D01*
X50553809Y-113712857D01*
X50553809Y-113808095D01*
X50506190Y-113903333D01*
X50458571Y-113950952D01*
X50363333Y-113998571D01*
X50030000Y-113998571D01*
X51553809Y-114522380D02*
X50982380Y-114522380D01*
X51268095Y-114522380D02*
X51268095Y-113522380D01*
X51172857Y-113665238D01*
X51077619Y-113760476D01*
X50982380Y-113808095D01*
%TO.C,J1_A1*%
X26320952Y-29702380D02*
X26320952Y-30416666D01*
X26273333Y-30559523D01*
X26178095Y-30654761D01*
X26035238Y-30702380D01*
X25940000Y-30702380D01*
X27320952Y-30702380D02*
X26749523Y-30702380D01*
X27035238Y-30702380D02*
X27035238Y-29702380D01*
X26940000Y-29845238D01*
X26844761Y-29940476D01*
X26749523Y-29988095D01*
X27511428Y-30797619D02*
X28273333Y-30797619D01*
X28463809Y-30416666D02*
X28940000Y-30416666D01*
X28368571Y-30702380D02*
X28701904Y-29702380D01*
X29035238Y-30702380D01*
X29892380Y-30702380D02*
X29320952Y-30702380D01*
X29606666Y-30702380D02*
X29606666Y-29702380D01*
X29511428Y-29845238D01*
X29416190Y-29940476D01*
X29320952Y-29988095D01*
%TO.C,J1_B1*%
X26249523Y-113522380D02*
X26249523Y-114236666D01*
X26201904Y-114379523D01*
X26106666Y-114474761D01*
X25963809Y-114522380D01*
X25868571Y-114522380D01*
X27249523Y-114522380D02*
X26678095Y-114522380D01*
X26963809Y-114522380D02*
X26963809Y-113522380D01*
X26868571Y-113665238D01*
X26773333Y-113760476D01*
X26678095Y-113808095D01*
X27439999Y-114617619D02*
X28201904Y-114617619D01*
X28773333Y-113998571D02*
X28916190Y-114046190D01*
X28963809Y-114093809D01*
X29011428Y-114189047D01*
X29011428Y-114331904D01*
X28963809Y-114427142D01*
X28916190Y-114474761D01*
X28820952Y-114522380D01*
X28439999Y-114522380D01*
X28439999Y-113522380D01*
X28773333Y-113522380D01*
X28868571Y-113570000D01*
X28916190Y-113617619D01*
X28963809Y-113712857D01*
X28963809Y-113808095D01*
X28916190Y-113903333D01*
X28868571Y-113950952D01*
X28773333Y-113998571D01*
X28439999Y-113998571D01*
X29963809Y-114522380D02*
X29392380Y-114522380D01*
X29678095Y-114522380D02*
X29678095Y-113522380D01*
X29582857Y-113665238D01*
X29487619Y-113760476D01*
X29392380Y-113808095D01*
%TO.C,J4_B1*%
X65619523Y-113522380D02*
X65619523Y-114236666D01*
X65571904Y-114379523D01*
X65476666Y-114474761D01*
X65333809Y-114522380D01*
X65238571Y-114522380D01*
X66524285Y-113855714D02*
X66524285Y-114522380D01*
X66286190Y-113474761D02*
X66048095Y-114189047D01*
X66667142Y-114189047D01*
X66810000Y-114617619D02*
X67571904Y-114617619D01*
X68143333Y-113998571D02*
X68286190Y-114046190D01*
X68333809Y-114093809D01*
X68381428Y-114189047D01*
X68381428Y-114331904D01*
X68333809Y-114427142D01*
X68286190Y-114474761D01*
X68190952Y-114522380D01*
X67810000Y-114522380D01*
X67810000Y-113522380D01*
X68143333Y-113522380D01*
X68238571Y-113570000D01*
X68286190Y-113617619D01*
X68333809Y-113712857D01*
X68333809Y-113808095D01*
X68286190Y-113903333D01*
X68238571Y-113950952D01*
X68143333Y-113998571D01*
X67810000Y-113998571D01*
X69333809Y-114522380D02*
X68762380Y-114522380D01*
X69048095Y-114522380D02*
X69048095Y-113522380D01*
X68952857Y-113665238D01*
X68857619Y-113760476D01*
X68762380Y-113808095D01*
%TO.C,J2_B1*%
X30059523Y-113522380D02*
X30059523Y-114236666D01*
X30011904Y-114379523D01*
X29916666Y-114474761D01*
X29773809Y-114522380D01*
X29678571Y-114522380D01*
X30488095Y-113617619D02*
X30535714Y-113570000D01*
X30630952Y-113522380D01*
X30869047Y-113522380D01*
X30964285Y-113570000D01*
X31011904Y-113617619D01*
X31059523Y-113712857D01*
X31059523Y-113808095D01*
X31011904Y-113950952D01*
X30440476Y-114522380D01*
X31059523Y-114522380D01*
X31249999Y-114617619D02*
X32011904Y-114617619D01*
X32583333Y-113998571D02*
X32726190Y-114046190D01*
X32773809Y-114093809D01*
X32821428Y-114189047D01*
X32821428Y-114331904D01*
X32773809Y-114427142D01*
X32726190Y-114474761D01*
X32630952Y-114522380D01*
X32249999Y-114522380D01*
X32249999Y-113522380D01*
X32583333Y-113522380D01*
X32678571Y-113570000D01*
X32726190Y-113617619D01*
X32773809Y-113712857D01*
X32773809Y-113808095D01*
X32726190Y-113903333D01*
X32678571Y-113950952D01*
X32583333Y-113998571D01*
X32249999Y-113998571D01*
X33773809Y-114522380D02*
X33202380Y-114522380D01*
X33488095Y-114522380D02*
X33488095Y-113522380D01*
X33392857Y-113665238D01*
X33297619Y-113760476D01*
X33202380Y-113808095D01*
%TO.C,J3_A1*%
X47910952Y-29702380D02*
X47910952Y-30416666D01*
X47863333Y-30559523D01*
X47768095Y-30654761D01*
X47625238Y-30702380D01*
X47530000Y-30702380D01*
X48291904Y-29702380D02*
X48910952Y-29702380D01*
X48577619Y-30083333D01*
X48720476Y-30083333D01*
X48815714Y-30130952D01*
X48863333Y-30178571D01*
X48910952Y-30273809D01*
X48910952Y-30511904D01*
X48863333Y-30607142D01*
X48815714Y-30654761D01*
X48720476Y-30702380D01*
X48434761Y-30702380D01*
X48339523Y-30654761D01*
X48291904Y-30607142D01*
X49101428Y-30797619D02*
X49863333Y-30797619D01*
X50053809Y-30416666D02*
X50530000Y-30416666D01*
X49958571Y-30702380D02*
X50291904Y-29702380D01*
X50625238Y-30702380D01*
X51482380Y-30702380D02*
X50910952Y-30702380D01*
X51196666Y-30702380D02*
X51196666Y-29702380D01*
X51101428Y-29845238D01*
X51006190Y-29940476D01*
X50910952Y-29988095D01*
%TO.C,J5_A1*%
X83470952Y-29702380D02*
X83470952Y-30416666D01*
X83423333Y-30559523D01*
X83328095Y-30654761D01*
X83185238Y-30702380D01*
X83090000Y-30702380D01*
X84423333Y-29702380D02*
X83947142Y-29702380D01*
X83899523Y-30178571D01*
X83947142Y-30130952D01*
X84042380Y-30083333D01*
X84280476Y-30083333D01*
X84375714Y-30130952D01*
X84423333Y-30178571D01*
X84470952Y-30273809D01*
X84470952Y-30511904D01*
X84423333Y-30607142D01*
X84375714Y-30654761D01*
X84280476Y-30702380D01*
X84042380Y-30702380D01*
X83947142Y-30654761D01*
X83899523Y-30607142D01*
X84661428Y-30797619D02*
X85423333Y-30797619D01*
X85613809Y-30416666D02*
X86090000Y-30416666D01*
X85518571Y-30702380D02*
X85851904Y-29702380D01*
X86185238Y-30702380D01*
X87042380Y-30702380D02*
X86470952Y-30702380D01*
X86756666Y-30702380D02*
X86756666Y-29702380D01*
X86661428Y-29845238D01*
X86566190Y-29940476D01*
X86470952Y-29988095D01*
%TO.C,J7_A1*%
X119030952Y-29702380D02*
X119030952Y-30416666D01*
X118983333Y-30559523D01*
X118888095Y-30654761D01*
X118745238Y-30702380D01*
X118650000Y-30702380D01*
X119411904Y-29702380D02*
X120078571Y-29702380D01*
X119650000Y-30702380D01*
X120221428Y-30797619D02*
X120983333Y-30797619D01*
X121173809Y-30416666D02*
X121650000Y-30416666D01*
X121078571Y-30702380D02*
X121411904Y-29702380D01*
X121745238Y-30702380D01*
X122602380Y-30702380D02*
X122030952Y-30702380D01*
X122316666Y-30702380D02*
X122316666Y-29702380D01*
X122221428Y-29845238D01*
X122126190Y-29940476D01*
X122030952Y-29988095D01*
%TO.C,J5_B1*%
X83399523Y-113522380D02*
X83399523Y-114236666D01*
X83351904Y-114379523D01*
X83256666Y-114474761D01*
X83113809Y-114522380D01*
X83018571Y-114522380D01*
X84351904Y-113522380D02*
X83875714Y-113522380D01*
X83828095Y-113998571D01*
X83875714Y-113950952D01*
X83970952Y-113903333D01*
X84209047Y-113903333D01*
X84304285Y-113950952D01*
X84351904Y-113998571D01*
X84399523Y-114093809D01*
X84399523Y-114331904D01*
X84351904Y-114427142D01*
X84304285Y-114474761D01*
X84209047Y-114522380D01*
X83970952Y-114522380D01*
X83875714Y-114474761D01*
X83828095Y-114427142D01*
X84590000Y-114617619D02*
X85351904Y-114617619D01*
X85923333Y-113998571D02*
X86066190Y-114046190D01*
X86113809Y-114093809D01*
X86161428Y-114189047D01*
X86161428Y-114331904D01*
X86113809Y-114427142D01*
X86066190Y-114474761D01*
X85970952Y-114522380D01*
X85590000Y-114522380D01*
X85590000Y-113522380D01*
X85923333Y-113522380D01*
X86018571Y-113570000D01*
X86066190Y-113617619D01*
X86113809Y-113712857D01*
X86113809Y-113808095D01*
X86066190Y-113903333D01*
X86018571Y-113950952D01*
X85923333Y-113998571D01*
X85590000Y-113998571D01*
X87113809Y-114522380D02*
X86542380Y-114522380D01*
X86828095Y-114522380D02*
X86828095Y-113522380D01*
X86732857Y-113665238D01*
X86637619Y-113760476D01*
X86542380Y-113808095D01*
%TO.C,J8_B1*%
X122769523Y-113522380D02*
X122769523Y-114236666D01*
X122721904Y-114379523D01*
X122626666Y-114474761D01*
X122483809Y-114522380D01*
X122388571Y-114522380D01*
X123388571Y-113950952D02*
X123293333Y-113903333D01*
X123245714Y-113855714D01*
X123198095Y-113760476D01*
X123198095Y-113712857D01*
X123245714Y-113617619D01*
X123293333Y-113570000D01*
X123388571Y-113522380D01*
X123579047Y-113522380D01*
X123674285Y-113570000D01*
X123721904Y-113617619D01*
X123769523Y-113712857D01*
X123769523Y-113760476D01*
X123721904Y-113855714D01*
X123674285Y-113903333D01*
X123579047Y-113950952D01*
X123388571Y-113950952D01*
X123293333Y-113998571D01*
X123245714Y-114046190D01*
X123198095Y-114141428D01*
X123198095Y-114331904D01*
X123245714Y-114427142D01*
X123293333Y-114474761D01*
X123388571Y-114522380D01*
X123579047Y-114522380D01*
X123674285Y-114474761D01*
X123721904Y-114427142D01*
X123769523Y-114331904D01*
X123769523Y-114141428D01*
X123721904Y-114046190D01*
X123674285Y-113998571D01*
X123579047Y-113950952D01*
X123960000Y-114617619D02*
X124721904Y-114617619D01*
X125293333Y-113998571D02*
X125436190Y-114046190D01*
X125483809Y-114093809D01*
X125531428Y-114189047D01*
X125531428Y-114331904D01*
X125483809Y-114427142D01*
X125436190Y-114474761D01*
X125340952Y-114522380D01*
X124960000Y-114522380D01*
X124960000Y-113522380D01*
X125293333Y-113522380D01*
X125388571Y-113570000D01*
X125436190Y-113617619D01*
X125483809Y-113712857D01*
X125483809Y-113808095D01*
X125436190Y-113903333D01*
X125388571Y-113950952D01*
X125293333Y-113998571D01*
X124960000Y-113998571D01*
X126483809Y-114522380D02*
X125912380Y-114522380D01*
X126198095Y-114522380D02*
X126198095Y-113522380D01*
X126102857Y-113665238D01*
X126007619Y-113760476D01*
X125912380Y-113808095D01*
%TO.C,J6_A1*%
X101250952Y-29702380D02*
X101250952Y-30416666D01*
X101203333Y-30559523D01*
X101108095Y-30654761D01*
X100965238Y-30702380D01*
X100870000Y-30702380D01*
X102155714Y-29702380D02*
X101965238Y-29702380D01*
X101870000Y-29750000D01*
X101822380Y-29797619D01*
X101727142Y-29940476D01*
X101679523Y-30130952D01*
X101679523Y-30511904D01*
X101727142Y-30607142D01*
X101774761Y-30654761D01*
X101870000Y-30702380D01*
X102060476Y-30702380D01*
X102155714Y-30654761D01*
X102203333Y-30607142D01*
X102250952Y-30511904D01*
X102250952Y-30273809D01*
X102203333Y-30178571D01*
X102155714Y-30130952D01*
X102060476Y-30083333D01*
X101870000Y-30083333D01*
X101774761Y-30130952D01*
X101727142Y-30178571D01*
X101679523Y-30273809D01*
X102441428Y-30797619D02*
X103203333Y-30797619D01*
X103393809Y-30416666D02*
X103870000Y-30416666D01*
X103298571Y-30702380D02*
X103631904Y-29702380D01*
X103965238Y-30702380D01*
X104822380Y-30702380D02*
X104250952Y-30702380D01*
X104536666Y-30702380D02*
X104536666Y-29702380D01*
X104441428Y-29845238D01*
X104346190Y-29940476D01*
X104250952Y-29988095D01*
D11*
%TO.C,J4_A1*%
X68640000Y-31690000D02*
X68640000Y-33020000D01*
X65980000Y-34290000D02*
X68640000Y-34290000D01*
X67310000Y-31690000D02*
X68640000Y-31690000D01*
X65980000Y-115630000D02*
X68640000Y-115630000D01*
X65980000Y-34290000D02*
X65980000Y-115630000D01*
X68640000Y-34290000D02*
X68640000Y-115630000D01*
%TO.C,J8_A1*%
X123130000Y-34290000D02*
X125790000Y-34290000D01*
X124460000Y-31690000D02*
X125790000Y-31690000D01*
X123130000Y-34290000D02*
X123130000Y-115630000D01*
X125790000Y-31690000D02*
X125790000Y-33020000D01*
X125790000Y-34290000D02*
X125790000Y-115630000D01*
X123130000Y-115630000D02*
X125790000Y-115630000D01*
%TO.C,J2_A1*%
X30420000Y-34290000D02*
X30420000Y-115630000D01*
X31750000Y-31690000D02*
X33080000Y-31690000D01*
X30420000Y-115630000D02*
X33080000Y-115630000D01*
X30420000Y-34290000D02*
X33080000Y-34290000D01*
X33080000Y-34290000D02*
X33080000Y-115630000D01*
X33080000Y-31690000D02*
X33080000Y-33020000D01*
%TO.C,J6_B1*%
X104200000Y-118110000D02*
X104200000Y-168970000D01*
X101540000Y-168970000D02*
X104200000Y-168970000D01*
X104200000Y-115510000D02*
X104200000Y-116840000D01*
X102870000Y-115510000D02*
X104200000Y-115510000D01*
X101540000Y-118110000D02*
X104200000Y-118110000D01*
X101540000Y-118110000D02*
X101540000Y-168970000D01*
%TO.C,J7_B1*%
X121980000Y-115510000D02*
X121980000Y-116840000D01*
X120650000Y-115510000D02*
X121980000Y-115510000D01*
X119320000Y-118110000D02*
X121980000Y-118110000D01*
X119320000Y-168970000D02*
X121980000Y-168970000D01*
X119320000Y-118110000D02*
X119320000Y-168970000D01*
X121980000Y-118110000D02*
X121980000Y-168970000D01*
%TO.C,J3_B1*%
X48200000Y-168970000D02*
X50860000Y-168970000D01*
X48200000Y-118110000D02*
X50860000Y-118110000D01*
X50860000Y-115510000D02*
X50860000Y-116840000D01*
X49530000Y-115510000D02*
X50860000Y-115510000D01*
X50860000Y-118110000D02*
X50860000Y-168970000D01*
X48200000Y-118110000D02*
X48200000Y-168970000D01*
%TO.C,J1_A1*%
X27940000Y-31690000D02*
X29270000Y-31690000D01*
X29270000Y-31690000D02*
X29270000Y-33020000D01*
X26610000Y-34290000D02*
X29270000Y-34290000D01*
X26610000Y-34290000D02*
X26610000Y-115630000D01*
X26610000Y-115630000D02*
X29270000Y-115630000D01*
X29270000Y-34290000D02*
X29270000Y-115630000D01*
%TO.C,J1_B1*%
X27940000Y-115510000D02*
X29270000Y-115510000D01*
X26610000Y-118110000D02*
X29270000Y-118110000D01*
X29270000Y-115510000D02*
X29270000Y-116840000D01*
X29270000Y-118110000D02*
X29270000Y-168970000D01*
X26610000Y-168970000D02*
X29270000Y-168970000D01*
X26610000Y-118110000D02*
X26610000Y-168970000D01*
%TO.C,J4_B1*%
X65980000Y-118110000D02*
X68640000Y-118110000D01*
X65980000Y-118110000D02*
X65980000Y-168970000D01*
X65980000Y-168970000D02*
X68640000Y-168970000D01*
X68640000Y-118110000D02*
X68640000Y-168970000D01*
X68640000Y-115510000D02*
X68640000Y-116840000D01*
X67310000Y-115510000D02*
X68640000Y-115510000D01*
%TO.C,J2_B1*%
X33080000Y-118110000D02*
X33080000Y-168970000D01*
X30420000Y-118110000D02*
X33080000Y-118110000D01*
X30420000Y-168970000D02*
X33080000Y-168970000D01*
X31750000Y-115510000D02*
X33080000Y-115510000D01*
X33080000Y-115510000D02*
X33080000Y-116840000D01*
X30420000Y-118110000D02*
X30420000Y-168970000D01*
%TO.C,J3_A1*%
X50860000Y-31690000D02*
X50860000Y-33020000D01*
X48200000Y-115630000D02*
X50860000Y-115630000D01*
X48200000Y-34290000D02*
X48200000Y-115630000D01*
X49530000Y-31690000D02*
X50860000Y-31690000D01*
X48200000Y-34290000D02*
X50860000Y-34290000D01*
X50860000Y-34290000D02*
X50860000Y-115630000D01*
%TO.C,J5_A1*%
X83760000Y-34290000D02*
X83760000Y-115630000D01*
X83760000Y-34290000D02*
X86420000Y-34290000D01*
X86420000Y-31690000D02*
X86420000Y-33020000D01*
X85090000Y-31690000D02*
X86420000Y-31690000D01*
X86420000Y-34290000D02*
X86420000Y-115630000D01*
X83760000Y-115630000D02*
X86420000Y-115630000D01*
%TO.C,J7_A1*%
X121980000Y-31690000D02*
X121980000Y-33020000D01*
X119320000Y-34290000D02*
X119320000Y-115630000D01*
X119320000Y-34290000D02*
X121980000Y-34290000D01*
X121980000Y-34290000D02*
X121980000Y-115630000D01*
X120650000Y-31690000D02*
X121980000Y-31690000D01*
X119320000Y-115630000D02*
X121980000Y-115630000D01*
%TO.C,J5_B1*%
X83760000Y-118110000D02*
X86420000Y-118110000D01*
X83760000Y-168970000D02*
X86420000Y-168970000D01*
X86420000Y-118110000D02*
X86420000Y-168970000D01*
X85090000Y-115510000D02*
X86420000Y-115510000D01*
X83760000Y-118110000D02*
X83760000Y-168970000D01*
X86420000Y-115510000D02*
X86420000Y-116840000D01*
%TO.C,J8_B1*%
X123130000Y-118110000D02*
X123130000Y-168970000D01*
X123130000Y-118110000D02*
X125790000Y-118110000D01*
X125790000Y-115510000D02*
X125790000Y-116840000D01*
X124460000Y-115510000D02*
X125790000Y-115510000D01*
X123130000Y-168970000D02*
X125790000Y-168970000D01*
X125790000Y-118110000D02*
X125790000Y-168970000D01*
%TO.C,J6_A1*%
X101540000Y-34290000D02*
X104200000Y-34290000D01*
X104200000Y-31690000D02*
X104200000Y-33020000D01*
X104200000Y-34290000D02*
X104200000Y-115630000D01*
X101540000Y-115630000D02*
X104200000Y-115630000D01*
X101540000Y-34290000D02*
X101540000Y-115630000D01*
X102870000Y-31690000D02*
X104200000Y-31690000D01*
%TD*%
M02*
