M48
; DRILL file {KiCad 6.0.2+dfsg-1} date Mon 15 Jul 2024 08:44:43 PM CEST
; FORMAT={-:-/ absolute / inch / decimal}
; #@! TF.CreationDate,2024-07-15T20:44:43+02:00
; #@! TF.GenerationSoftware,Kicad,Pcbnew,6.0.2+dfsg-1
; #@! TF.FileFunction,Plated,1,2,PTH
FMAT,2
INCH
; #@! TA.AperFunction,Plated,PTH,ComponentDrill
T1C0.0394
; #@! TA.AperFunction,Plated,PTH,ComponentDrill
T2C0.0984
%
G90
G05
T1
X1.1Y-1.3
X1.1Y-1.4
X1.1Y-1.5
X1.1Y-1.6
X1.1Y-1.7
X1.1Y-1.8
X1.1Y-1.9
X1.1Y-2.0
X1.1Y-2.1
X1.1Y-2.2
X1.1Y-2.3
X1.1Y-2.4
X1.1Y-2.5
X1.1Y-2.6
X1.1Y-2.7
X1.1Y-2.8
X1.1Y-2.9
X1.1Y-3.0
X1.1Y-3.1
X1.1Y-3.2
X1.1Y-3.3
X1.1Y-3.4
X1.1Y-3.5
X1.1Y-3.6
X1.1Y-3.7
X1.1Y-3.8
X1.1Y-3.9
X1.1Y-4.0
X1.1Y-4.1
X1.1Y-4.2
X1.1Y-4.3
X1.1Y-4.4
X1.1Y-4.5
X1.1Y-4.6
X1.1Y-4.7
X1.1Y-4.8
X1.1Y-4.9
X1.1Y-5.0
X1.1Y-5.1
X1.1Y-5.2
X1.1Y-5.3
X1.1Y-5.4
X1.1Y-5.5
X1.1Y-5.6
X1.1Y-5.7
X1.1Y-5.8
X1.1Y-5.9
X1.1Y-6.0
X1.1Y-6.1
X1.1Y-6.2
X1.1Y-6.3
X1.1Y-6.4
X1.1Y-6.5
X1.1Y-6.6
X1.25Y-1.3
X1.25Y-1.4
X1.25Y-1.5
X1.25Y-1.6
X1.25Y-1.7
X1.25Y-1.8
X1.25Y-1.9
X1.25Y-2.0
X1.25Y-2.1
X1.25Y-2.2
X1.25Y-2.3
X1.25Y-2.4
X1.25Y-2.5
X1.25Y-2.6
X1.25Y-2.7
X1.25Y-2.8
X1.25Y-2.9
X1.25Y-3.0
X1.25Y-3.1
X1.25Y-3.2
X1.25Y-3.3
X1.25Y-3.4
X1.25Y-3.5
X1.25Y-3.6
X1.25Y-3.7
X1.25Y-3.8
X1.25Y-3.9
X1.25Y-4.0
X1.25Y-4.1
X1.25Y-4.2
X1.25Y-4.3
X1.25Y-4.4
X1.25Y-4.5
X1.25Y-4.6
X1.25Y-4.7
X1.25Y-4.8
X1.25Y-4.9
X1.25Y-5.0
X1.25Y-5.1
X1.25Y-5.2
X1.25Y-5.3
X1.25Y-5.4
X1.25Y-5.5
X1.25Y-5.6
X1.25Y-5.7
X1.25Y-5.8
X1.25Y-5.9
X1.25Y-6.0
X1.25Y-6.1
X1.25Y-6.2
X1.25Y-6.3
X1.25Y-6.4
X1.25Y-6.5
X1.25Y-6.6
X1.95Y-1.3
X1.95Y-1.4
X1.95Y-1.5
X1.95Y-1.6
X1.95Y-1.7
X1.95Y-1.8
X1.95Y-1.9
X1.95Y-2.0
X1.95Y-2.1
X1.95Y-2.2
X1.95Y-2.3
X1.95Y-2.4
X1.95Y-2.5
X1.95Y-2.6
X1.95Y-2.7
X1.95Y-2.8
X1.95Y-2.9
X1.95Y-3.0
X1.95Y-3.1
X1.95Y-3.2
X1.95Y-3.3
X1.95Y-3.4
X1.95Y-3.5
X1.95Y-3.6
X1.95Y-3.7
X1.95Y-3.8
X1.95Y-3.9
X1.95Y-4.0
X1.95Y-4.1
X1.95Y-4.2
X1.95Y-4.3
X1.95Y-4.4
X1.95Y-4.5
X1.95Y-4.6
X1.95Y-4.7
X1.95Y-4.8
X1.95Y-4.9
X1.95Y-5.0
X1.95Y-5.1
X1.95Y-5.2
X1.95Y-5.3
X1.95Y-5.4
X1.95Y-5.5
X1.95Y-5.6
X1.95Y-5.7
X1.95Y-5.8
X1.95Y-5.9
X1.95Y-6.0
X1.95Y-6.1
X1.95Y-6.2
X1.95Y-6.3
X1.95Y-6.4
X1.95Y-6.5
X1.95Y-6.6
X2.65Y-1.3
X2.65Y-1.4
X2.65Y-1.5
X2.65Y-1.6
X2.65Y-1.7
X2.65Y-1.8
X2.65Y-1.9
X2.65Y-2.0
X2.65Y-2.1
X2.65Y-2.2
X2.65Y-2.3
X2.65Y-2.4
X2.65Y-2.5
X2.65Y-2.6
X2.65Y-2.7
X2.65Y-2.8
X2.65Y-2.9
X2.65Y-3.0
X2.65Y-3.1
X2.65Y-3.2
X2.65Y-3.3
X2.65Y-3.4
X2.65Y-3.5
X2.65Y-3.6
X2.65Y-3.7
X2.65Y-3.8
X2.65Y-3.9
X2.65Y-4.0
X2.65Y-4.1
X2.65Y-4.2
X2.65Y-4.3
X2.65Y-4.4
X2.65Y-4.5
X2.65Y-4.6
X2.65Y-4.7
X2.65Y-4.8
X2.65Y-4.9
X2.65Y-5.0
X2.65Y-5.1
X2.65Y-5.2
X2.65Y-5.3
X2.65Y-5.4
X2.65Y-5.5
X2.65Y-5.6
X2.65Y-5.7
X2.65Y-5.8
X2.65Y-5.9
X2.65Y-6.0
X2.65Y-6.1
X2.65Y-6.2
X2.65Y-6.3
X2.65Y-6.4
X2.65Y-6.5
X2.65Y-6.6
X3.35Y-1.3
X3.35Y-1.4
X3.35Y-1.5
X3.35Y-1.6
X3.35Y-1.7
X3.35Y-1.8
X3.35Y-1.9
X3.35Y-2.0
X3.35Y-2.1
X3.35Y-2.2
X3.35Y-2.3
X3.35Y-2.4
X3.35Y-2.5
X3.35Y-2.6
X3.35Y-2.7
X3.35Y-2.8
X3.35Y-2.9
X3.35Y-3.0
X3.35Y-3.1
X3.35Y-3.2
X3.35Y-3.3
X3.35Y-3.4
X3.35Y-3.5
X3.35Y-3.6
X3.35Y-3.7
X3.35Y-3.8
X3.35Y-3.9
X3.35Y-4.0
X3.35Y-4.1
X3.35Y-4.2
X3.35Y-4.3
X3.35Y-4.4
X3.35Y-4.5
X3.35Y-4.6
X3.35Y-4.7
X3.35Y-4.8
X3.35Y-4.9
X3.35Y-5.0
X3.35Y-5.1
X3.35Y-5.2
X3.35Y-5.3
X3.35Y-5.4
X3.35Y-5.5
X3.35Y-5.6
X3.35Y-5.7
X3.35Y-5.8
X3.35Y-5.9
X3.35Y-6.0
X3.35Y-6.1
X3.35Y-6.2
X3.35Y-6.3
X3.35Y-6.4
X3.35Y-6.5
X3.35Y-6.6
X4.05Y-1.3
X4.05Y-1.4
X4.05Y-1.5
X4.05Y-1.6
X4.05Y-1.7
X4.05Y-1.8
X4.05Y-1.9
X4.05Y-2.0
X4.05Y-2.1
X4.05Y-2.2
X4.05Y-2.3
X4.05Y-2.4
X4.05Y-2.5
X4.05Y-2.6
X4.05Y-2.7
X4.05Y-2.8
X4.05Y-2.9
X4.05Y-3.0
X4.05Y-3.1
X4.05Y-3.2
X4.05Y-3.3
X4.05Y-3.4
X4.05Y-3.5
X4.05Y-3.6
X4.05Y-3.7
X4.05Y-3.8
X4.05Y-3.9
X4.05Y-4.0
X4.05Y-4.1
X4.05Y-4.2
X4.05Y-4.3
X4.05Y-4.4
X4.05Y-4.5
X4.05Y-4.6
X4.05Y-4.7
X4.05Y-4.8
X4.05Y-4.9
X4.05Y-5.0
X4.05Y-5.1
X4.05Y-5.2
X4.05Y-5.3
X4.05Y-5.4
X4.05Y-5.5
X4.05Y-5.6
X4.05Y-5.7
X4.05Y-5.8
X4.05Y-5.9
X4.05Y-6.0
X4.05Y-6.1
X4.05Y-6.2
X4.05Y-6.3
X4.05Y-6.4
X4.05Y-6.5
X4.05Y-6.6
X4.75Y-1.3
X4.75Y-1.4
X4.75Y-1.5
X4.75Y-1.6
X4.75Y-1.7
X4.75Y-1.8
X4.75Y-1.9
X4.75Y-2.0
X4.75Y-2.1
X4.75Y-2.2
X4.75Y-2.3
X4.75Y-2.4
X4.75Y-2.5
X4.75Y-2.6
X4.75Y-2.7
X4.75Y-2.8
X4.75Y-2.9
X4.75Y-3.0
X4.75Y-3.1
X4.75Y-3.2
X4.75Y-3.3
X4.75Y-3.4
X4.75Y-3.5
X4.75Y-3.6
X4.75Y-3.7
X4.75Y-3.8
X4.75Y-3.9
X4.75Y-4.0
X4.75Y-4.1
X4.75Y-4.2
X4.75Y-4.3
X4.75Y-4.4
X4.75Y-4.5
X4.75Y-4.6
X4.75Y-4.7
X4.75Y-4.8
X4.75Y-4.9
X4.75Y-5.0
X4.75Y-5.1
X4.75Y-5.2
X4.75Y-5.3
X4.75Y-5.4
X4.75Y-5.5
X4.75Y-5.6
X4.75Y-5.7
X4.75Y-5.8
X4.75Y-5.9
X4.75Y-6.0
X4.75Y-6.1
X4.75Y-6.2
X4.75Y-6.3
X4.75Y-6.4
X4.75Y-6.5
X4.75Y-6.6
X4.9Y-1.3
X4.9Y-1.4
X4.9Y-1.5
X4.9Y-1.6
X4.9Y-1.7
X4.9Y-1.8
X4.9Y-1.9
X4.9Y-2.0
X4.9Y-2.1
X4.9Y-2.2
X4.9Y-2.3
X4.9Y-2.4
X4.9Y-2.5
X4.9Y-2.6
X4.9Y-2.7
X4.9Y-2.8
X4.9Y-2.9
X4.9Y-3.0
X4.9Y-3.1
X4.9Y-3.2
X4.9Y-3.3
X4.9Y-3.4
X4.9Y-3.5
X4.9Y-3.6
X4.9Y-3.7
X4.9Y-3.8
X4.9Y-3.9
X4.9Y-4.0
X4.9Y-4.1
X4.9Y-4.2
X4.9Y-4.3
X4.9Y-4.4
X4.9Y-4.5
X4.9Y-4.6
X4.9Y-4.7
X4.9Y-4.8
X4.9Y-4.9
X4.9Y-5.0
X4.9Y-5.1
X4.9Y-5.2
X4.9Y-5.3
X4.9Y-5.4
X4.9Y-5.5
X4.9Y-5.6
X4.9Y-5.7
X4.9Y-5.8
X4.9Y-5.9
X4.9Y-6.0
X4.9Y-6.1
X4.9Y-6.2
X4.9Y-6.3
X4.9Y-6.4
X4.9Y-6.5
X4.9Y-6.6
T2
X1.175Y-1.1
X1.175Y-6.8591
X3.025Y-1.1
X3.025Y-6.8591
X4.825Y-1.1
X4.825Y-6.8591
T0
M30
