%TF.GenerationSoftware,KiCad,Pcbnew,6.0.2+dfsg-1*%
%TF.CreationDate,2024-07-15T20:38:23+02:00*%
%TF.ProjectId,BUS_Rebuild,4255535f-5265-4627-9569-6c642e6b6963,rev?*%
%TF.SameCoordinates,Original*%
%TF.FileFunction,Soldermask,Top*%
%TF.FilePolarity,Negative*%
%FSLAX46Y46*%
G04 Gerber Fmt 4.6, Leading zero omitted, Abs format (unit mm)*
G04 Created by KiCad (PCBNEW 6.0.2+dfsg-1) date 2024-07-15 20:38:23*
%MOMM*%
%LPD*%
G01*
G04 APERTURE LIST*
%ADD10C,5.000000*%
%ADD11R,1.700000X1.700000*%
%ADD12O,1.700000X1.700000*%
G04 APERTURE END LIST*
D10*
%TO.C,REF\u002A\u002A*%
X29845000Y-174220000D03*
%TD*%
%TO.C,REF\u002A\u002A*%
X76835000Y-174220000D03*
%TD*%
%TO.C,REF\u002A\u002A*%
X122555000Y-174220000D03*
%TD*%
%TO.C,REF\u002A\u002A*%
X29845000Y-27940000D03*
%TD*%
%TO.C,REF\u002A\u002A*%
X76835000Y-27940000D03*
%TD*%
%TO.C,REF\u002A\u002A*%
X122555000Y-27940000D03*
%TD*%
D11*
%TO.C,J4_A1*%
X67310000Y-33020000D03*
D12*
X67310000Y-35560000D03*
X67310000Y-38100000D03*
X67310000Y-40640000D03*
X67310000Y-43180000D03*
X67310000Y-45720000D03*
X67310000Y-48260000D03*
X67310000Y-50800000D03*
X67310000Y-53340000D03*
X67310000Y-55880000D03*
X67310000Y-58420000D03*
X67310000Y-60960000D03*
X67310000Y-63500000D03*
X67310000Y-66040000D03*
X67310000Y-68580000D03*
X67310000Y-71120000D03*
X67310000Y-73660000D03*
X67310000Y-76200000D03*
X67310000Y-78740000D03*
X67310000Y-81280000D03*
X67310000Y-83820000D03*
X67310000Y-86360000D03*
X67310000Y-88900000D03*
X67310000Y-91440000D03*
X67310000Y-93980000D03*
X67310000Y-96520000D03*
X67310000Y-99060000D03*
X67310000Y-101600000D03*
X67310000Y-104140000D03*
X67310000Y-106680000D03*
X67310000Y-109220000D03*
X67310000Y-111760000D03*
X67310000Y-114300000D03*
%TD*%
D11*
%TO.C,J8_A1*%
X124460000Y-33020000D03*
D12*
X124460000Y-35560000D03*
X124460000Y-38100000D03*
X124460000Y-40640000D03*
X124460000Y-43180000D03*
X124460000Y-45720000D03*
X124460000Y-48260000D03*
X124460000Y-50800000D03*
X124460000Y-53340000D03*
X124460000Y-55880000D03*
X124460000Y-58420000D03*
X124460000Y-60960000D03*
X124460000Y-63500000D03*
X124460000Y-66040000D03*
X124460000Y-68580000D03*
X124460000Y-71120000D03*
X124460000Y-73660000D03*
X124460000Y-76200000D03*
X124460000Y-78740000D03*
X124460000Y-81280000D03*
X124460000Y-83820000D03*
X124460000Y-86360000D03*
X124460000Y-88900000D03*
X124460000Y-91440000D03*
X124460000Y-93980000D03*
X124460000Y-96520000D03*
X124460000Y-99060000D03*
X124460000Y-101600000D03*
X124460000Y-104140000D03*
X124460000Y-106680000D03*
X124460000Y-109220000D03*
X124460000Y-111760000D03*
X124460000Y-114300000D03*
%TD*%
D11*
%TO.C,J2_A1*%
X31750000Y-33020000D03*
D12*
X31750000Y-35560000D03*
X31750000Y-38100000D03*
X31750000Y-40640000D03*
X31750000Y-43180000D03*
X31750000Y-45720000D03*
X31750000Y-48260000D03*
X31750000Y-50800000D03*
X31750000Y-53340000D03*
X31750000Y-55880000D03*
X31750000Y-58420000D03*
X31750000Y-60960000D03*
X31750000Y-63500000D03*
X31750000Y-66040000D03*
X31750000Y-68580000D03*
X31750000Y-71120000D03*
X31750000Y-73660000D03*
X31750000Y-76200000D03*
X31750000Y-78740000D03*
X31750000Y-81280000D03*
X31750000Y-83820000D03*
X31750000Y-86360000D03*
X31750000Y-88900000D03*
X31750000Y-91440000D03*
X31750000Y-93980000D03*
X31750000Y-96520000D03*
X31750000Y-99060000D03*
X31750000Y-101600000D03*
X31750000Y-104140000D03*
X31750000Y-106680000D03*
X31750000Y-109220000D03*
X31750000Y-111760000D03*
X31750000Y-114300000D03*
%TD*%
D11*
%TO.C,J6_B1*%
X102870000Y-116840000D03*
D12*
X102870000Y-119380000D03*
X102870000Y-121920000D03*
X102870000Y-124460000D03*
X102870000Y-127000000D03*
X102870000Y-129540000D03*
X102870000Y-132080000D03*
X102870000Y-134620000D03*
X102870000Y-137160000D03*
X102870000Y-139700000D03*
X102870000Y-142240000D03*
X102870000Y-144780000D03*
X102870000Y-147320000D03*
X102870000Y-149860000D03*
X102870000Y-152400000D03*
X102870000Y-154940000D03*
X102870000Y-157480000D03*
X102870000Y-160020000D03*
X102870000Y-162560000D03*
X102870000Y-165100000D03*
X102870000Y-167640000D03*
%TD*%
D11*
%TO.C,J7_B1*%
X120650000Y-116840000D03*
D12*
X120650000Y-119380000D03*
X120650000Y-121920000D03*
X120650000Y-124460000D03*
X120650000Y-127000000D03*
X120650000Y-129540000D03*
X120650000Y-132080000D03*
X120650000Y-134620000D03*
X120650000Y-137160000D03*
X120650000Y-139700000D03*
X120650000Y-142240000D03*
X120650000Y-144780000D03*
X120650000Y-147320000D03*
X120650000Y-149860000D03*
X120650000Y-152400000D03*
X120650000Y-154940000D03*
X120650000Y-157480000D03*
X120650000Y-160020000D03*
X120650000Y-162560000D03*
X120650000Y-165100000D03*
X120650000Y-167640000D03*
%TD*%
D11*
%TO.C,J3_B1*%
X49530000Y-116840000D03*
D12*
X49530000Y-119380000D03*
X49530000Y-121920000D03*
X49530000Y-124460000D03*
X49530000Y-127000000D03*
X49530000Y-129540000D03*
X49530000Y-132080000D03*
X49530000Y-134620000D03*
X49530000Y-137160000D03*
X49530000Y-139700000D03*
X49530000Y-142240000D03*
X49530000Y-144780000D03*
X49530000Y-147320000D03*
X49530000Y-149860000D03*
X49530000Y-152400000D03*
X49530000Y-154940000D03*
X49530000Y-157480000D03*
X49530000Y-160020000D03*
X49530000Y-162560000D03*
X49530000Y-165100000D03*
X49530000Y-167640000D03*
%TD*%
D11*
%TO.C,J1_A1*%
X27940000Y-33020000D03*
D12*
X27940000Y-35560000D03*
X27940000Y-38100000D03*
X27940000Y-40640000D03*
X27940000Y-43180000D03*
X27940000Y-45720000D03*
X27940000Y-48260000D03*
X27940000Y-50800000D03*
X27940000Y-53340000D03*
X27940000Y-55880000D03*
X27940000Y-58420000D03*
X27940000Y-60960000D03*
X27940000Y-63500000D03*
X27940000Y-66040000D03*
X27940000Y-68580000D03*
X27940000Y-71120000D03*
X27940000Y-73660000D03*
X27940000Y-76200000D03*
X27940000Y-78740000D03*
X27940000Y-81280000D03*
X27940000Y-83820000D03*
X27940000Y-86360000D03*
X27940000Y-88900000D03*
X27940000Y-91440000D03*
X27940000Y-93980000D03*
X27940000Y-96520000D03*
X27940000Y-99060000D03*
X27940000Y-101600000D03*
X27940000Y-104140000D03*
X27940000Y-106680000D03*
X27940000Y-109220000D03*
X27940000Y-111760000D03*
X27940000Y-114300000D03*
%TD*%
D11*
%TO.C,J1_B1*%
X27940000Y-116840000D03*
D12*
X27940000Y-119380000D03*
X27940000Y-121920000D03*
X27940000Y-124460000D03*
X27940000Y-127000000D03*
X27940000Y-129540000D03*
X27940000Y-132080000D03*
X27940000Y-134620000D03*
X27940000Y-137160000D03*
X27940000Y-139700000D03*
X27940000Y-142240000D03*
X27940000Y-144780000D03*
X27940000Y-147320000D03*
X27940000Y-149860000D03*
X27940000Y-152400000D03*
X27940000Y-154940000D03*
X27940000Y-157480000D03*
X27940000Y-160020000D03*
X27940000Y-162560000D03*
X27940000Y-165100000D03*
X27940000Y-167640000D03*
%TD*%
D11*
%TO.C,J4_B1*%
X67310000Y-116840000D03*
D12*
X67310000Y-119380000D03*
X67310000Y-121920000D03*
X67310000Y-124460000D03*
X67310000Y-127000000D03*
X67310000Y-129540000D03*
X67310000Y-132080000D03*
X67310000Y-134620000D03*
X67310000Y-137160000D03*
X67310000Y-139700000D03*
X67310000Y-142240000D03*
X67310000Y-144780000D03*
X67310000Y-147320000D03*
X67310000Y-149860000D03*
X67310000Y-152400000D03*
X67310000Y-154940000D03*
X67310000Y-157480000D03*
X67310000Y-160020000D03*
X67310000Y-162560000D03*
X67310000Y-165100000D03*
X67310000Y-167640000D03*
%TD*%
D11*
%TO.C,J2_B1*%
X31750000Y-116840000D03*
D12*
X31750000Y-119380000D03*
X31750000Y-121920000D03*
X31750000Y-124460000D03*
X31750000Y-127000000D03*
X31750000Y-129540000D03*
X31750000Y-132080000D03*
X31750000Y-134620000D03*
X31750000Y-137160000D03*
X31750000Y-139700000D03*
X31750000Y-142240000D03*
X31750000Y-144780000D03*
X31750000Y-147320000D03*
X31750000Y-149860000D03*
X31750000Y-152400000D03*
X31750000Y-154940000D03*
X31750000Y-157480000D03*
X31750000Y-160020000D03*
X31750000Y-162560000D03*
X31750000Y-165100000D03*
X31750000Y-167640000D03*
%TD*%
D11*
%TO.C,J3_A1*%
X49530000Y-33020000D03*
D12*
X49530000Y-35560000D03*
X49530000Y-38100000D03*
X49530000Y-40640000D03*
X49530000Y-43180000D03*
X49530000Y-45720000D03*
X49530000Y-48260000D03*
X49530000Y-50800000D03*
X49530000Y-53340000D03*
X49530000Y-55880000D03*
X49530000Y-58420000D03*
X49530000Y-60960000D03*
X49530000Y-63500000D03*
X49530000Y-66040000D03*
X49530000Y-68580000D03*
X49530000Y-71120000D03*
X49530000Y-73660000D03*
X49530000Y-76200000D03*
X49530000Y-78740000D03*
X49530000Y-81280000D03*
X49530000Y-83820000D03*
X49530000Y-86360000D03*
X49530000Y-88900000D03*
X49530000Y-91440000D03*
X49530000Y-93980000D03*
X49530000Y-96520000D03*
X49530000Y-99060000D03*
X49530000Y-101600000D03*
X49530000Y-104140000D03*
X49530000Y-106680000D03*
X49530000Y-109220000D03*
X49530000Y-111760000D03*
X49530000Y-114300000D03*
%TD*%
D11*
%TO.C,J5_A1*%
X85090000Y-33020000D03*
D12*
X85090000Y-35560000D03*
X85090000Y-38100000D03*
X85090000Y-40640000D03*
X85090000Y-43180000D03*
X85090000Y-45720000D03*
X85090000Y-48260000D03*
X85090000Y-50800000D03*
X85090000Y-53340000D03*
X85090000Y-55880000D03*
X85090000Y-58420000D03*
X85090000Y-60960000D03*
X85090000Y-63500000D03*
X85090000Y-66040000D03*
X85090000Y-68580000D03*
X85090000Y-71120000D03*
X85090000Y-73660000D03*
X85090000Y-76200000D03*
X85090000Y-78740000D03*
X85090000Y-81280000D03*
X85090000Y-83820000D03*
X85090000Y-86360000D03*
X85090000Y-88900000D03*
X85090000Y-91440000D03*
X85090000Y-93980000D03*
X85090000Y-96520000D03*
X85090000Y-99060000D03*
X85090000Y-101600000D03*
X85090000Y-104140000D03*
X85090000Y-106680000D03*
X85090000Y-109220000D03*
X85090000Y-111760000D03*
X85090000Y-114300000D03*
%TD*%
D11*
%TO.C,J7_A1*%
X120650000Y-33020000D03*
D12*
X120650000Y-35560000D03*
X120650000Y-38100000D03*
X120650000Y-40640000D03*
X120650000Y-43180000D03*
X120650000Y-45720000D03*
X120650000Y-48260000D03*
X120650000Y-50800000D03*
X120650000Y-53340000D03*
X120650000Y-55880000D03*
X120650000Y-58420000D03*
X120650000Y-60960000D03*
X120650000Y-63500000D03*
X120650000Y-66040000D03*
X120650000Y-68580000D03*
X120650000Y-71120000D03*
X120650000Y-73660000D03*
X120650000Y-76200000D03*
X120650000Y-78740000D03*
X120650000Y-81280000D03*
X120650000Y-83820000D03*
X120650000Y-86360000D03*
X120650000Y-88900000D03*
X120650000Y-91440000D03*
X120650000Y-93980000D03*
X120650000Y-96520000D03*
X120650000Y-99060000D03*
X120650000Y-101600000D03*
X120650000Y-104140000D03*
X120650000Y-106680000D03*
X120650000Y-109220000D03*
X120650000Y-111760000D03*
X120650000Y-114300000D03*
%TD*%
D11*
%TO.C,J5_B1*%
X85090000Y-116840000D03*
D12*
X85090000Y-119380000D03*
X85090000Y-121920000D03*
X85090000Y-124460000D03*
X85090000Y-127000000D03*
X85090000Y-129540000D03*
X85090000Y-132080000D03*
X85090000Y-134620000D03*
X85090000Y-137160000D03*
X85090000Y-139700000D03*
X85090000Y-142240000D03*
X85090000Y-144780000D03*
X85090000Y-147320000D03*
X85090000Y-149860000D03*
X85090000Y-152400000D03*
X85090000Y-154940000D03*
X85090000Y-157480000D03*
X85090000Y-160020000D03*
X85090000Y-162560000D03*
X85090000Y-165100000D03*
X85090000Y-167640000D03*
%TD*%
D11*
%TO.C,J8_B1*%
X124460000Y-116840000D03*
D12*
X124460000Y-119380000D03*
X124460000Y-121920000D03*
X124460000Y-124460000D03*
X124460000Y-127000000D03*
X124460000Y-129540000D03*
X124460000Y-132080000D03*
X124460000Y-134620000D03*
X124460000Y-137160000D03*
X124460000Y-139700000D03*
X124460000Y-142240000D03*
X124460000Y-144780000D03*
X124460000Y-147320000D03*
X124460000Y-149860000D03*
X124460000Y-152400000D03*
X124460000Y-154940000D03*
X124460000Y-157480000D03*
X124460000Y-160020000D03*
X124460000Y-162560000D03*
X124460000Y-165100000D03*
X124460000Y-167640000D03*
%TD*%
D11*
%TO.C,J6_A1*%
X102870000Y-33020000D03*
D12*
X102870000Y-35560000D03*
X102870000Y-38100000D03*
X102870000Y-40640000D03*
X102870000Y-43180000D03*
X102870000Y-45720000D03*
X102870000Y-48260000D03*
X102870000Y-50800000D03*
X102870000Y-53340000D03*
X102870000Y-55880000D03*
X102870000Y-58420000D03*
X102870000Y-60960000D03*
X102870000Y-63500000D03*
X102870000Y-66040000D03*
X102870000Y-68580000D03*
X102870000Y-71120000D03*
X102870000Y-73660000D03*
X102870000Y-76200000D03*
X102870000Y-78740000D03*
X102870000Y-81280000D03*
X102870000Y-83820000D03*
X102870000Y-86360000D03*
X102870000Y-88900000D03*
X102870000Y-91440000D03*
X102870000Y-93980000D03*
X102870000Y-96520000D03*
X102870000Y-99060000D03*
X102870000Y-101600000D03*
X102870000Y-104140000D03*
X102870000Y-106680000D03*
X102870000Y-109220000D03*
X102870000Y-111760000D03*
X102870000Y-114300000D03*
%TD*%
M02*
