%TF.GenerationSoftware,KiCad,Pcbnew,6.0.2+dfsg-1*%
%TF.CreationDate,2024-07-15T20:38:21+02:00*%
%TF.ProjectId,BUS_Rebuild,4255535f-5265-4627-9569-6c642e6b6963,rev?*%
%TF.SameCoordinates,Original*%
%TF.FileFunction,Copper,L2,Bot*%
%TF.FilePolarity,Positive*%
%FSLAX46Y46*%
G04 Gerber Fmt 4.6, Leading zero omitted, Abs format (unit mm)*
G04 Created by KiCad (PCBNEW 6.0.2+dfsg-1) date 2024-07-15 20:38:21*
%MOMM*%
%LPD*%
G01*
G04 APERTURE LIST*
%TA.AperFunction,ComponentPad*%
%ADD10C,5.000000*%
%TD*%
%TA.AperFunction,ComponentPad*%
%ADD11R,1.700000X1.700000*%
%TD*%
%TA.AperFunction,ComponentPad*%
%ADD12O,1.700000X1.700000*%
%TD*%
%TA.AperFunction,Conductor*%
%ADD13C,0.250000*%
%TD*%
G04 APERTURE END LIST*
D10*
%TO.P,REF\u002A\u002A,6*%
%TO.N,N/C*%
X29845000Y-174220000D03*
%TD*%
%TO.P,REF\u002A\u002A,5*%
%TO.N,N/C*%
X76835000Y-174220000D03*
%TD*%
%TO.P,REF\u002A\u002A,4*%
%TO.N,N/C*%
X122555000Y-174220000D03*
%TD*%
%TO.P,REF\u002A\u002A,3*%
%TO.N,N/C*%
X29845000Y-27940000D03*
%TD*%
%TO.P,REF\u002A\u002A,2*%
%TO.N,N/C*%
X76835000Y-27940000D03*
%TD*%
%TO.P,REF\u002A\u002A,1*%
%TO.N,N/C*%
X122555000Y-27940000D03*
%TD*%
D11*
%TO.P,J4_A1,1,Pin_1*%
%TO.N,-5V*%
X67310000Y-33020000D03*
D12*
%TO.P,J4_A1,2,Pin_2*%
%TO.N,+12V*%
X67310000Y-35560000D03*
%TO.P,J4_A1,3,Pin_3*%
%TO.N,-12V*%
X67310000Y-38100000D03*
%TO.P,J4_A1,4,Pin_4*%
%TO.N,+5V*%
X67310000Y-40640000D03*
%TO.P,J4_A1,5,Pin_5*%
X67310000Y-43180000D03*
%TO.P,J4_A1,6,Pin_6*%
%TO.N,GND*%
X67310000Y-45720000D03*
%TO.P,J4_A1,7,Pin_7*%
X67310000Y-48260000D03*
%TO.P,J4_A1,8,Pin_8*%
%TO.N,/D0*%
X67310000Y-50800000D03*
%TO.P,J4_A1,9,Pin_9*%
%TO.N,/D1*%
X67310000Y-53340000D03*
%TO.P,J4_A1,10,Pin_10*%
%TO.N,/D2*%
X67310000Y-55880000D03*
%TO.P,J4_A1,11,Pin_11*%
%TO.N,/D3*%
X67310000Y-58420000D03*
%TO.P,J4_A1,12,Pin_12*%
%TO.N,/D4*%
X67310000Y-60960000D03*
%TO.P,J4_A1,13,Pin_13*%
%TO.N,/D5*%
X67310000Y-63500000D03*
%TO.P,J4_A1,14,Pin_14*%
%TO.N,/D6*%
X67310000Y-66040000D03*
%TO.P,J4_A1,15,Pin_15*%
%TO.N,/D7*%
X67310000Y-68580000D03*
%TO.P,J4_A1,16,Pin_16*%
%TO.N,/~{RD}*%
X67310000Y-71120000D03*
%TO.P,J4_A1,17,Pin_17*%
%TO.N,/~{WR}*%
X67310000Y-73660000D03*
%TO.P,J4_A1,18,Pin_18*%
%TO.N,/~{IORQ}*%
X67310000Y-76200000D03*
%TO.P,J4_A1,19,Pin_19*%
%TO.N,/~{MREQ}*%
X67310000Y-78740000D03*
%TO.P,J4_A1,20,Pin_20*%
%TO.N,/A0*%
X67310000Y-81280000D03*
%TO.P,J4_A1,21,Pin_21*%
%TO.N,/A1*%
X67310000Y-83820000D03*
%TO.P,J4_A1,22,Pin_22*%
%TO.N,/A2*%
X67310000Y-86360000D03*
%TO.P,J4_A1,23,Pin_23*%
%TO.N,/A3*%
X67310000Y-88900000D03*
%TO.P,J4_A1,24,Pin_24*%
%TO.N,/A4*%
X67310000Y-91440000D03*
%TO.P,J4_A1,25,Pin_25*%
%TO.N,/A5*%
X67310000Y-93980000D03*
%TO.P,J4_A1,26,Pin_26*%
%TO.N,/A6*%
X67310000Y-96520000D03*
%TO.P,J4_A1,27,Pin_27*%
%TO.N,/A7*%
X67310000Y-99060000D03*
%TO.P,J4_A1,28,Pin_28*%
%TO.N,/~{RESET}*%
X67310000Y-101600000D03*
%TO.P,J4_A1,29,Pin_29*%
%TO.N,/~{M1}*%
X67310000Y-104140000D03*
%TO.P,J4_A1,30,Pin_30*%
%TO.N,/~{PHI}*%
X67310000Y-106680000D03*
%TO.P,J4_A1,31,Pin_31*%
%TO.N,/~{RFSH}*%
X67310000Y-109220000D03*
%TO.P,J4_A1,32,Pin_32*%
%TO.N,/~{INT}*%
X67310000Y-111760000D03*
%TO.P,J4_A1,33,Pin_33*%
%TO.N,/~{WAIT}*%
X67310000Y-114300000D03*
%TD*%
D11*
%TO.P,J8_A1,1,Pin_1*%
%TO.N,-5V*%
X124460000Y-33020000D03*
D12*
%TO.P,J8_A1,2,Pin_2*%
%TO.N,+12V*%
X124460000Y-35560000D03*
%TO.P,J8_A1,3,Pin_3*%
%TO.N,-12V*%
X124460000Y-38100000D03*
%TO.P,J8_A1,4,Pin_4*%
%TO.N,+5V*%
X124460000Y-40640000D03*
%TO.P,J8_A1,5,Pin_5*%
X124460000Y-43180000D03*
%TO.P,J8_A1,6,Pin_6*%
%TO.N,GND*%
X124460000Y-45720000D03*
%TO.P,J8_A1,7,Pin_7*%
X124460000Y-48260000D03*
%TO.P,J8_A1,8,Pin_8*%
%TO.N,/D0*%
X124460000Y-50800000D03*
%TO.P,J8_A1,9,Pin_9*%
%TO.N,/D1*%
X124460000Y-53340000D03*
%TO.P,J8_A1,10,Pin_10*%
%TO.N,/D2*%
X124460000Y-55880000D03*
%TO.P,J8_A1,11,Pin_11*%
%TO.N,/D3*%
X124460000Y-58420000D03*
%TO.P,J8_A1,12,Pin_12*%
%TO.N,/D4*%
X124460000Y-60960000D03*
%TO.P,J8_A1,13,Pin_13*%
%TO.N,/D5*%
X124460000Y-63500000D03*
%TO.P,J8_A1,14,Pin_14*%
%TO.N,/D6*%
X124460000Y-66040000D03*
%TO.P,J8_A1,15,Pin_15*%
%TO.N,/D7*%
X124460000Y-68580000D03*
%TO.P,J8_A1,16,Pin_16*%
%TO.N,/~{RD}*%
X124460000Y-71120000D03*
%TO.P,J8_A1,17,Pin_17*%
%TO.N,/~{WR}*%
X124460000Y-73660000D03*
%TO.P,J8_A1,18,Pin_18*%
%TO.N,/~{IORQ}*%
X124460000Y-76200000D03*
%TO.P,J8_A1,19,Pin_19*%
%TO.N,/~{MREQ}*%
X124460000Y-78740000D03*
%TO.P,J8_A1,20,Pin_20*%
%TO.N,/A0*%
X124460000Y-81280000D03*
%TO.P,J8_A1,21,Pin_21*%
%TO.N,/A1*%
X124460000Y-83820000D03*
%TO.P,J8_A1,22,Pin_22*%
%TO.N,/A2*%
X124460000Y-86360000D03*
%TO.P,J8_A1,23,Pin_23*%
%TO.N,/A3*%
X124460000Y-88900000D03*
%TO.P,J8_A1,24,Pin_24*%
%TO.N,/A4*%
X124460000Y-91440000D03*
%TO.P,J8_A1,25,Pin_25*%
%TO.N,/A5*%
X124460000Y-93980000D03*
%TO.P,J8_A1,26,Pin_26*%
%TO.N,/A6*%
X124460000Y-96520000D03*
%TO.P,J8_A1,27,Pin_27*%
%TO.N,/A7*%
X124460000Y-99060000D03*
%TO.P,J8_A1,28,Pin_28*%
%TO.N,/~{RESET}*%
X124460000Y-101600000D03*
%TO.P,J8_A1,29,Pin_29*%
%TO.N,/~{M1}*%
X124460000Y-104140000D03*
%TO.P,J8_A1,30,Pin_30*%
%TO.N,/~{PHI}*%
X124460000Y-106680000D03*
%TO.P,J8_A1,31,Pin_31*%
%TO.N,/~{RFSH}*%
X124460000Y-109220000D03*
%TO.P,J8_A1,32,Pin_32*%
%TO.N,/~{INT}*%
X124460000Y-111760000D03*
%TO.P,J8_A1,33,Pin_33*%
%TO.N,/~{WAIT}*%
X124460000Y-114300000D03*
%TD*%
D11*
%TO.P,J2_A1,1,Pin_1*%
%TO.N,-5V*%
X31750000Y-33020000D03*
D12*
%TO.P,J2_A1,2,Pin_2*%
%TO.N,+12V*%
X31750000Y-35560000D03*
%TO.P,J2_A1,3,Pin_3*%
%TO.N,-12V*%
X31750000Y-38100000D03*
%TO.P,J2_A1,4,Pin_4*%
%TO.N,+5V*%
X31750000Y-40640000D03*
%TO.P,J2_A1,5,Pin_5*%
X31750000Y-43180000D03*
%TO.P,J2_A1,6,Pin_6*%
%TO.N,GND*%
X31750000Y-45720000D03*
%TO.P,J2_A1,7,Pin_7*%
X31750000Y-48260000D03*
%TO.P,J2_A1,8,Pin_8*%
%TO.N,/D0*%
X31750000Y-50800000D03*
%TO.P,J2_A1,9,Pin_9*%
%TO.N,/D1*%
X31750000Y-53340000D03*
%TO.P,J2_A1,10,Pin_10*%
%TO.N,/D2*%
X31750000Y-55880000D03*
%TO.P,J2_A1,11,Pin_11*%
%TO.N,/D3*%
X31750000Y-58420000D03*
%TO.P,J2_A1,12,Pin_12*%
%TO.N,/D4*%
X31750000Y-60960000D03*
%TO.P,J2_A1,13,Pin_13*%
%TO.N,/D5*%
X31750000Y-63500000D03*
%TO.P,J2_A1,14,Pin_14*%
%TO.N,/D6*%
X31750000Y-66040000D03*
%TO.P,J2_A1,15,Pin_15*%
%TO.N,/D7*%
X31750000Y-68580000D03*
%TO.P,J2_A1,16,Pin_16*%
%TO.N,/~{RD}*%
X31750000Y-71120000D03*
%TO.P,J2_A1,17,Pin_17*%
%TO.N,/~{WR}*%
X31750000Y-73660000D03*
%TO.P,J2_A1,18,Pin_18*%
%TO.N,/~{IORQ}*%
X31750000Y-76200000D03*
%TO.P,J2_A1,19,Pin_19*%
%TO.N,/~{MREQ}*%
X31750000Y-78740000D03*
%TO.P,J2_A1,20,Pin_20*%
%TO.N,/A0*%
X31750000Y-81280000D03*
%TO.P,J2_A1,21,Pin_21*%
%TO.N,/A1*%
X31750000Y-83820000D03*
%TO.P,J2_A1,22,Pin_22*%
%TO.N,/A2*%
X31750000Y-86360000D03*
%TO.P,J2_A1,23,Pin_23*%
%TO.N,/A3*%
X31750000Y-88900000D03*
%TO.P,J2_A1,24,Pin_24*%
%TO.N,/A4*%
X31750000Y-91440000D03*
%TO.P,J2_A1,25,Pin_25*%
%TO.N,/A5*%
X31750000Y-93980000D03*
%TO.P,J2_A1,26,Pin_26*%
%TO.N,/A6*%
X31750000Y-96520000D03*
%TO.P,J2_A1,27,Pin_27*%
%TO.N,/A7*%
X31750000Y-99060000D03*
%TO.P,J2_A1,28,Pin_28*%
%TO.N,/~{RESET}*%
X31750000Y-101600000D03*
%TO.P,J2_A1,29,Pin_29*%
%TO.N,/~{M1}*%
X31750000Y-104140000D03*
%TO.P,J2_A1,30,Pin_30*%
%TO.N,/~{PHI}*%
X31750000Y-106680000D03*
%TO.P,J2_A1,31,Pin_31*%
%TO.N,/~{RFSH}*%
X31750000Y-109220000D03*
%TO.P,J2_A1,32,Pin_32*%
%TO.N,/~{INT}*%
X31750000Y-111760000D03*
%TO.P,J2_A1,33,Pin_33*%
%TO.N,/~{WAIT}*%
X31750000Y-114300000D03*
%TD*%
D11*
%TO.P,J6_B1,1,Pin_1*%
%TO.N,/A8*%
X102870000Y-116840000D03*
D12*
%TO.P,J6_B1,2,Pin_2*%
%TO.N,/A9*%
X102870000Y-119380000D03*
%TO.P,J6_B1,3,Pin_3*%
%TO.N,/A10*%
X102870000Y-121920000D03*
%TO.P,J6_B1,4,Pin_4*%
%TO.N,/A11*%
X102870000Y-124460000D03*
%TO.P,J6_B1,5,Pin_5*%
%TO.N,/A12*%
X102870000Y-127000000D03*
%TO.P,J6_B1,6,Pin_6*%
%TO.N,/A13*%
X102870000Y-129540000D03*
%TO.P,J6_B1,7,Pin_7*%
%TO.N,/A14*%
X102870000Y-132080000D03*
%TO.P,J6_B1,8,Pin_8*%
%TO.N,/A15*%
X102870000Y-134620000D03*
%TO.P,J6_B1,9,Pin_9*%
%TO.N,/BANKEN*%
X102870000Y-137160000D03*
%TO.P,J6_B1,10,Pin_10*%
%TO.N,/~{BUSRQ}*%
X102870000Y-139700000D03*
%TO.P,J6_B1,11,Pin_11*%
%TO.N,/~{BUSAK}*%
X102870000Y-142240000D03*
%TO.P,J6_B1,12,Pin_12*%
%TO.N,/PI6*%
X102870000Y-144780000D03*
%TO.P,J6_B1,13,Pin_13*%
%TO.N,/PI5*%
X102870000Y-147320000D03*
%TO.P,J6_B1,14,Pin_14*%
%TO.N,/~{NMI}*%
X102870000Y-149860000D03*
%TO.P,J6_B1,15,Pin_15*%
%TO.N,/A16*%
X102870000Y-152400000D03*
%TO.P,J6_B1,16,Pin_16*%
%TO.N,/A17*%
X102870000Y-154940000D03*
%TO.P,J6_B1,17,Pin_17*%
%TO.N,/A18*%
X102870000Y-157480000D03*
%TO.P,J6_B1,18,Pin_18*%
%TO.N,/A19*%
X102870000Y-160020000D03*
%TO.P,J6_B1,19,Pin_19*%
%TO.N,GND*%
X102870000Y-162560000D03*
%TO.P,J6_B1,20,Pin_20*%
X102870000Y-165100000D03*
%TO.P,J6_B1,21,Pin_21*%
%TO.N,/RESERVE*%
X102870000Y-167640000D03*
%TD*%
D11*
%TO.P,J7_B1,1,Pin_1*%
%TO.N,/A8*%
X120650000Y-116840000D03*
D12*
%TO.P,J7_B1,2,Pin_2*%
%TO.N,/A9*%
X120650000Y-119380000D03*
%TO.P,J7_B1,3,Pin_3*%
%TO.N,/A10*%
X120650000Y-121920000D03*
%TO.P,J7_B1,4,Pin_4*%
%TO.N,/A11*%
X120650000Y-124460000D03*
%TO.P,J7_B1,5,Pin_5*%
%TO.N,/A12*%
X120650000Y-127000000D03*
%TO.P,J7_B1,6,Pin_6*%
%TO.N,/A13*%
X120650000Y-129540000D03*
%TO.P,J7_B1,7,Pin_7*%
%TO.N,/A14*%
X120650000Y-132080000D03*
%TO.P,J7_B1,8,Pin_8*%
%TO.N,/A15*%
X120650000Y-134620000D03*
%TO.P,J7_B1,9,Pin_9*%
%TO.N,/BANKEN*%
X120650000Y-137160000D03*
%TO.P,J7_B1,10,Pin_10*%
%TO.N,/~{BUSRQ}*%
X120650000Y-139700000D03*
%TO.P,J7_B1,11,Pin_11*%
%TO.N,/~{BUSAK}*%
X120650000Y-142240000D03*
%TO.P,J7_B1,12,Pin_12*%
%TO.N,/PI7*%
X120650000Y-144780000D03*
%TO.P,J7_B1,13,Pin_13*%
%TO.N,/PI6*%
X120650000Y-147320000D03*
%TO.P,J7_B1,14,Pin_14*%
%TO.N,/~{NMI}*%
X120650000Y-149860000D03*
%TO.P,J7_B1,15,Pin_15*%
%TO.N,/A16*%
X120650000Y-152400000D03*
%TO.P,J7_B1,16,Pin_16*%
%TO.N,/A17*%
X120650000Y-154940000D03*
%TO.P,J7_B1,17,Pin_17*%
%TO.N,/A18*%
X120650000Y-157480000D03*
%TO.P,J7_B1,18,Pin_18*%
%TO.N,/A19*%
X120650000Y-160020000D03*
%TO.P,J7_B1,19,Pin_19*%
%TO.N,GND*%
X120650000Y-162560000D03*
%TO.P,J7_B1,20,Pin_20*%
X120650000Y-165100000D03*
%TO.P,J7_B1,21,Pin_21*%
%TO.N,/RESERVE*%
X120650000Y-167640000D03*
%TD*%
D11*
%TO.P,J3_B1,1,Pin_1*%
%TO.N,/A8*%
X49530000Y-116840000D03*
D12*
%TO.P,J3_B1,2,Pin_2*%
%TO.N,/A9*%
X49530000Y-119380000D03*
%TO.P,J3_B1,3,Pin_3*%
%TO.N,/A10*%
X49530000Y-121920000D03*
%TO.P,J3_B1,4,Pin_4*%
%TO.N,/A11*%
X49530000Y-124460000D03*
%TO.P,J3_B1,5,Pin_5*%
%TO.N,/A12*%
X49530000Y-127000000D03*
%TO.P,J3_B1,6,Pin_6*%
%TO.N,/A13*%
X49530000Y-129540000D03*
%TO.P,J3_B1,7,Pin_7*%
%TO.N,/A14*%
X49530000Y-132080000D03*
%TO.P,J3_B1,8,Pin_8*%
%TO.N,/A15*%
X49530000Y-134620000D03*
%TO.P,J3_B1,9,Pin_9*%
%TO.N,/BANKEN*%
X49530000Y-137160000D03*
%TO.P,J3_B1,10,Pin_10*%
%TO.N,/~{BUSRQ}*%
X49530000Y-139700000D03*
%TO.P,J3_B1,11,Pin_11*%
%TO.N,/~{BUSAK}*%
X49530000Y-142240000D03*
%TO.P,J3_B1,12,Pin_12*%
%TO.N,/PI3*%
X49530000Y-144780000D03*
%TO.P,J3_B1,13,Pin_13*%
%TO.N,/PI2*%
X49530000Y-147320000D03*
%TO.P,J3_B1,14,Pin_14*%
%TO.N,/~{NMI}*%
X49530000Y-149860000D03*
%TO.P,J3_B1,15,Pin_15*%
%TO.N,/A16*%
X49530000Y-152400000D03*
%TO.P,J3_B1,16,Pin_16*%
%TO.N,/A17*%
X49530000Y-154940000D03*
%TO.P,J3_B1,17,Pin_17*%
%TO.N,/A18*%
X49530000Y-157480000D03*
%TO.P,J3_B1,18,Pin_18*%
%TO.N,/A19*%
X49530000Y-160020000D03*
%TO.P,J3_B1,19,Pin_19*%
%TO.N,GND*%
X49530000Y-162560000D03*
%TO.P,J3_B1,20,Pin_20*%
X49530000Y-165100000D03*
%TO.P,J3_B1,21,Pin_21*%
%TO.N,/RESERVE*%
X49530000Y-167640000D03*
%TD*%
D11*
%TO.P,J1_A1,1,Pin_1*%
%TO.N,-5V*%
X27940000Y-33020000D03*
D12*
%TO.P,J1_A1,2,Pin_2*%
%TO.N,+12V*%
X27940000Y-35560000D03*
%TO.P,J1_A1,3,Pin_3*%
%TO.N,-12V*%
X27940000Y-38100000D03*
%TO.P,J1_A1,4,Pin_4*%
%TO.N,+5V*%
X27940000Y-40640000D03*
%TO.P,J1_A1,5,Pin_5*%
X27940000Y-43180000D03*
%TO.P,J1_A1,6,Pin_6*%
%TO.N,GND*%
X27940000Y-45720000D03*
%TO.P,J1_A1,7,Pin_7*%
X27940000Y-48260000D03*
%TO.P,J1_A1,8,Pin_8*%
%TO.N,/D0*%
X27940000Y-50800000D03*
%TO.P,J1_A1,9,Pin_9*%
%TO.N,/D1*%
X27940000Y-53340000D03*
%TO.P,J1_A1,10,Pin_10*%
%TO.N,/D2*%
X27940000Y-55880000D03*
%TO.P,J1_A1,11,Pin_11*%
%TO.N,/D3*%
X27940000Y-58420000D03*
%TO.P,J1_A1,12,Pin_12*%
%TO.N,/D4*%
X27940000Y-60960000D03*
%TO.P,J1_A1,13,Pin_13*%
%TO.N,/D5*%
X27940000Y-63500000D03*
%TO.P,J1_A1,14,Pin_14*%
%TO.N,/D6*%
X27940000Y-66040000D03*
%TO.P,J1_A1,15,Pin_15*%
%TO.N,/D7*%
X27940000Y-68580000D03*
%TO.P,J1_A1,16,Pin_16*%
%TO.N,/~{RD}*%
X27940000Y-71120000D03*
%TO.P,J1_A1,17,Pin_17*%
%TO.N,/~{WR}*%
X27940000Y-73660000D03*
%TO.P,J1_A1,18,Pin_18*%
%TO.N,/~{IORQ}*%
X27940000Y-76200000D03*
%TO.P,J1_A1,19,Pin_19*%
%TO.N,/~{MREQ}*%
X27940000Y-78740000D03*
%TO.P,J1_A1,20,Pin_20*%
%TO.N,/A0*%
X27940000Y-81280000D03*
%TO.P,J1_A1,21,Pin_21*%
%TO.N,/A1*%
X27940000Y-83820000D03*
%TO.P,J1_A1,22,Pin_22*%
%TO.N,/A2*%
X27940000Y-86360000D03*
%TO.P,J1_A1,23,Pin_23*%
%TO.N,/A3*%
X27940000Y-88900000D03*
%TO.P,J1_A1,24,Pin_24*%
%TO.N,/A4*%
X27940000Y-91440000D03*
%TO.P,J1_A1,25,Pin_25*%
%TO.N,/A5*%
X27940000Y-93980000D03*
%TO.P,J1_A1,26,Pin_26*%
%TO.N,/A6*%
X27940000Y-96520000D03*
%TO.P,J1_A1,27,Pin_27*%
%TO.N,/A7*%
X27940000Y-99060000D03*
%TO.P,J1_A1,28,Pin_28*%
%TO.N,/~{RESET}*%
X27940000Y-101600000D03*
%TO.P,J1_A1,29,Pin_29*%
%TO.N,/~{M1}*%
X27940000Y-104140000D03*
%TO.P,J1_A1,30,Pin_30*%
%TO.N,/~{PHI}*%
X27940000Y-106680000D03*
%TO.P,J1_A1,31,Pin_31*%
%TO.N,/~{RFSH}*%
X27940000Y-109220000D03*
%TO.P,J1_A1,32,Pin_32*%
%TO.N,/~{INT}*%
X27940000Y-111760000D03*
%TO.P,J1_A1,33,Pin_33*%
%TO.N,/~{WAIT}*%
X27940000Y-114300000D03*
%TD*%
D11*
%TO.P,J1_B1,1,Pin_1*%
%TO.N,/A8*%
X27940000Y-116840000D03*
D12*
%TO.P,J1_B1,2,Pin_2*%
%TO.N,/A9*%
X27940000Y-119380000D03*
%TO.P,J1_B1,3,Pin_3*%
%TO.N,/A10*%
X27940000Y-121920000D03*
%TO.P,J1_B1,4,Pin_4*%
%TO.N,/A11*%
X27940000Y-124460000D03*
%TO.P,J1_B1,5,Pin_5*%
%TO.N,/A12*%
X27940000Y-127000000D03*
%TO.P,J1_B1,6,Pin_6*%
%TO.N,/A13*%
X27940000Y-129540000D03*
%TO.P,J1_B1,7,Pin_7*%
%TO.N,/A14*%
X27940000Y-132080000D03*
%TO.P,J1_B1,8,Pin_8*%
%TO.N,/A15*%
X27940000Y-134620000D03*
%TO.P,J1_B1,9,Pin_9*%
%TO.N,/BANKEN*%
X27940000Y-137160000D03*
%TO.P,J1_B1,10,Pin_10*%
%TO.N,/~{BUSRQ}*%
X27940000Y-139700000D03*
%TO.P,J1_B1,11,Pin_11*%
%TO.N,/~{BUSAK}*%
X27940000Y-142240000D03*
%TO.P,J1_B1,12,Pin_12*%
%TO.N,/PI1*%
X27940000Y-144780000D03*
%TO.P,J1_B1,13,Pin_13*%
X27940000Y-147320000D03*
%TO.P,J1_B1,14,Pin_14*%
%TO.N,/~{NMI}*%
X27940000Y-149860000D03*
%TO.P,J1_B1,15,Pin_15*%
%TO.N,/A16*%
X27940000Y-152400000D03*
%TO.P,J1_B1,16,Pin_16*%
%TO.N,/A17*%
X27940000Y-154940000D03*
%TO.P,J1_B1,17,Pin_17*%
%TO.N,/A18*%
X27940000Y-157480000D03*
%TO.P,J1_B1,18,Pin_18*%
%TO.N,/A19*%
X27940000Y-160020000D03*
%TO.P,J1_B1,19,Pin_19*%
%TO.N,GND*%
X27940000Y-162560000D03*
%TO.P,J1_B1,20,Pin_20*%
X27940000Y-165100000D03*
%TO.P,J1_B1,21,Pin_21*%
%TO.N,/RESERVE*%
X27940000Y-167640000D03*
%TD*%
D11*
%TO.P,J4_B1,1,Pin_1*%
%TO.N,/A8*%
X67310000Y-116840000D03*
D12*
%TO.P,J4_B1,2,Pin_2*%
%TO.N,/A9*%
X67310000Y-119380000D03*
%TO.P,J4_B1,3,Pin_3*%
%TO.N,/A10*%
X67310000Y-121920000D03*
%TO.P,J4_B1,4,Pin_4*%
%TO.N,/A11*%
X67310000Y-124460000D03*
%TO.P,J4_B1,5,Pin_5*%
%TO.N,/A12*%
X67310000Y-127000000D03*
%TO.P,J4_B1,6,Pin_6*%
%TO.N,/A13*%
X67310000Y-129540000D03*
%TO.P,J4_B1,7,Pin_7*%
%TO.N,/A14*%
X67310000Y-132080000D03*
%TO.P,J4_B1,8,Pin_8*%
%TO.N,/A15*%
X67310000Y-134620000D03*
%TO.P,J4_B1,9,Pin_9*%
%TO.N,/BANKEN*%
X67310000Y-137160000D03*
%TO.P,J4_B1,10,Pin_10*%
%TO.N,/~{BUSRQ}*%
X67310000Y-139700000D03*
%TO.P,J4_B1,11,Pin_11*%
%TO.N,/~{BUSAK}*%
X67310000Y-142240000D03*
%TO.P,J4_B1,12,Pin_12*%
%TO.N,/PI4*%
X67310000Y-144780000D03*
%TO.P,J4_B1,13,Pin_13*%
%TO.N,/PI3*%
X67310000Y-147320000D03*
%TO.P,J4_B1,14,Pin_14*%
%TO.N,/~{NMI}*%
X67310000Y-149860000D03*
%TO.P,J4_B1,15,Pin_15*%
%TO.N,/A16*%
X67310000Y-152400000D03*
%TO.P,J4_B1,16,Pin_16*%
%TO.N,/A17*%
X67310000Y-154940000D03*
%TO.P,J4_B1,17,Pin_17*%
%TO.N,/A18*%
X67310000Y-157480000D03*
%TO.P,J4_B1,18,Pin_18*%
%TO.N,/A19*%
X67310000Y-160020000D03*
%TO.P,J4_B1,19,Pin_19*%
%TO.N,GND*%
X67310000Y-162560000D03*
%TO.P,J4_B1,20,Pin_20*%
X67310000Y-165100000D03*
%TO.P,J4_B1,21,Pin_21*%
%TO.N,/RESERVE*%
X67310000Y-167640000D03*
%TD*%
D11*
%TO.P,J2_B1,1,Pin_1*%
%TO.N,/A8*%
X31750000Y-116840000D03*
D12*
%TO.P,J2_B1,2,Pin_2*%
%TO.N,/A9*%
X31750000Y-119380000D03*
%TO.P,J2_B1,3,Pin_3*%
%TO.N,/A10*%
X31750000Y-121920000D03*
%TO.P,J2_B1,4,Pin_4*%
%TO.N,/A11*%
X31750000Y-124460000D03*
%TO.P,J2_B1,5,Pin_5*%
%TO.N,/A12*%
X31750000Y-127000000D03*
%TO.P,J2_B1,6,Pin_6*%
%TO.N,/A13*%
X31750000Y-129540000D03*
%TO.P,J2_B1,7,Pin_7*%
%TO.N,/A14*%
X31750000Y-132080000D03*
%TO.P,J2_B1,8,Pin_8*%
%TO.N,/A15*%
X31750000Y-134620000D03*
%TO.P,J2_B1,9,Pin_9*%
%TO.N,/BANKEN*%
X31750000Y-137160000D03*
%TO.P,J2_B1,10,Pin_10*%
%TO.N,/~{BUSRQ}*%
X31750000Y-139700000D03*
%TO.P,J2_B1,11,Pin_11*%
%TO.N,/~{BUSAK}*%
X31750000Y-142240000D03*
%TO.P,J2_B1,12,Pin_12*%
%TO.N,/PI2*%
X31750000Y-144780000D03*
%TO.P,J2_B1,13,Pin_13*%
%TO.N,/PI1*%
X31750000Y-147320000D03*
%TO.P,J2_B1,14,Pin_14*%
%TO.N,/~{NMI}*%
X31750000Y-149860000D03*
%TO.P,J2_B1,15,Pin_15*%
%TO.N,/A16*%
X31750000Y-152400000D03*
%TO.P,J2_B1,16,Pin_16*%
%TO.N,/A17*%
X31750000Y-154940000D03*
%TO.P,J2_B1,17,Pin_17*%
%TO.N,/A18*%
X31750000Y-157480000D03*
%TO.P,J2_B1,18,Pin_18*%
%TO.N,/A19*%
X31750000Y-160020000D03*
%TO.P,J2_B1,19,Pin_19*%
%TO.N,GND*%
X31750000Y-162560000D03*
%TO.P,J2_B1,20,Pin_20*%
X31750000Y-165100000D03*
%TO.P,J2_B1,21,Pin_21*%
%TO.N,/RESERVE*%
X31750000Y-167640000D03*
%TD*%
D11*
%TO.P,J3_A1,1,Pin_1*%
%TO.N,-5V*%
X49530000Y-33020000D03*
D12*
%TO.P,J3_A1,2,Pin_2*%
%TO.N,+12V*%
X49530000Y-35560000D03*
%TO.P,J3_A1,3,Pin_3*%
%TO.N,-12V*%
X49530000Y-38100000D03*
%TO.P,J3_A1,4,Pin_4*%
%TO.N,+5V*%
X49530000Y-40640000D03*
%TO.P,J3_A1,5,Pin_5*%
X49530000Y-43180000D03*
%TO.P,J3_A1,6,Pin_6*%
%TO.N,GND*%
X49530000Y-45720000D03*
%TO.P,J3_A1,7,Pin_7*%
X49530000Y-48260000D03*
%TO.P,J3_A1,8,Pin_8*%
%TO.N,/D0*%
X49530000Y-50800000D03*
%TO.P,J3_A1,9,Pin_9*%
%TO.N,/D1*%
X49530000Y-53340000D03*
%TO.P,J3_A1,10,Pin_10*%
%TO.N,/D2*%
X49530000Y-55880000D03*
%TO.P,J3_A1,11,Pin_11*%
%TO.N,/D3*%
X49530000Y-58420000D03*
%TO.P,J3_A1,12,Pin_12*%
%TO.N,/D4*%
X49530000Y-60960000D03*
%TO.P,J3_A1,13,Pin_13*%
%TO.N,/D5*%
X49530000Y-63500000D03*
%TO.P,J3_A1,14,Pin_14*%
%TO.N,/D6*%
X49530000Y-66040000D03*
%TO.P,J3_A1,15,Pin_15*%
%TO.N,/D7*%
X49530000Y-68580000D03*
%TO.P,J3_A1,16,Pin_16*%
%TO.N,/~{RD}*%
X49530000Y-71120000D03*
%TO.P,J3_A1,17,Pin_17*%
%TO.N,/~{WR}*%
X49530000Y-73660000D03*
%TO.P,J3_A1,18,Pin_18*%
%TO.N,/~{IORQ}*%
X49530000Y-76200000D03*
%TO.P,J3_A1,19,Pin_19*%
%TO.N,/~{MREQ}*%
X49530000Y-78740000D03*
%TO.P,J3_A1,20,Pin_20*%
%TO.N,/A0*%
X49530000Y-81280000D03*
%TO.P,J3_A1,21,Pin_21*%
%TO.N,/A1*%
X49530000Y-83820000D03*
%TO.P,J3_A1,22,Pin_22*%
%TO.N,/A2*%
X49530000Y-86360000D03*
%TO.P,J3_A1,23,Pin_23*%
%TO.N,/A3*%
X49530000Y-88900000D03*
%TO.P,J3_A1,24,Pin_24*%
%TO.N,/A4*%
X49530000Y-91440000D03*
%TO.P,J3_A1,25,Pin_25*%
%TO.N,/A5*%
X49530000Y-93980000D03*
%TO.P,J3_A1,26,Pin_26*%
%TO.N,/A6*%
X49530000Y-96520000D03*
%TO.P,J3_A1,27,Pin_27*%
%TO.N,/A7*%
X49530000Y-99060000D03*
%TO.P,J3_A1,28,Pin_28*%
%TO.N,/~{RESET}*%
X49530000Y-101600000D03*
%TO.P,J3_A1,29,Pin_29*%
%TO.N,/~{M1}*%
X49530000Y-104140000D03*
%TO.P,J3_A1,30,Pin_30*%
%TO.N,/~{PHI}*%
X49530000Y-106680000D03*
%TO.P,J3_A1,31,Pin_31*%
%TO.N,/~{RFSH}*%
X49530000Y-109220000D03*
%TO.P,J3_A1,32,Pin_32*%
%TO.N,/~{INT}*%
X49530000Y-111760000D03*
%TO.P,J3_A1,33,Pin_33*%
%TO.N,/~{WAIT}*%
X49530000Y-114300000D03*
%TD*%
D11*
%TO.P,J5_A1,1,Pin_1*%
%TO.N,-5V*%
X85090000Y-33020000D03*
D12*
%TO.P,J5_A1,2,Pin_2*%
%TO.N,+12V*%
X85090000Y-35560000D03*
%TO.P,J5_A1,3,Pin_3*%
%TO.N,-12V*%
X85090000Y-38100000D03*
%TO.P,J5_A1,4,Pin_4*%
%TO.N,+5V*%
X85090000Y-40640000D03*
%TO.P,J5_A1,5,Pin_5*%
X85090000Y-43180000D03*
%TO.P,J5_A1,6,Pin_6*%
%TO.N,GND*%
X85090000Y-45720000D03*
%TO.P,J5_A1,7,Pin_7*%
X85090000Y-48260000D03*
%TO.P,J5_A1,8,Pin_8*%
%TO.N,/D0*%
X85090000Y-50800000D03*
%TO.P,J5_A1,9,Pin_9*%
%TO.N,/D1*%
X85090000Y-53340000D03*
%TO.P,J5_A1,10,Pin_10*%
%TO.N,/D2*%
X85090000Y-55880000D03*
%TO.P,J5_A1,11,Pin_11*%
%TO.N,/D3*%
X85090000Y-58420000D03*
%TO.P,J5_A1,12,Pin_12*%
%TO.N,/D4*%
X85090000Y-60960000D03*
%TO.P,J5_A1,13,Pin_13*%
%TO.N,/D5*%
X85090000Y-63500000D03*
%TO.P,J5_A1,14,Pin_14*%
%TO.N,/D6*%
X85090000Y-66040000D03*
%TO.P,J5_A1,15,Pin_15*%
%TO.N,/D7*%
X85090000Y-68580000D03*
%TO.P,J5_A1,16,Pin_16*%
%TO.N,/~{RD}*%
X85090000Y-71120000D03*
%TO.P,J5_A1,17,Pin_17*%
%TO.N,/~{WR}*%
X85090000Y-73660000D03*
%TO.P,J5_A1,18,Pin_18*%
%TO.N,/~{IORQ}*%
X85090000Y-76200000D03*
%TO.P,J5_A1,19,Pin_19*%
%TO.N,/~{MREQ}*%
X85090000Y-78740000D03*
%TO.P,J5_A1,20,Pin_20*%
%TO.N,/A0*%
X85090000Y-81280000D03*
%TO.P,J5_A1,21,Pin_21*%
%TO.N,/A1*%
X85090000Y-83820000D03*
%TO.P,J5_A1,22,Pin_22*%
%TO.N,/A2*%
X85090000Y-86360000D03*
%TO.P,J5_A1,23,Pin_23*%
%TO.N,/A3*%
X85090000Y-88900000D03*
%TO.P,J5_A1,24,Pin_24*%
%TO.N,/A4*%
X85090000Y-91440000D03*
%TO.P,J5_A1,25,Pin_25*%
%TO.N,/A5*%
X85090000Y-93980000D03*
%TO.P,J5_A1,26,Pin_26*%
%TO.N,/A6*%
X85090000Y-96520000D03*
%TO.P,J5_A1,27,Pin_27*%
%TO.N,/A7*%
X85090000Y-99060000D03*
%TO.P,J5_A1,28,Pin_28*%
%TO.N,/~{RESET}*%
X85090000Y-101600000D03*
%TO.P,J5_A1,29,Pin_29*%
%TO.N,/~{M1}*%
X85090000Y-104140000D03*
%TO.P,J5_A1,30,Pin_30*%
%TO.N,/~{PHI}*%
X85090000Y-106680000D03*
%TO.P,J5_A1,31,Pin_31*%
%TO.N,/~{RFSH}*%
X85090000Y-109220000D03*
%TO.P,J5_A1,32,Pin_32*%
%TO.N,/~{INT}*%
X85090000Y-111760000D03*
%TO.P,J5_A1,33,Pin_33*%
%TO.N,/~{WAIT}*%
X85090000Y-114300000D03*
%TD*%
D11*
%TO.P,J7_A1,1,Pin_1*%
%TO.N,-5V*%
X120650000Y-33020000D03*
D12*
%TO.P,J7_A1,2,Pin_2*%
%TO.N,+12V*%
X120650000Y-35560000D03*
%TO.P,J7_A1,3,Pin_3*%
%TO.N,-12V*%
X120650000Y-38100000D03*
%TO.P,J7_A1,4,Pin_4*%
%TO.N,+5V*%
X120650000Y-40640000D03*
%TO.P,J7_A1,5,Pin_5*%
X120650000Y-43180000D03*
%TO.P,J7_A1,6,Pin_6*%
%TO.N,GND*%
X120650000Y-45720000D03*
%TO.P,J7_A1,7,Pin_7*%
X120650000Y-48260000D03*
%TO.P,J7_A1,8,Pin_8*%
%TO.N,/D0*%
X120650000Y-50800000D03*
%TO.P,J7_A1,9,Pin_9*%
%TO.N,/D1*%
X120650000Y-53340000D03*
%TO.P,J7_A1,10,Pin_10*%
%TO.N,/D2*%
X120650000Y-55880000D03*
%TO.P,J7_A1,11,Pin_11*%
%TO.N,/D3*%
X120650000Y-58420000D03*
%TO.P,J7_A1,12,Pin_12*%
%TO.N,/D4*%
X120650000Y-60960000D03*
%TO.P,J7_A1,13,Pin_13*%
%TO.N,/D5*%
X120650000Y-63500000D03*
%TO.P,J7_A1,14,Pin_14*%
%TO.N,/D6*%
X120650000Y-66040000D03*
%TO.P,J7_A1,15,Pin_15*%
%TO.N,/D7*%
X120650000Y-68580000D03*
%TO.P,J7_A1,16,Pin_16*%
%TO.N,/~{RD}*%
X120650000Y-71120000D03*
%TO.P,J7_A1,17,Pin_17*%
%TO.N,/~{WR}*%
X120650000Y-73660000D03*
%TO.P,J7_A1,18,Pin_18*%
%TO.N,/~{IORQ}*%
X120650000Y-76200000D03*
%TO.P,J7_A1,19,Pin_19*%
%TO.N,/~{MREQ}*%
X120650000Y-78740000D03*
%TO.P,J7_A1,20,Pin_20*%
%TO.N,/A0*%
X120650000Y-81280000D03*
%TO.P,J7_A1,21,Pin_21*%
%TO.N,/A1*%
X120650000Y-83820000D03*
%TO.P,J7_A1,22,Pin_22*%
%TO.N,/A2*%
X120650000Y-86360000D03*
%TO.P,J7_A1,23,Pin_23*%
%TO.N,/A3*%
X120650000Y-88900000D03*
%TO.P,J7_A1,24,Pin_24*%
%TO.N,/A4*%
X120650000Y-91440000D03*
%TO.P,J7_A1,25,Pin_25*%
%TO.N,/A5*%
X120650000Y-93980000D03*
%TO.P,J7_A1,26,Pin_26*%
%TO.N,/A6*%
X120650000Y-96520000D03*
%TO.P,J7_A1,27,Pin_27*%
%TO.N,/A7*%
X120650000Y-99060000D03*
%TO.P,J7_A1,28,Pin_28*%
%TO.N,/~{RESET}*%
X120650000Y-101600000D03*
%TO.P,J7_A1,29,Pin_29*%
%TO.N,/~{M1}*%
X120650000Y-104140000D03*
%TO.P,J7_A1,30,Pin_30*%
%TO.N,/~{PHI}*%
X120650000Y-106680000D03*
%TO.P,J7_A1,31,Pin_31*%
%TO.N,/~{RFSH}*%
X120650000Y-109220000D03*
%TO.P,J7_A1,32,Pin_32*%
%TO.N,/~{INT}*%
X120650000Y-111760000D03*
%TO.P,J7_A1,33,Pin_33*%
%TO.N,/~{WAIT}*%
X120650000Y-114300000D03*
%TD*%
D11*
%TO.P,J5_B1,1,Pin_1*%
%TO.N,/A8*%
X85090000Y-116840000D03*
D12*
%TO.P,J5_B1,2,Pin_2*%
%TO.N,/A9*%
X85090000Y-119380000D03*
%TO.P,J5_B1,3,Pin_3*%
%TO.N,/A10*%
X85090000Y-121920000D03*
%TO.P,J5_B1,4,Pin_4*%
%TO.N,/A11*%
X85090000Y-124460000D03*
%TO.P,J5_B1,5,Pin_5*%
%TO.N,/A12*%
X85090000Y-127000000D03*
%TO.P,J5_B1,6,Pin_6*%
%TO.N,/A13*%
X85090000Y-129540000D03*
%TO.P,J5_B1,7,Pin_7*%
%TO.N,/A14*%
X85090000Y-132080000D03*
%TO.P,J5_B1,8,Pin_8*%
%TO.N,/A15*%
X85090000Y-134620000D03*
%TO.P,J5_B1,9,Pin_9*%
%TO.N,/BANKEN*%
X85090000Y-137160000D03*
%TO.P,J5_B1,10,Pin_10*%
%TO.N,/~{BUSRQ}*%
X85090000Y-139700000D03*
%TO.P,J5_B1,11,Pin_11*%
%TO.N,/~{BUSAK}*%
X85090000Y-142240000D03*
%TO.P,J5_B1,12,Pin_12*%
%TO.N,/PI5*%
X85090000Y-144780000D03*
%TO.P,J5_B1,13,Pin_13*%
%TO.N,/PI4*%
X85090000Y-147320000D03*
%TO.P,J5_B1,14,Pin_14*%
%TO.N,/~{NMI}*%
X85090000Y-149860000D03*
%TO.P,J5_B1,15,Pin_15*%
%TO.N,/A16*%
X85090000Y-152400000D03*
%TO.P,J5_B1,16,Pin_16*%
%TO.N,/A17*%
X85090000Y-154940000D03*
%TO.P,J5_B1,17,Pin_17*%
%TO.N,/A18*%
X85090000Y-157480000D03*
%TO.P,J5_B1,18,Pin_18*%
%TO.N,/A19*%
X85090000Y-160020000D03*
%TO.P,J5_B1,19,Pin_19*%
%TO.N,GND*%
X85090000Y-162560000D03*
%TO.P,J5_B1,20,Pin_20*%
X85090000Y-165100000D03*
%TO.P,J5_B1,21,Pin_21*%
%TO.N,/RESERVE*%
X85090000Y-167640000D03*
%TD*%
D11*
%TO.P,J8_B1,1,Pin_1*%
%TO.N,/A8*%
X124460000Y-116840000D03*
D12*
%TO.P,J8_B1,2,Pin_2*%
%TO.N,/A9*%
X124460000Y-119380000D03*
%TO.P,J8_B1,3,Pin_3*%
%TO.N,/A10*%
X124460000Y-121920000D03*
%TO.P,J8_B1,4,Pin_4*%
%TO.N,/A11*%
X124460000Y-124460000D03*
%TO.P,J8_B1,5,Pin_5*%
%TO.N,/A12*%
X124460000Y-127000000D03*
%TO.P,J8_B1,6,Pin_6*%
%TO.N,/A13*%
X124460000Y-129540000D03*
%TO.P,J8_B1,7,Pin_7*%
%TO.N,/A14*%
X124460000Y-132080000D03*
%TO.P,J8_B1,8,Pin_8*%
%TO.N,/A15*%
X124460000Y-134620000D03*
%TO.P,J8_B1,9,Pin_9*%
%TO.N,/BANKEN*%
X124460000Y-137160000D03*
%TO.P,J8_B1,10,Pin_10*%
%TO.N,/~{BUSRQ}*%
X124460000Y-139700000D03*
%TO.P,J8_B1,11,Pin_11*%
%TO.N,/~{BUSAK}*%
X124460000Y-142240000D03*
%TO.P,J8_B1,12,Pin_12*%
%TO.N,/PI7*%
X124460000Y-144780000D03*
%TO.P,J8_B1,13,Pin_13*%
X124460000Y-147320000D03*
%TO.P,J8_B1,14,Pin_14*%
%TO.N,/~{NMI}*%
X124460000Y-149860000D03*
%TO.P,J8_B1,15,Pin_15*%
%TO.N,/A16*%
X124460000Y-152400000D03*
%TO.P,J8_B1,16,Pin_16*%
%TO.N,/A17*%
X124460000Y-154940000D03*
%TO.P,J8_B1,17,Pin_17*%
%TO.N,/A18*%
X124460000Y-157480000D03*
%TO.P,J8_B1,18,Pin_18*%
%TO.N,/A19*%
X124460000Y-160020000D03*
%TO.P,J8_B1,19,Pin_19*%
%TO.N,GND*%
X124460000Y-162560000D03*
%TO.P,J8_B1,20,Pin_20*%
X124460000Y-165100000D03*
%TO.P,J8_B1,21,Pin_21*%
%TO.N,/RESERVE*%
X124460000Y-167640000D03*
%TD*%
D11*
%TO.P,J6_A1,1,Pin_1*%
%TO.N,-5V*%
X102870000Y-33020000D03*
D12*
%TO.P,J6_A1,2,Pin_2*%
%TO.N,+12V*%
X102870000Y-35560000D03*
%TO.P,J6_A1,3,Pin_3*%
%TO.N,-12V*%
X102870000Y-38100000D03*
%TO.P,J6_A1,4,Pin_4*%
%TO.N,+5V*%
X102870000Y-40640000D03*
%TO.P,J6_A1,5,Pin_5*%
X102870000Y-43180000D03*
%TO.P,J6_A1,6,Pin_6*%
%TO.N,GND*%
X102870000Y-45720000D03*
%TO.P,J6_A1,7,Pin_7*%
X102870000Y-48260000D03*
%TO.P,J6_A1,8,Pin_8*%
%TO.N,/D0*%
X102870000Y-50800000D03*
%TO.P,J6_A1,9,Pin_9*%
%TO.N,/D1*%
X102870000Y-53340000D03*
%TO.P,J6_A1,10,Pin_10*%
%TO.N,/D2*%
X102870000Y-55880000D03*
%TO.P,J6_A1,11,Pin_11*%
%TO.N,/D3*%
X102870000Y-58420000D03*
%TO.P,J6_A1,12,Pin_12*%
%TO.N,/D4*%
X102870000Y-60960000D03*
%TO.P,J6_A1,13,Pin_13*%
%TO.N,/D5*%
X102870000Y-63500000D03*
%TO.P,J6_A1,14,Pin_14*%
%TO.N,/D6*%
X102870000Y-66040000D03*
%TO.P,J6_A1,15,Pin_15*%
%TO.N,/D7*%
X102870000Y-68580000D03*
%TO.P,J6_A1,16,Pin_16*%
%TO.N,/~{RD}*%
X102870000Y-71120000D03*
%TO.P,J6_A1,17,Pin_17*%
%TO.N,/~{WR}*%
X102870000Y-73660000D03*
%TO.P,J6_A1,18,Pin_18*%
%TO.N,/~{IORQ}*%
X102870000Y-76200000D03*
%TO.P,J6_A1,19,Pin_19*%
%TO.N,/~{MREQ}*%
X102870000Y-78740000D03*
%TO.P,J6_A1,20,Pin_20*%
%TO.N,/A0*%
X102870000Y-81280000D03*
%TO.P,J6_A1,21,Pin_21*%
%TO.N,/A1*%
X102870000Y-83820000D03*
%TO.P,J6_A1,22,Pin_22*%
%TO.N,/A2*%
X102870000Y-86360000D03*
%TO.P,J6_A1,23,Pin_23*%
%TO.N,/A3*%
X102870000Y-88900000D03*
%TO.P,J6_A1,24,Pin_24*%
%TO.N,/A4*%
X102870000Y-91440000D03*
%TO.P,J6_A1,25,Pin_25*%
%TO.N,/A5*%
X102870000Y-93980000D03*
%TO.P,J6_A1,26,Pin_26*%
%TO.N,/A6*%
X102870000Y-96520000D03*
%TO.P,J6_A1,27,Pin_27*%
%TO.N,/A7*%
X102870000Y-99060000D03*
%TO.P,J6_A1,28,Pin_28*%
%TO.N,/~{RESET}*%
X102870000Y-101600000D03*
%TO.P,J6_A1,29,Pin_29*%
%TO.N,/~{M1}*%
X102870000Y-104140000D03*
%TO.P,J6_A1,30,Pin_30*%
%TO.N,/~{PHI}*%
X102870000Y-106680000D03*
%TO.P,J6_A1,31,Pin_31*%
%TO.N,/~{RFSH}*%
X102870000Y-109220000D03*
%TO.P,J6_A1,32,Pin_32*%
%TO.N,/~{INT}*%
X102870000Y-111760000D03*
%TO.P,J6_A1,33,Pin_33*%
%TO.N,/~{WAIT}*%
X102870000Y-114300000D03*
%TD*%
D13*
%TO.N,/D0*%
X85090000Y-50800000D02*
X102870000Y-50800000D01*
X31750000Y-50800000D02*
X49530000Y-50800000D01*
X67310000Y-50800000D02*
X85090000Y-50800000D01*
X120650000Y-50800000D02*
X124460000Y-50800000D01*
X102870000Y-50800000D02*
X120650000Y-50800000D01*
X27940000Y-50800000D02*
X31750000Y-50800000D01*
X49530000Y-50800000D02*
X67310000Y-50800000D01*
%TO.N,/D1*%
X120650000Y-53340000D02*
X124460000Y-53340000D01*
X31750000Y-53340000D02*
X49530000Y-53340000D01*
X85090000Y-53340000D02*
X102870000Y-53340000D01*
X27940000Y-53340000D02*
X31750000Y-53340000D01*
X102870000Y-53340000D02*
X120650000Y-53340000D01*
X67310000Y-53340000D02*
X85090000Y-53340000D01*
X49530000Y-53340000D02*
X67310000Y-53340000D01*
%TO.N,/D2*%
X120650000Y-55880000D02*
X124460000Y-55880000D01*
X102870000Y-55880000D02*
X120650000Y-55880000D01*
X67310000Y-55880000D02*
X85090000Y-55880000D01*
X27940000Y-55880000D02*
X31750000Y-55880000D01*
X49530000Y-55880000D02*
X67310000Y-55880000D01*
X31750000Y-55880000D02*
X49530000Y-55880000D01*
X85090000Y-55880000D02*
X102870000Y-55880000D01*
%TO.N,/D3*%
X49530000Y-58420000D02*
X31750000Y-58420000D01*
X67310000Y-58420000D02*
X49530000Y-58420000D01*
X102870000Y-58420000D02*
X85090000Y-58420000D01*
X124460000Y-58420000D02*
X120650000Y-58420000D01*
X31750000Y-58420000D02*
X27940000Y-58420000D01*
X120650000Y-58420000D02*
X102870000Y-58420000D01*
X85090000Y-58420000D02*
X67310000Y-58420000D01*
%TO.N,/D4*%
X85090000Y-60960000D02*
X102870000Y-60960000D01*
X102870000Y-60960000D02*
X120650000Y-60960000D01*
X27940000Y-60960000D02*
X31750000Y-60960000D01*
X31750000Y-60960000D02*
X49530000Y-60960000D01*
X67310000Y-60960000D02*
X85090000Y-60960000D01*
X120650000Y-60960000D02*
X124460000Y-60960000D01*
X49530000Y-60960000D02*
X67310000Y-60960000D01*
%TO.N,/D5*%
X85090000Y-63500000D02*
X67310000Y-63500000D01*
X124460000Y-63500000D02*
X120650000Y-63500000D01*
X49530000Y-63500000D02*
X31750000Y-63500000D01*
X120650000Y-63500000D02*
X102870000Y-63500000D01*
X102870000Y-63500000D02*
X85090000Y-63500000D01*
X31750000Y-63500000D02*
X27940000Y-63500000D01*
X67310000Y-63500000D02*
X49530000Y-63500000D01*
%TO.N,/D6*%
X31750000Y-66040000D02*
X49530000Y-66040000D01*
X102870000Y-66040000D02*
X120650000Y-66040000D01*
X120650000Y-66040000D02*
X124460000Y-66040000D01*
X49530000Y-66040000D02*
X67310000Y-66040000D01*
X85090000Y-66040000D02*
X102870000Y-66040000D01*
X67310000Y-66040000D02*
X85090000Y-66040000D01*
X27940000Y-66040000D02*
X31750000Y-66040000D01*
%TO.N,/D7*%
X85090000Y-68580000D02*
X67310000Y-68580000D01*
X120650000Y-68580000D02*
X102870000Y-68580000D01*
X67310000Y-68580000D02*
X49530000Y-68580000D01*
X124460000Y-68580000D02*
X120650000Y-68580000D01*
X49530000Y-68580000D02*
X31750000Y-68580000D01*
X31750000Y-68580000D02*
X27940000Y-68580000D01*
X102870000Y-68580000D02*
X85090000Y-68580000D01*
%TO.N,/~{RD}*%
X67310000Y-71120000D02*
X85090000Y-71120000D01*
X31750000Y-71120000D02*
X49530000Y-71120000D01*
X85090000Y-71120000D02*
X102870000Y-71120000D01*
X102870000Y-71120000D02*
X120650000Y-71120000D01*
X120650000Y-71120000D02*
X124460000Y-71120000D01*
X27940000Y-71120000D02*
X31750000Y-71120000D01*
X49530000Y-71120000D02*
X67310000Y-71120000D01*
%TO.N,/~{WR}*%
X67310000Y-73660000D02*
X49530000Y-73660000D01*
X85090000Y-73660000D02*
X67310000Y-73660000D01*
X120650000Y-73660000D02*
X102870000Y-73660000D01*
X31750000Y-73660000D02*
X27940000Y-73660000D01*
X124460000Y-73660000D02*
X120650000Y-73660000D01*
X49530000Y-73660000D02*
X31750000Y-73660000D01*
X102870000Y-73660000D02*
X85090000Y-73660000D01*
%TO.N,/~{IORQ}*%
X67310000Y-76200000D02*
X85090000Y-76200000D01*
X49530000Y-76200000D02*
X67310000Y-76200000D01*
X120650000Y-76200000D02*
X124460000Y-76200000D01*
X85090000Y-76200000D02*
X102870000Y-76200000D01*
X31750000Y-76200000D02*
X49530000Y-76200000D01*
X27940000Y-76200000D02*
X31750000Y-76200000D01*
X102870000Y-76200000D02*
X120650000Y-76200000D01*
%TO.N,/~{MREQ}*%
X85090000Y-78740000D02*
X67310000Y-78740000D01*
X124460000Y-78740000D02*
X120650000Y-78740000D01*
X102870000Y-78740000D02*
X85090000Y-78740000D01*
X31750000Y-78740000D02*
X27940000Y-78740000D01*
X120650000Y-78740000D02*
X102870000Y-78740000D01*
X49530000Y-78740000D02*
X31750000Y-78740000D01*
X67310000Y-78740000D02*
X49530000Y-78740000D01*
%TO.N,/A0*%
X27940000Y-81280000D02*
X31750000Y-81280000D01*
X102870000Y-81280000D02*
X120650000Y-81280000D01*
X49530000Y-81280000D02*
X67310000Y-81280000D01*
X85090000Y-81280000D02*
X102870000Y-81280000D01*
X120650000Y-81280000D02*
X124460000Y-81280000D01*
X67310000Y-81280000D02*
X85090000Y-81280000D01*
X31750000Y-81280000D02*
X49530000Y-81280000D01*
%TO.N,/A1*%
X67310000Y-83820000D02*
X85090000Y-83820000D01*
X27940000Y-83820000D02*
X31750000Y-83820000D01*
X102870000Y-83820000D02*
X120650000Y-83820000D01*
X120650000Y-83820000D02*
X124460000Y-83820000D01*
X49530000Y-83820000D02*
X67310000Y-83820000D01*
X31750000Y-83820000D02*
X49530000Y-83820000D01*
X85090000Y-83820000D02*
X102870000Y-83820000D01*
%TO.N,/A2*%
X49530000Y-86360000D02*
X31750000Y-86360000D01*
X67310000Y-86360000D02*
X49530000Y-86360000D01*
X102870000Y-86360000D02*
X85090000Y-86360000D01*
X120650000Y-86360000D02*
X102870000Y-86360000D01*
X124460000Y-86360000D02*
X120650000Y-86360000D01*
X85090000Y-86360000D02*
X67310000Y-86360000D01*
X31750000Y-86360000D02*
X27940000Y-86360000D01*
%TO.N,/A3*%
X49530000Y-88900000D02*
X67310000Y-88900000D01*
X67310000Y-88900000D02*
X85090000Y-88900000D01*
X120650000Y-88900000D02*
X124460000Y-88900000D01*
X31750000Y-88900000D02*
X49530000Y-88900000D01*
X85090000Y-88900000D02*
X102870000Y-88900000D01*
X102870000Y-88900000D02*
X120650000Y-88900000D01*
X27940000Y-88900000D02*
X31750000Y-88900000D01*
%TO.N,/A4*%
X67310000Y-91440000D02*
X49530000Y-91440000D01*
X120650000Y-91440000D02*
X102870000Y-91440000D01*
X124460000Y-91440000D02*
X120650000Y-91440000D01*
X102870000Y-91440000D02*
X85090000Y-91440000D01*
X49530000Y-91440000D02*
X31750000Y-91440000D01*
X85090000Y-91440000D02*
X67310000Y-91440000D01*
X31750000Y-91440000D02*
X27940000Y-91440000D01*
%TO.N,/A5*%
X67310000Y-93980000D02*
X85090000Y-93980000D01*
X120650000Y-93980000D02*
X124460000Y-93980000D01*
X102870000Y-93980000D02*
X120650000Y-93980000D01*
X85090000Y-93980000D02*
X102870000Y-93980000D01*
X27940000Y-93980000D02*
X31750000Y-93980000D01*
X49530000Y-93980000D02*
X67310000Y-93980000D01*
X31750000Y-93980000D02*
X49530000Y-93980000D01*
%TO.N,/A6*%
X85090000Y-96520000D02*
X67310000Y-96520000D01*
X102870000Y-96520000D02*
X85090000Y-96520000D01*
X49530000Y-96520000D02*
X31750000Y-96520000D01*
X124460000Y-96520000D02*
X120650000Y-96520000D01*
X120650000Y-96520000D02*
X102870000Y-96520000D01*
X67310000Y-96520000D02*
X49530000Y-96520000D01*
X31750000Y-96520000D02*
X27940000Y-96520000D01*
%TO.N,/A7*%
X102870000Y-99060000D02*
X120650000Y-99060000D01*
X31750000Y-99060000D02*
X49530000Y-99060000D01*
X49530000Y-99060000D02*
X67310000Y-99060000D01*
X120650000Y-99060000D02*
X124460000Y-99060000D01*
X27940000Y-99060000D02*
X31750000Y-99060000D01*
X67310000Y-99060000D02*
X85090000Y-99060000D01*
X85090000Y-99060000D02*
X102870000Y-99060000D01*
%TO.N,/~{RESET}*%
X67310000Y-101600000D02*
X49530000Y-101600000D01*
X124460000Y-101600000D02*
X120650000Y-101600000D01*
X85090000Y-101600000D02*
X67310000Y-101600000D01*
X49530000Y-101600000D02*
X31750000Y-101600000D01*
X31750000Y-101600000D02*
X27940000Y-101600000D01*
X102870000Y-101600000D02*
X85090000Y-101600000D01*
X120650000Y-101600000D02*
X102870000Y-101600000D01*
%TO.N,/~{M1}*%
X102870000Y-104140000D02*
X120650000Y-104140000D01*
X67310000Y-104140000D02*
X85090000Y-104140000D01*
X85090000Y-104140000D02*
X102870000Y-104140000D01*
X49530000Y-104140000D02*
X67310000Y-104140000D01*
X31750000Y-104140000D02*
X49530000Y-104140000D01*
X27940000Y-104140000D02*
X31750000Y-104140000D01*
X120650000Y-104140000D02*
X124460000Y-104140000D01*
%TO.N,/~{PHI}*%
X124460000Y-106680000D02*
X120650000Y-106680000D01*
X120650000Y-106680000D02*
X102870000Y-106680000D01*
X67310000Y-106680000D02*
X49530000Y-106680000D01*
X49530000Y-106680000D02*
X31750000Y-106680000D01*
X31750000Y-106680000D02*
X27940000Y-106680000D01*
X85090000Y-106680000D02*
X67310000Y-106680000D01*
X102870000Y-106680000D02*
X85090000Y-106680000D01*
%TO.N,/~{RFSH}*%
X102870000Y-109220000D02*
X120650000Y-109220000D01*
X31750000Y-109220000D02*
X49530000Y-109220000D01*
X49530000Y-109220000D02*
X67310000Y-109220000D01*
X67310000Y-109220000D02*
X85090000Y-109220000D01*
X120650000Y-109220000D02*
X124460000Y-109220000D01*
X27940000Y-109220000D02*
X31750000Y-109220000D01*
X85090000Y-109220000D02*
X102870000Y-109220000D01*
%TO.N,/~{INT}*%
X85090000Y-111760000D02*
X67310000Y-111760000D01*
X120650000Y-111760000D02*
X102870000Y-111760000D01*
X67310000Y-111760000D02*
X49530000Y-111760000D01*
X31750000Y-111760000D02*
X27940000Y-111760000D01*
X49530000Y-111760000D02*
X31750000Y-111760000D01*
X124460000Y-111760000D02*
X120650000Y-111760000D01*
X102870000Y-111760000D02*
X85090000Y-111760000D01*
%TO.N,/~{WAIT}*%
X31750000Y-114300000D02*
X49530000Y-114300000D01*
X67310000Y-114300000D02*
X85090000Y-114300000D01*
X120650000Y-114300000D02*
X124460000Y-114300000D01*
X102870000Y-114300000D02*
X120650000Y-114300000D01*
X85090000Y-114300000D02*
X102870000Y-114300000D01*
X27940000Y-114300000D02*
X31750000Y-114300000D01*
X49530000Y-114300000D02*
X67310000Y-114300000D01*
%TO.N,/A8*%
X31750000Y-116840000D02*
X27940000Y-116840000D01*
X67310000Y-116840000D02*
X49530000Y-116840000D01*
X124460000Y-116840000D02*
X120650000Y-116840000D01*
X120650000Y-116840000D02*
X102870000Y-116840000D01*
X102870000Y-116840000D02*
X85090000Y-116840000D01*
X49530000Y-116840000D02*
X31750000Y-116840000D01*
X85090000Y-116840000D02*
X67310000Y-116840000D01*
%TO.N,/A9*%
X27940000Y-119380000D02*
X31750000Y-119380000D01*
X31750000Y-119380000D02*
X49530000Y-119380000D01*
X67310000Y-119380000D02*
X85090000Y-119380000D01*
X49530000Y-119380000D02*
X67310000Y-119380000D01*
X120650000Y-119380000D02*
X124460000Y-119380000D01*
X85090000Y-119380000D02*
X102870000Y-119380000D01*
X102870000Y-119380000D02*
X120650000Y-119380000D01*
%TO.N,/A10*%
X67310000Y-121920000D02*
X85090000Y-121920000D01*
X49530000Y-121920000D02*
X67310000Y-121920000D01*
X120650000Y-121920000D02*
X124460000Y-121920000D01*
X102870000Y-121920000D02*
X120650000Y-121920000D01*
X85090000Y-121920000D02*
X102870000Y-121920000D01*
X27940000Y-121920000D02*
X31750000Y-121920000D01*
X31750000Y-121920000D02*
X49530000Y-121920000D01*
%TO.N,/A11*%
X85090000Y-124460000D02*
X67310000Y-124460000D01*
X31750000Y-124460000D02*
X27940000Y-124460000D01*
X49530000Y-124460000D02*
X31750000Y-124460000D01*
X102870000Y-124460000D02*
X85090000Y-124460000D01*
X67310000Y-124460000D02*
X49530000Y-124460000D01*
X120650000Y-124460000D02*
X102870000Y-124460000D01*
X124460000Y-124460000D02*
X120650000Y-124460000D01*
%TO.N,/A12*%
X102870000Y-127000000D02*
X120650000Y-127000000D01*
X85090000Y-127000000D02*
X102870000Y-127000000D01*
X120650000Y-127000000D02*
X124460000Y-127000000D01*
X67310000Y-127000000D02*
X85090000Y-127000000D01*
X49530000Y-127000000D02*
X67310000Y-127000000D01*
X27940000Y-127000000D02*
X31750000Y-127000000D01*
X31750000Y-127000000D02*
X49530000Y-127000000D01*
%TO.N,/A13*%
X49530000Y-129540000D02*
X31750000Y-129540000D01*
X124460000Y-129540000D02*
X120650000Y-129540000D01*
X120650000Y-129540000D02*
X102870000Y-129540000D01*
X102870000Y-129540000D02*
X85090000Y-129540000D01*
X67310000Y-129540000D02*
X49530000Y-129540000D01*
X31750000Y-129540000D02*
X27940000Y-129540000D01*
X85090000Y-129540000D02*
X67310000Y-129540000D01*
%TO.N,/A14*%
X27940000Y-132080000D02*
X31750000Y-132080000D01*
X49530000Y-132080000D02*
X67310000Y-132080000D01*
X31750000Y-132080000D02*
X49530000Y-132080000D01*
X102870000Y-132080000D02*
X120650000Y-132080000D01*
X67310000Y-132080000D02*
X85090000Y-132080000D01*
X120650000Y-132080000D02*
X124460000Y-132080000D01*
X85090000Y-132080000D02*
X102870000Y-132080000D01*
%TO.N,/A15*%
X102870000Y-134620000D02*
X85090000Y-134620000D01*
X67310000Y-134620000D02*
X49530000Y-134620000D01*
X124460000Y-134620000D02*
X120650000Y-134620000D01*
X31750000Y-134620000D02*
X27940000Y-134620000D01*
X85090000Y-134620000D02*
X67310000Y-134620000D01*
X49530000Y-134620000D02*
X31750000Y-134620000D01*
X120650000Y-134620000D02*
X102870000Y-134620000D01*
%TO.N,/BANKEN*%
X27940000Y-137160000D02*
X31750000Y-137160000D01*
X120650000Y-137160000D02*
X124460000Y-137160000D01*
X85090000Y-137160000D02*
X102870000Y-137160000D01*
X31750000Y-137160000D02*
X49530000Y-137160000D01*
X49530000Y-137160000D02*
X67310000Y-137160000D01*
X67310000Y-137160000D02*
X85090000Y-137160000D01*
X102870000Y-137160000D02*
X120650000Y-137160000D01*
%TO.N,/~{BUSRQ}*%
X85090000Y-139700000D02*
X67310000Y-139700000D01*
X124460000Y-139700000D02*
X120650000Y-139700000D01*
X31750000Y-139700000D02*
X27940000Y-139700000D01*
X67310000Y-139700000D02*
X49530000Y-139700000D01*
X49530000Y-139700000D02*
X31750000Y-139700000D01*
X120650000Y-139700000D02*
X102870000Y-139700000D01*
X102870000Y-139700000D02*
X85090000Y-139700000D01*
%TO.N,/~{BUSAK}*%
X31750000Y-142240000D02*
X49530000Y-142240000D01*
X85090000Y-142240000D02*
X102870000Y-142240000D01*
X49530000Y-142240000D02*
X67310000Y-142240000D01*
X67310000Y-142240000D02*
X85090000Y-142240000D01*
X27940000Y-142240000D02*
X31750000Y-142240000D01*
X120650000Y-142240000D02*
X124460000Y-142240000D01*
X102870000Y-142240000D02*
X120650000Y-142240000D01*
%TO.N,/PI1*%
X30480000Y-147320000D02*
X31750000Y-147320000D01*
X27940000Y-147320000D02*
X27940000Y-144780000D01*
X27940000Y-144780000D02*
X30480000Y-147320000D01*
%TO.N,/~{NMI}*%
X49530000Y-149860000D02*
X67310000Y-149860000D01*
X120650000Y-149860000D02*
X124460000Y-149860000D01*
X31750000Y-149860000D02*
X49530000Y-149860000D01*
X102870000Y-149860000D02*
X120650000Y-149860000D01*
X67310000Y-149860000D02*
X85090000Y-149860000D01*
X27940000Y-149860000D02*
X31750000Y-149860000D01*
X85090000Y-149860000D02*
X102870000Y-149860000D01*
%TO.N,/A16*%
X102870000Y-152400000D02*
X85090000Y-152400000D01*
X49530000Y-152400000D02*
X31750000Y-152400000D01*
X67310000Y-152400000D02*
X49530000Y-152400000D01*
X120650000Y-152400000D02*
X102870000Y-152400000D01*
X31750000Y-152400000D02*
X27940000Y-152400000D01*
X124460000Y-152400000D02*
X120650000Y-152400000D01*
X85090000Y-152400000D02*
X67310000Y-152400000D01*
%TO.N,/A17*%
X67310000Y-154940000D02*
X85090000Y-154940000D01*
X27940000Y-154940000D02*
X31750000Y-154940000D01*
X102870000Y-154940000D02*
X120650000Y-154940000D01*
X31750000Y-154940000D02*
X49530000Y-154940000D01*
X49530000Y-154940000D02*
X67310000Y-154940000D01*
X85090000Y-154940000D02*
X102870000Y-154940000D01*
X120650000Y-154940000D02*
X124460000Y-154940000D01*
%TO.N,/A18*%
X120650000Y-157480000D02*
X102870000Y-157480000D01*
X85090000Y-157480000D02*
X67310000Y-157480000D01*
X49530000Y-157480000D02*
X31750000Y-157480000D01*
X31750000Y-157480000D02*
X27940000Y-157480000D01*
X102870000Y-157480000D02*
X85090000Y-157480000D01*
X67310000Y-157480000D02*
X49530000Y-157480000D01*
X124460000Y-157480000D02*
X120650000Y-157480000D01*
%TO.N,/A19*%
X31750000Y-160020000D02*
X49530000Y-160020000D01*
X49530000Y-160020000D02*
X67310000Y-160020000D01*
X85090000Y-160020000D02*
X102870000Y-160020000D01*
X67310000Y-160020000D02*
X85090000Y-160020000D01*
X120650000Y-160020000D02*
X124460000Y-160020000D01*
X102870000Y-160020000D02*
X120650000Y-160020000D01*
X27940000Y-160020000D02*
X31750000Y-160020000D01*
%TO.N,/RESERVE*%
X31750000Y-167640000D02*
X49530000Y-167640000D01*
X85090000Y-167640000D02*
X102870000Y-167640000D01*
X67310000Y-167640000D02*
X85090000Y-167640000D01*
X27940000Y-167640000D02*
X31750000Y-167640000D01*
X49530000Y-167640000D02*
X67310000Y-167640000D01*
X102870000Y-167640000D02*
X120650000Y-167640000D01*
X120650000Y-167640000D02*
X124460000Y-167640000D01*
%TO.N,/PI2*%
X31750000Y-144780000D02*
X39370000Y-144780000D01*
X41910000Y-147320000D02*
X49530000Y-147320000D01*
X39370000Y-144780000D02*
X41910000Y-147320000D01*
%TO.N,/PI3*%
X49530000Y-144780000D02*
X57150000Y-144780000D01*
X59690000Y-147320000D02*
X67310000Y-147320000D01*
X57150000Y-144780000D02*
X59690000Y-147320000D01*
%TO.N,/PI4*%
X74930000Y-144780000D02*
X77470000Y-147320000D01*
X67310000Y-144780000D02*
X74930000Y-144780000D01*
X77470000Y-147320000D02*
X85090000Y-147320000D01*
%TO.N,/PI5*%
X92710000Y-144780000D02*
X95250000Y-147320000D01*
X85090000Y-144780000D02*
X92710000Y-144780000D01*
X95250000Y-147320000D02*
X102870000Y-147320000D01*
%TO.N,/PI6*%
X110490000Y-144780000D02*
X113030000Y-147320000D01*
X113030000Y-147320000D02*
X120650000Y-147320000D01*
X102870000Y-144780000D02*
X110490000Y-144780000D01*
%TO.N,/PI7*%
X124460000Y-147320000D02*
X124460000Y-144780000D01*
X123190000Y-147320000D02*
X124460000Y-147320000D01*
X120650000Y-144780000D02*
X123190000Y-147320000D01*
%TD*%
%TA.AperFunction,Conductor*%
%TO.N,GND*%
G36*
X125037121Y-45105002D02*
G01*
X125083614Y-45158658D01*
X125095000Y-45211000D01*
X125095000Y-48769000D01*
X125074998Y-48837121D01*
X125021342Y-48883614D01*
X124969000Y-48895000D01*
X27431000Y-48895000D01*
X27362879Y-48874998D01*
X27316386Y-48821342D01*
X27305000Y-48769000D01*
X27305000Y-45211000D01*
X27325002Y-45142879D01*
X27378658Y-45096386D01*
X27431000Y-45085000D01*
X124969000Y-45085000D01*
X125037121Y-45105002D01*
G37*
%TD.AperFunction*%
%TD*%
%TA.AperFunction,Conductor*%
%TO.N,+5V*%
G36*
X125037121Y-40025002D02*
G01*
X125083614Y-40078658D01*
X125095000Y-40131000D01*
X125095000Y-43689000D01*
X125074998Y-43757121D01*
X125021342Y-43803614D01*
X124969000Y-43815000D01*
X27431000Y-43815000D01*
X27362879Y-43794998D01*
X27316386Y-43741342D01*
X27305000Y-43689000D01*
X27305000Y-40131000D01*
X27325002Y-40062879D01*
X27378658Y-40016386D01*
X27431000Y-40005000D01*
X124969000Y-40005000D01*
X125037121Y-40025002D01*
G37*
%TD.AperFunction*%
%TD*%
%TA.AperFunction,Conductor*%
%TO.N,GND*%
G36*
X125037121Y-161945002D02*
G01*
X125083614Y-161998658D01*
X125095000Y-162051000D01*
X125095000Y-165609000D01*
X125074998Y-165677121D01*
X125021342Y-165723614D01*
X124969000Y-165735000D01*
X27431000Y-165735000D01*
X27362879Y-165714998D01*
X27316386Y-165661342D01*
X27305000Y-165609000D01*
X27305000Y-162051000D01*
X27325002Y-161982879D01*
X27378658Y-161936386D01*
X27431000Y-161925000D01*
X124969000Y-161925000D01*
X125037121Y-161945002D01*
G37*
%TD.AperFunction*%
%TD*%
%TA.AperFunction,Conductor*%
%TO.N,-5V*%
G36*
X125037121Y-32405002D02*
G01*
X125083614Y-32458658D01*
X125095000Y-32511000D01*
X125095000Y-33529000D01*
X125074998Y-33597121D01*
X125021342Y-33643614D01*
X124969000Y-33655000D01*
X27431000Y-33655000D01*
X27362879Y-33634998D01*
X27316386Y-33581342D01*
X27305000Y-33529000D01*
X27305000Y-32511000D01*
X27325002Y-32442879D01*
X27378658Y-32396386D01*
X27431000Y-32385000D01*
X124969000Y-32385000D01*
X125037121Y-32405002D01*
G37*
%TD.AperFunction*%
%TD*%
%TA.AperFunction,Conductor*%
%TO.N,-12V*%
G36*
X125037121Y-37485002D02*
G01*
X125083614Y-37538658D01*
X125095000Y-37591000D01*
X125095000Y-38609000D01*
X125074998Y-38677121D01*
X125021342Y-38723614D01*
X124969000Y-38735000D01*
X27431000Y-38735000D01*
X27362879Y-38714998D01*
X27316386Y-38661342D01*
X27305000Y-38609000D01*
X27305000Y-37591000D01*
X27325002Y-37522879D01*
X27378658Y-37476386D01*
X27431000Y-37465000D01*
X124969000Y-37465000D01*
X125037121Y-37485002D01*
G37*
%TD.AperFunction*%
%TD*%
%TA.AperFunction,Conductor*%
%TO.N,+12V*%
G36*
X125037121Y-34945002D02*
G01*
X125083614Y-34998658D01*
X125095000Y-35051000D01*
X125095000Y-36069000D01*
X125074998Y-36137121D01*
X125021342Y-36183614D01*
X124969000Y-36195000D01*
X27431000Y-36195000D01*
X27362879Y-36174998D01*
X27316386Y-36121342D01*
X27305000Y-36069000D01*
X27305000Y-35051000D01*
X27325002Y-34982879D01*
X27378658Y-34936386D01*
X27431000Y-34925000D01*
X124969000Y-34925000D01*
X125037121Y-34945002D01*
G37*
%TD.AperFunction*%
%TD*%
M02*
